<?xml version="1.0" encoding="UTF-8" standalone="no"?>
<!DOCTYPE svg PUBLIC "-//W3C//DTD SVG 1.1//EN"
 "http://www.w3.org/Graphics/SVG/1.1/DTD/svg11.dtd">
<!-- Generated by graphviz version 2.40.1 (20161225.0304)
 -->
<!-- Title: G Pages: 1 -->
<svg width="483pt" height="153pt"
 viewBox="0.00 0.00 482.79 153.00" xmlns="http://www.w3.org/2000/svg" xmlns:xlink="http://www.w3.org/1999/xlink">
<g id="graph0" class="graph" transform="scale(1 1) rotate(0) translate(4 149)">
<title>G</title>
<polygon fill="#ffffff" stroke="transparent" points="-4,4 -4,-149 478.786,-149 478.786,4 -4,4"/>
<!-- A0 -->
<g id="node1" class="node">
<title>A0</title>
<polygon fill="none" stroke="#000000" points="0,-66 0,-98 134,-98 134,-66 0,-66"/>
<text text-anchor="start" x="30.051" y="-79" font-family="Helvetica,sans-Serif" font-size="10.00" fill="#000000">OverworldScene</text>
<polygon fill="none" stroke="#000000" points="0,-34 0,-66 134,-66 134,-34 0,-34"/>
<text text-anchor="start" x="9.635" y="-47" font-family="Helvetica,sans-Serif" font-size="10.00" fill="#000000">+OverworldScene(Player)</text>
</g>
<!-- A1 -->
<g id="node2" class="node">
<title>A1</title>
<polygon fill="none" stroke="#000000" points="289.8417,-118 208.1583,-118 208.1583,-82 289.8417,-82 289.8417,-118"/>
<text text-anchor="middle" x="249" y="-97" font-family="Helvetica,sans-Serif" font-size="10.00" fill="#000000">TextureMap</text>
</g>
<!-- A0&#45;&gt;A1 -->
<g id="edge1" class="edge">
<title>A0&#45;&gt;A1</title>
<path fill="none" stroke="#000000" d="M134.253,-78.5637C155.3791,-82.5104 178.3412,-86.8 198.1351,-90.4978"/>
<polygon fill="#000000" stroke="#000000" points="208.1707,-92.3725 197.5144,-94.9596 203.2557,-91.4543 198.3408,-90.5361 198.3408,-90.5361 198.3408,-90.5361 203.2557,-91.4543 199.1672,-86.1126 208.1707,-92.3725 208.1707,-92.3725"/>
</g>
<!-- A2 -->
<g id="node3" class="node">
<title>A2</title>
<polygon fill="none" stroke="#000000" points="184,-32 184,-64 314,-64 314,-32 184,-32"/>
<text text-anchor="start" x="213.9965" y="-45" font-family="Helvetica,sans-Serif" font-size="10.00" fill="#000000">PlayerRenderer</text>
<polygon fill="none" stroke="#000000" points="184,0 184,-32 314,-32 314,0 184,0"/>
<text text-anchor="start" x="193.5805" y="-13" font-family="Helvetica,sans-Serif" font-size="10.00" fill="#000000">+PlayerRenderer(Player)</text>
</g>
<!-- A0&#45;&gt;A2 -->
<g id="edge2" class="edge">
<title>A0&#45;&gt;A2</title>
<path fill="none" stroke="#000000" d="M134.253,-53.4363C147.1636,-51.0244 160.7599,-48.4844 173.8998,-46.0297"/>
<polygon fill="#000000" stroke="#000000" points="183.84,-44.1727 174.8364,-50.4327 178.925,-45.091 174.01,-46.0092 174.01,-46.0092 174.01,-46.0092 178.925,-45.091 173.1836,-41.5857 183.84,-44.1727 183.84,-44.1727"/>
</g>
<!-- A3 -->
<g id="node4" class="node">
<title>A3</title>
<polygon fill="none" stroke="#000000" points="474.6792,-145 364.1068,-145 364.1068,-109 474.6792,-109 474.6792,-145"/>
<text text-anchor="middle" x="419.393" y="-124" font-family="Helvetica,sans-Serif" font-size="10.00" fill="#000000">TextureMapParser</text>
</g>
<!-- A1&#45;&gt;A3 -->
<g id="edge3" class="edge">
<title>A1&#45;&gt;A3</title>
<path fill="none" stroke="#000000" stroke-dasharray="5,2" d="M289.8134,-100.608C309.0222,-102.8025 332.4073,-106.266 353.9966,-110.0522"/>
<polygon fill="#000000" stroke="#000000" points="364.0952,-111.8716 353.4557,-114.5271 359.1744,-110.985 354.2536,-110.0984 354.2536,-110.0984 354.2536,-110.0984 359.1744,-110.985 355.0515,-105.6697 364.0952,-111.8716 364.0952,-111.8716"/>
</g>
<!-- A4 -->
<g id="node5" class="node">
<title>A4</title>
<polygon fill="none" stroke="#000000" points="448.3387,-91 390.4473,-91 390.4473,-55 448.3387,-55 448.3387,-91"/>
<text text-anchor="middle" x="419.393" y="-70" font-family="Helvetica,sans-Serif" font-size="10.00" fill="#000000">Tileset</text>
</g>
<!-- A1&#45;&gt;A4 -->
<g id="edge5" class="edge">
<title>A1&#45;&gt;A4</title>
<path fill="none" stroke="#000000" stroke-dasharray="5,2" d="M289.8134,-93.5328C317.4009,-89.1614 353.6026,-83.425 380.7273,-79.1269"/>
<polygon fill="#000000" stroke="#000000" points="390.6417,-77.5558 381.4693,-83.5655 385.7033,-78.3384 380.765,-79.121 380.765,-79.121 380.765,-79.121 385.7033,-78.3384 380.0606,-74.6764 390.6417,-77.5558 390.6417,-77.5558"/>
</g>
<!-- A5 -->
<g id="node6" class="node">
<title>A5</title>
<polygon fill="none" stroke="#000000" points="458.393,-37 380.393,-37 380.393,-1 458.393,-1 458.393,-37"/>
<text text-anchor="middle" x="419.393" y="-16" font-family="Helvetica,sans-Serif" font-size="10.00" fill="#000000">TextureTile</text>
</g>
<!-- A1&#45;&gt;A5 -->
<g id="edge6" class="edge">
<title>A1&#45;&gt;A5</title>
<path fill="none" stroke="#000000" d="M300.9101,-78.9946C305.3628,-77.0245 309.7766,-75.0111 314,-73 336.802,-62.142 341.533,-57.5353 364,-46 366.8552,-44.5341 369.8019,-43.0409 372.7795,-41.5471"/>
<polygon fill="#000000" stroke="#000000" points="300.8626,-79.015 296.9422,-85.0673 289.8476,-83.7762 293.768,-77.7239 300.8626,-79.015"/>
<polygon fill="#000000" stroke="#000000" points="381.7441,-37.0899 374.7932,-45.5714 377.2669,-39.3159 372.7898,-41.542 372.7898,-41.542 372.7898,-41.542 377.2669,-39.3159 370.7864,-37.5125 381.7441,-37.0899 381.7441,-37.0899"/>
<text text-anchor="middle" x="369.2764" y="-49.7282" font-family="Helvetica,sans-Serif" font-size="10.00" fill="#000000">n</text>
<text text-anchor="middle" x="303.1324" y="-65.8258" font-family="Helvetica,sans-Serif" font-size="10.00" fill="#000000">1</text>
</g>
<!-- A3&#45;&gt;A1 -->
<g id="edge4" class="edge">
<title>A3&#45;&gt;A1</title>
<path fill="none" stroke="#000000" stroke-dasharray="5,2" d="M364.0952,-124.6038C343.4133,-121.879 320.0393,-118.1314 299.7844,-114.2818"/>
<polygon fill="#000000" stroke="#000000" points="289.8134,-112.3264 300.4925,-109.835 294.7199,-113.2886 299.6264,-114.2509 299.6264,-114.2509 299.6264,-114.2509 294.7199,-113.2886 298.7604,-118.6668 289.8134,-112.3264 289.8134,-112.3264"/>
</g>
</g>
</svg>
