<?xml version="1.0" encoding="UTF-8" standalone="no"?>
<!DOCTYPE svg PUBLIC "-//W3C//DTD SVG 1.1//EN"
 "http://www.w3.org/Graphics/SVG/1.1/DTD/svg11.dtd">
<!-- Generated by graphviz version 2.40.1 (20161225.0304)
 -->
<!-- Title: G Pages: 1 -->
<svg width="624pt" height="554pt"
 viewBox="0.00 0.00 623.50 554.00" xmlns="http://www.w3.org/2000/svg" xmlns:xlink="http://www.w3.org/1999/xlink">
<g id="graph0" class="graph" transform="scale(1 1) rotate(0) translate(4 550)">
<title>G</title>
<polygon fill="#ffffff" stroke="transparent" points="-4,4 -4,-550 619.5,-550 619.5,4 -4,4"/>
<!-- A0 -->
<g id="node1" class="node">
<title>A0</title>
<polygon fill="none" stroke="#000000" points="334,-514 334,-546 509,-546 509,-514 334,-514"/>
<text text-anchor="start" x="389.825" y="-527" font-family="Helvetica,sans-Serif" font-size="10.00" fill="#000000">CombatScene</text>
<polygon fill="none" stroke="#000000" points="334,-482 334,-514 509,-514 509,-482 334,-482"/>
<text text-anchor="start" x="343.844" y="-495" font-family="Helvetica,sans-Serif" font-size="10.00" fill="#000000">+CombatScene(Encounter, Player)</text>
</g>
<!-- A1 -->
<g id="node2" class="node">
<title>A1</title>
<polygon fill="none" stroke="#000000" points="242,-400 242,-432 405,-432 405,-400 242,-400"/>
<text text-anchor="start" x="297.665" y="-413" font-family="Helvetica,sans-Serif" font-size="10.00" fill="#000000">UIRenderer</text>
<polygon fill="none" stroke="#000000" points="242,-356 242,-400 405,-400 405,-356 242,-356"/>
<text text-anchor="start" x="251.684" y="-381" font-family="Helvetica,sans-Serif" font-size="10.00" fill="#000000">+UIRenderer(Encounter, Player)</text>
<text text-anchor="start" x="292.2465" y="-369" font-family="Helvetica,sans-Serif" font-size="10.00" fill="#000000">+render():void</text>
</g>
<!-- A0&#45;&gt;A1 -->
<g id="edge1" class="edge">
<title>A0&#45;&gt;A1</title>
<path fill="none" stroke="#000000" d="M386.8617,-472.198C378.4067,-461.8449 369.2996,-450.6933 360.6859,-440.1459"/>
<polygon fill="#000000" stroke="#000000" points="387.1473,-472.5478 394.0407,-474.6648 394.7378,-481.8422 387.8444,-479.7251 387.1473,-472.5478"/>
<polygon fill="#000000" stroke="#000000" points="354.2141,-432.2213 364.0248,-437.1202 357.3767,-436.094 360.5394,-439.9666 360.5394,-439.9666 360.5394,-439.9666 357.3767,-436.094 357.054,-442.8131 354.2141,-432.2213 354.2141,-432.2213"/>
</g>
<!-- A2 -->
<g id="node3" class="node">
<title>A2</title>
<polygon fill="none" stroke="#000000" points="423,-400 423,-432 616,-432 616,-400 423,-400"/>
<text text-anchor="start" x="478.662" y="-413" font-family="Helvetica,sans-Serif" font-size="10.00" fill="#000000">GraphicsRenderer</text>
<polygon fill="none" stroke="#000000" points="423,-356 423,-400 616,-400 616,-356 423,-356"/>
<text text-anchor="start" x="432.681" y="-381" font-family="Helvetica,sans-Serif" font-size="10.00" fill="#000000">+GraphicsRenderer(Encounter, Player)</text>
<text text-anchor="start" x="488.2465" y="-369" font-family="Helvetica,sans-Serif" font-size="10.00" fill="#000000">+render():void</text>
</g>
<!-- A0&#45;&gt;A2 -->
<g id="edge2" class="edge">
<title>A0&#45;&gt;A2</title>
<path fill="none" stroke="#000000" d="M455.1383,-472.198C463.5933,-461.8449 472.7004,-450.6933 481.3141,-440.1459"/>
<polygon fill="#000000" stroke="#000000" points="454.8527,-472.5478 454.1556,-479.7251 447.2622,-481.8422 447.9593,-474.6648 454.8527,-472.5478"/>
<polygon fill="#000000" stroke="#000000" points="487.7859,-432.2213 484.946,-442.8131 484.6233,-436.094 481.4606,-439.9666 481.4606,-439.9666 481.4606,-439.9666 484.6233,-436.094 477.9752,-437.1202 487.7859,-432.2213 487.7859,-432.2213"/>
</g>
<!-- A3 -->
<g id="node4" class="node">
<title>A3</title>
<polygon fill="none" stroke="#000000" points="85,-268 85,-300 251,-300 251,-268 85,-268"/>
<text text-anchor="start" x="131.6065" y="-281" font-family="Helvetica,sans-Serif" font-size="10.00" fill="#000000">ChoiceRenderer</text>
<polygon fill="none" stroke="#000000" points="85,-236 85,-268 251,-268 251,-236 85,-236"/>
<text text-anchor="start" x="108.267" y="-249" font-family="Helvetica,sans-Serif" font-size="10.00" fill="#000000">&#45;currentSelection:Selection</text>
<polygon fill="none" stroke="#000000" points="85,-180 85,-236 251,-236 251,-180 85,-180"/>
<text text-anchor="start" x="94.514" y="-217" font-family="Helvetica,sans-Serif" font-size="10.00" fill="#000000">+changeSelection(Direction):void</text>
<text text-anchor="start" x="98.954" y="-205" font-family="Helvetica,sans-Serif" font-size="10.00" fill="#000000">+getCurrentSelection:Selection</text>
<text text-anchor="start" x="135.357" y="-193" font-family="Helvetica,sans-Serif" font-size="10.00" fill="#000000"> +render():void</text>
</g>
<!-- A1&#45;&gt;A3 -->
<g id="edge3" class="edge">
<title>A1&#45;&gt;A3</title>
<path fill="none" stroke="#000000" d="M276.0934,-347.396C263.3323,-334.7172 249.2528,-320.7286 235.591,-307.155"/>
<polygon fill="#000000" stroke="#000000" points="276.1727,-347.4748 283.2483,-348.8661 284.6854,-355.9326 277.6098,-354.5412 276.1727,-347.4748"/>
<polygon fill="#000000" stroke="#000000" points="228.4941,-300.1038 238.7597,-303.9597 232.041,-303.6279 235.588,-307.152 235.588,-307.152 235.588,-307.152 232.041,-303.6279 232.4163,-310.3442 228.4941,-300.1038 228.4941,-300.1038"/>
</g>
<!-- A4 -->
<g id="node5" class="node">
<title>A4</title>
<polygon fill="none" stroke="#000000" points="270,-274 270,-306 409,-306 409,-274 270,-274"/>
<text text-anchor="start" x="316.439" y="-287" font-family="Helvetica,sans-Serif" font-size="10.00" fill="#000000">HealthBox</text>
<polygon fill="none" stroke="#000000" points="270,-230 270,-274 409,-274 409,-230 270,-230"/>
<text text-anchor="start" x="307.2765" y="-255" font-family="Helvetica,sans-Serif" font-size="10.00" fill="#000000">&#45;maxHealth:int</text>
<text text-anchor="start" x="301.1635" y="-243" font-family="Helvetica,sans-Serif" font-size="10.00" fill="#000000">&#45;currentHealth:int</text>
<polygon fill="none" stroke="#000000" points="270,-174 270,-230 409,-230 409,-174 270,-174"/>
<text text-anchor="start" x="304.912" y="-211" font-family="Helvetica,sans-Serif" font-size="10.00" fill="#000000">+HealthBox(int)</text>
<text text-anchor="start" x="279.6325" y="-199" font-family="Helvetica,sans-Serif" font-size="10.00" fill="#000000">+setCurrentHealth(int):void</text>
<text text-anchor="start" x="308.2465" y="-187" font-family="Helvetica,sans-Serif" font-size="10.00" fill="#000000">+render():void</text>
</g>
<!-- A1&#45;&gt;A4 -->
<g id="edge4" class="edge">
<title>A1&#45;&gt;A4</title>
<path fill="none" stroke="#000000" d="M328.2144,-343.8116C329.1326,-334.9739 330.1067,-325.5978 331.0793,-316.2367"/>
<polygon fill="#000000" stroke="#000000" points="328.1952,-343.9968 331.5537,-350.3781 326.9551,-355.9326 323.5966,-349.5513 328.1952,-343.9968"/>
<polygon fill="#000000" stroke="#000000" points="332.1313,-306.111 335.5737,-316.5225 331.6146,-311.0843 331.0978,-316.0575 331.0978,-316.0575 331.0978,-316.0575 331.6146,-311.0843 326.6219,-315.5924 332.1313,-306.111 332.1313,-306.111"/>
<text text-anchor="middle" x="338.6653" y="-322.0136" font-family="Helvetica,sans-Serif" font-size="10.00" fill="#000000">2</text>
<text text-anchor="middle" x="320.4211" y="-334.03" font-family="Helvetica,sans-Serif" font-size="10.00" fill="#000000">1</text>
</g>
<!-- A8 -->
<g id="node9" class="node">
<title>A8</title>
<polygon fill="none" stroke="#000000" points="442,-246 442,-278 596,-278 596,-246 442,-246"/>
<text text-anchor="start" x="478.718" y="-259" font-family="Helvetica,sans-Serif" font-size="10.00" fill="#000000">CreatureRenderer</text>
<polygon fill="none" stroke="#000000" points="442,-202 442,-246 596,-246 596,-202 442,-202"/>
<text text-anchor="start" x="451.634" y="-227" font-family="Helvetica,sans-Serif" font-size="10.00" fill="#000000">+CreatureRenderer(ICreature)</text>
<text text-anchor="start" x="487.7465" y="-215" font-family="Helvetica,sans-Serif" font-size="10.00" fill="#000000">+render():void</text>
</g>
<!-- A2&#45;&gt;A8 -->
<g id="edge8" class="edge">
<title>A2&#45;&gt;A8</title>
<path fill="none" stroke="#000000" d="M519,-343.7913C519,-325.9557 519,-305.9291 519,-288.2598"/>
<polygon fill="#000000" stroke="#000000" points="519.0001,-343.9326 523,-349.9326 519,-355.9326 515,-349.9325 519.0001,-343.9326"/>
<polygon fill="#000000" stroke="#000000" points="519,-278.1632 523.5001,-288.1632 519,-283.1632 519.0001,-288.1632 519.0001,-288.1632 519.0001,-288.1632 519,-283.1632 514.5001,-288.1633 519,-278.1632 519,-278.1632"/>
<text text-anchor="middle" x="527.4524" y="-293.2894" font-family="Helvetica,sans-Serif" font-size="10.00" fill="#000000">n</text>
<text text-anchor="middle" x="510.5476" y="-334.8064" font-family="Helvetica,sans-Serif" font-size="10.00" fill="#000000">1</text>
</g>
<!-- A5 -->
<g id="node6" class="node">
<title>A5</title>
<polygon fill="none" stroke="#000000" points="0,-74 0,-118 100,-118 100,-74 0,-74"/>
<text text-anchor="start" x="9.9825" y="-99" font-family="Helvetica,sans-Serif" font-size="10.00" fill="#000000">&lt;&lt;Enumeration&gt;&gt;</text>
<text text-anchor="start" x="29.439" y="-87" font-family="Helvetica,sans-Serif" font-size="10.00" fill="#000000">Selection</text>
<polygon fill="none" stroke="#000000" points="0,-6 0,-74 100,-74 100,-6 0,-6"/>
<text text-anchor="start" x="34.168" y="-55" font-family="Helvetica,sans-Serif" font-size="10.00" fill="#000000"> FIRST</text>
<text text-anchor="start" x="28.613" y="-43" font-family="Helvetica,sans-Serif" font-size="10.00" fill="#000000">SECOND</text>
<text text-anchor="start" x="34.7275" y="-31" font-family="Helvetica,sans-Serif" font-size="10.00" fill="#000000">THIRD</text>
<text text-anchor="start" x="29.173" y="-19" font-family="Helvetica,sans-Serif" font-size="10.00" fill="#000000">FOURTH</text>
</g>
<!-- A3&#45;&gt;A5 -->
<g id="edge5" class="edge">
<title>A3&#45;&gt;A5</title>
<path fill="none" stroke="#000000" d="M128.0506,-179.7373C116.7313,-162.6624 104.364,-144.0066 92.8793,-126.6823"/>
<polygon fill="#000000" stroke="#000000" points="87.3207,-118.2974 96.5969,-124.1459 90.0835,-122.4648 92.8462,-126.6323 92.8462,-126.6323 92.8462,-126.6323 90.0835,-122.4648 89.0955,-129.1187 87.3207,-118.2974 87.3207,-118.2974"/>
</g>
<!-- A6 -->
<g id="node7" class="node">
<title>A6</title>
<polygon fill="none" stroke="#000000" points="118,-80 118,-124 218,-124 218,-80 118,-80"/>
<text text-anchor="start" x="127.9825" y="-105" font-family="Helvetica,sans-Serif" font-size="10.00" fill="#000000">&lt;&lt;Enumeration&gt;&gt;</text>
<text text-anchor="start" x="148.279" y="-93" font-family="Helvetica,sans-Serif" font-size="10.00" fill="#000000">Direction</text>
<polygon fill="none" stroke="#000000" points="118,0 118,-80 218,-80 218,0 118,0"/>
<text text-anchor="start" x="159.6665" y="-61" font-family="Helvetica,sans-Serif" font-size="10.00" fill="#000000"> UP</text>
<text text-anchor="start" x="152.172" y="-49" font-family="Helvetica,sans-Serif" font-size="10.00" fill="#000000">DOWN</text>
<text text-anchor="start" x="155.777" y="-37" font-family="Helvetica,sans-Serif" font-size="10.00" fill="#000000">LEFT</text>
<text text-anchor="start" x="152.4475" y="-25" font-family="Helvetica,sans-Serif" font-size="10.00" fill="#000000">RIGHT</text>
<text text-anchor="start" x="154.387" y="-13" font-family="Helvetica,sans-Serif" font-size="10.00" fill="#000000">BACK</text>
</g>
<!-- A3&#45;&gt;A6 -->
<g id="edge6" class="edge">
<title>A3&#45;&gt;A6</title>
<path fill="none" stroke="#000000" d="M168,-179.7373C168,-165.1508 168,-149.4105 168,-134.3322"/>
<polygon fill="#000000" stroke="#000000" points="168,-124.0215 172.5001,-134.0214 168,-129.0215 168.0001,-134.0215 168.0001,-134.0215 168.0001,-134.0215 168,-129.0215 163.5001,-134.0215 168,-124.0215 168,-124.0215"/>
</g>
<!-- A7 -->
<g id="node8" class="node">
<title>A7</title>
<polygon fill="none" stroke="#000000" points="236,-62 236,-94 354,-94 354,-62 236,-62"/>
<text text-anchor="start" x="264.9905" y="-75" font-family="Helvetica,sans-Serif" font-size="10.00" fill="#000000">ChoiceButton</text>
<polygon fill="none" stroke="#000000" points="236,-30 236,-62 354,-62 354,-30 236,-30"/>
<text text-anchor="start" x="245.96" y="-43" font-family="Helvetica,sans-Serif" font-size="10.00" fill="#000000">+render(boolean):void</text>
</g>
<!-- A3&#45;&gt;A7 -->
<g id="edge7" class="edge">
<title>A3&#45;&gt;A7</title>
<path fill="none" stroke="#000000" d="M218.0496,-169.8517C234.3664,-146.9826 251.9249,-122.373 266.1437,-102.4442"/>
<polygon fill="#000000" stroke="#000000" points="217.9661,-169.9688 217.7374,-177.1763 210.9964,-179.7373 211.2251,-172.5298 217.9661,-169.9688"/>
<polygon fill="#000000" stroke="#000000" points="272.0197,-94.2087 269.8748,-104.9628 269.1156,-98.2789 266.2116,-102.3491 266.2116,-102.3491 266.2116,-102.3491 269.1156,-98.2789 262.5484,-99.7355 272.0197,-94.2087 272.0197,-94.2087"/>
<text text-anchor="middle" x="268.3725" y="-110.8733" font-family="Helvetica,sans-Serif" font-size="10.00" fill="#000000">4</text>
<text text-anchor="middle" x="214.6436" y="-157.0727" font-family="Helvetica,sans-Serif" font-size="10.00" fill="#000000">1</text>
</g>
</g>
</svg>
