<?xml version="1.0" encoding="UTF-8" standalone="no"?>
<!DOCTYPE svg PUBLIC "-//W3C//DTD SVG 1.1//EN"
 "http://www.w3.org/Graphics/SVG/1.1/DTD/svg11.dtd">
<!-- Generated by graphviz version 2.40.1 (20161225.0304)
 -->
<!-- Title: G Pages: 1 -->
<svg width="1019pt" height="498pt"
 viewBox="0.00 0.00 1019.00 498.00" xmlns="http://www.w3.org/2000/svg" xmlns:xlink="http://www.w3.org/1999/xlink">
<g id="graph0" class="graph" transform="scale(1 1) rotate(0) translate(4 494)">
<title>G</title>
<polygon fill="#ffffff" stroke="transparent" points="-4,4 -4,-494 1015,-494 1015,4 -4,4"/>
<!-- A0 -->
<g id="node1" class="node">
<title>A0</title>
<polygon fill="none" stroke="#000000" points="318,-458 318,-490 451,-490 451,-458 318,-458"/>
<text text-anchor="start" x="348.1115" y="-471" font-family="Helvetica,sans-Serif" font-size="10.00" fill="#000000">OverworldModel</text>
<polygon fill="none" stroke="#000000" points="318,-426 318,-458 451,-458 451,-426 318,-426"/>
<text text-anchor="start" x="327.6955" y="-439" font-family="Helvetica,sans-Serif" font-size="10.00" fill="#000000">+OverworldModel(Player)</text>
</g>
<!-- A1 -->
<g id="node2" class="node">
<title>A1</title>
<polygon fill="none" stroke="#000000" points="0,-338 0,-370 306,-370 306,-338 0,-338"/>
<text text-anchor="start" x="112.162" y="-351" font-family="Helvetica,sans-Serif" font-size="10.00" fill="#000000">MovementHandler</text>
<polygon fill="none" stroke="#000000" points="0,-306 0,-338 306,-338 306,-306 0,-306"/>
<text text-anchor="start" x="9.776" y="-319" font-family="Helvetica,sans-Serif" font-size="10.00" fill="#000000">+calculateMovement(Pair&lt;int,int&gt;,Pair&lt;int,int&gt;,Map):Pair&lt;int,int&gt;</text>
</g>
<!-- A0&#45;&gt;A1 -->
<g id="edge1" class="edge">
<title>A0&#45;&gt;A1</title>
<path fill="none" stroke="#000000" stroke-dasharray="5,2" d="M322.3997,-425.9998C292.11,-410.265 255.4452,-391.2183 223.9834,-374.8745"/>
<polygon fill="#000000" stroke="#000000" points="214.8296,-370.1193 225.7782,-370.7359 219.2667,-372.4243 223.7037,-374.7292 223.7037,-374.7292 223.7037,-374.7292 219.2667,-372.4243 221.6292,-378.7226 214.8296,-370.1193 214.8296,-370.1193"/>
</g>
<!-- A2 -->
<g id="node3" class="node">
<title>A2</title>
<polygon fill="none" stroke="#000000" points="325,-344 325,-376 444,-376 444,-344 325,-344"/>
<text text-anchor="start" x="373.387" y="-357" font-family="Helvetica,sans-Serif" font-size="10.00" fill="#000000">Map </text>
<polygon fill="none" stroke="#000000" points="325,-300 325,-344 444,-344 444,-300 325,-300"/>
<text text-anchor="start" x="334.63" y="-325" font-family="Helvetica,sans-Serif" font-size="10.00" fill="#000000"> +getGlobalMap():Map</text>
<text text-anchor="start" x="350.747" y="-313" font-family="Helvetica,sans-Serif" font-size="10.00" fill="#000000"> +getTiles:Tiles</text>
</g>
<!-- A0&#45;&gt;A2 -->
<g id="edge2" class="edge">
<title>A0&#45;&gt;A2</title>
<path fill="none" stroke="#000000" d="M384,-413.5063C384,-404.7023 384,-395.42 384,-386.491"/>
<polygon fill="#000000" stroke="#000000" points="384.0001,-413.8422 388,-419.8422 384,-425.8422 380,-419.8422 384.0001,-413.8422"/>
<polygon fill="#000000" stroke="#000000" points="384,-376.2213 388.5001,-386.2212 384,-381.2213 384.0001,-386.2213 384.0001,-386.2213 384.0001,-386.2213 384,-381.2213 379.5001,-386.2213 384,-376.2213 384,-376.2213"/>
</g>
<!-- A5 -->
<g id="node6" class="node">
<title>A5</title>
<polygon fill="none" stroke="#000000" points="521,-338 521,-370 661,-370 661,-338 521,-338"/>
<text text-anchor="start" x="550.7125" y="-351" font-family="Helvetica,sans-Serif" font-size="10.00" fill="#000000">EncounterHandler</text>
<polygon fill="none" stroke="#000000" points="521,-306 521,-338 661,-338 661,-306 521,-306"/>
<text text-anchor="start" x="530.8415" y="-319" font-family="Helvetica,sans-Serif" font-size="10.00" fill="#000000">+getEncounter():Encounter</text>
</g>
<!-- A0&#45;&gt;A5 -->
<g id="edge6" class="edge">
<title>A0&#45;&gt;A5</title>
<path fill="none" stroke="#000000" d="M439.2003,-425.9998C466.11,-410.4 498.6348,-391.545 526.6645,-375.296"/>
<polygon fill="#000000" stroke="#000000" points="535.5942,-370.1193 529.1997,-379.0278 531.2685,-372.627 526.9428,-375.1346 526.9428,-375.1346 526.9428,-375.1346 531.2685,-372.627 524.6859,-371.2415 535.5942,-370.1193 535.5942,-370.1193"/>
</g>
<!-- A3 -->
<g id="node4" class="node">
<title>A3</title>
<polygon fill="none" stroke="#000000" points="367.3921,-224 290.6079,-224 290.6079,-188 367.3921,-188 367.3921,-224"/>
<text text-anchor="middle" x="329" y="-203" font-family="Helvetica,sans-Serif" font-size="10.00" fill="#000000">MapParser</text>
</g>
<!-- A2&#45;&gt;A3 -->
<g id="edge3" class="edge">
<title>A2&#45;&gt;A3</title>
<path fill="none" stroke="#000000" stroke-dasharray="5,2" d="M361.9057,-299.8201C352.2338,-278.7794 341.727,-253.1214 335.016,-233.9592"/>
<polygon fill="#000000" stroke="#000000" points="331.7923,-224.3215 339.2321,-232.3776 333.3784,-229.0633 334.9645,-233.8051 334.9645,-233.8051 334.9645,-233.8051 333.3784,-229.0633 330.6969,-235.2326 331.7923,-224.3215 331.7923,-224.3215"/>
</g>
<!-- A4 -->
<g id="node5" class="node">
<title>A4</title>
<polygon fill="none" stroke="#000000" points="385,-206 385,-238 493,-238 493,-206 385,-206"/>
<text text-anchor="start" x="429.5575" y="-219" font-family="Helvetica,sans-Serif" font-size="10.00" fill="#000000">Tile </text>
<polygon fill="none" stroke="#000000" points="385,-174 385,-206 493,-206 493,-174 385,-174"/>
<text text-anchor="start" x="394.83" y="-187" font-family="Helvetica,sans-Serif" font-size="10.00" fill="#000000"> isColition():boolean</text>
</g>
<!-- A2&#45;&gt;A4 -->
<g id="edge5" class="edge">
<title>A2&#45;&gt;A4</title>
<path fill="none" stroke="#000000" d="M404.6267,-288.496C410.2023,-275.1145 416.1807,-260.7663 421.5627,-247.8496"/>
<polygon fill="#000000" stroke="#000000" points="404.5237,-288.7432 405.9083,-295.8201 399.9083,-299.8201 398.5237,-292.7432 404.5237,-288.7432"/>
<polygon fill="#000000" stroke="#000000" points="425.5455,-238.2908 425.8531,-249.2524 423.6224,-242.9062 421.6993,-247.5216 421.6993,-247.5216 421.6993,-247.5216 423.6224,-242.9062 417.5454,-245.7908 425.5455,-238.2908 425.5455,-238.2908"/>
<text text-anchor="middle" x="426.3761" y="-255.2736" font-family="Helvetica,sans-Serif" font-size="10.00" fill="#000000">n</text>
<text text-anchor="middle" x="399.0777" y="-276.8374" font-family="Helvetica,sans-Serif" font-size="10.00" fill="#000000">1</text>
</g>
<!-- A3&#45;&gt;A2 -->
<g id="edge4" class="edge">
<title>A3&#45;&gt;A2</title>
<path fill="none" stroke="#000000" stroke-dasharray="5,2" d="M341.4757,-224.3215C350.2771,-241.321 361.689,-267.3705 370.6179,-290.2462"/>
<polygon fill="#000000" stroke="#000000" points="374.2777,-299.8201 366.5036,-292.0862 372.4923,-295.1497 370.707,-290.4793 370.707,-290.4793 370.707,-290.4793 372.4923,-295.1497 374.9103,-288.8725 374.2777,-299.8201 374.2777,-299.8201"/>
</g>
<!-- A6 -->
<g id="node7" class="node">
<title>A6</title>
<polygon fill="none" stroke="#000000" points="689,-218 689,-250 1011,-250 1011,-218 689,-218"/>
<text text-anchor="start" x="812.497" y="-231" font-family="Helvetica,sans-Serif" font-size="10.00" fill="#000000">CreatureFactory </text>
<polygon fill="none" stroke="#000000" points="689,-162 689,-218 1011,-218 1011,-162 689,-162"/>
<text text-anchor="start" x="848.6105" y="-199" font-family="Helvetica,sans-Serif" font-size="10.00" fill="#000000"> </text>
<text text-anchor="start" x="698.9925" y="-187" font-family="Helvetica,sans-Serif" font-size="10.00" fill="#000000">+createCreatureList(List&lt;Pair&lt;String, Integer&gt;&gt;, int):List&lt;ICreature&gt;</text>
<text text-anchor="start" x="769.2945" y="-175" font-family="Helvetica,sans-Serif" font-size="10.00" fill="#000000"> +createCreature(String,int,int,int,int)</text>
</g>
<!-- A5&#45;&gt;A6 -->
<g id="edge7" class="edge">
<title>A5&#45;&gt;A6</title>
<path fill="none" stroke="#000000" stroke-dasharray="5,2" d="M654.0273,-305.878C684.2669,-290.4663 721.1411,-271.6733 754.7112,-254.5642"/>
<polygon fill="#000000" stroke="#000000" points="763.6246,-250.0215 756.7583,-258.5716 759.1698,-252.2919 754.715,-254.5623 754.715,-254.5623 754.715,-254.5623 759.1698,-252.2919 752.6716,-250.553 763.6246,-250.0215 763.6246,-250.0215"/>
</g>
<!-- A8 -->
<g id="node9" class="node">
<title>A8</title>
<polygon fill="none" stroke="#000000" points="511,-206 511,-238 671,-238 671,-206 511,-206"/>
<text text-anchor="start" x="566.8245" y="-219" font-family="Helvetica,sans-Serif" font-size="10.00" fill="#000000">Encounter </text>
<polygon fill="none" stroke="#000000" points="511,-174 511,-206 671,-206 671,-174 511,-174"/>
<text text-anchor="start" x="520.5695" y="-187" font-family="Helvetica,sans-Serif" font-size="10.00" fill="#000000"> +getEnenyCreature():ICreature</text>
</g>
<!-- A5&#45;&gt;A8 -->
<g id="edge9" class="edge">
<title>A5&#45;&gt;A8</title>
<path fill="none" stroke="#000000" stroke-dasharray="5,2" d="M591,-305.7092C591,-288.5301 591,-267.1859 591,-248.6586"/>
<polygon fill="#000000" stroke="#000000" points="591,-238.415 595.5001,-248.4149 591,-243.415 591.0001,-248.415 591.0001,-248.415 591.0001,-248.415 591,-243.415 586.5001,-248.415 591,-238.415 591,-238.415"/>
</g>
<!-- A7 -->
<g id="node8" class="node">
<title>A7</title>
<polygon fill="none" stroke="#000000" points="553,-80 553,-112 686,-112 686,-80 553,-80"/>
<text text-anchor="start" x="585.597" y="-93" font-family="Helvetica,sans-Serif" font-size="10.00" fill="#000000">&lt;&lt;ICreature&gt;&gt; </text>
<polygon fill="none" stroke="#000000" points="553,0 553,-80 686,-80 686,0 553,0"/>
<text text-anchor="start" x="562.9595" y="-61" font-family="Helvetica,sans-Serif" font-size="10.00" fill="#000000"> +getMoves():List&lt;Move&gt;</text>
<text text-anchor="start" x="591.8565" y="-49" font-family="Helvetica,sans-Serif" font-size="10.00" fill="#000000"> +getHp():int</text>
<text text-anchor="start" x="583.793" y="-37" font-family="Helvetica,sans-Serif" font-size="10.00" fill="#000000"> +getSpeed():int</text>
<text text-anchor="start" x="584.078" y="-25" font-family="Helvetica,sans-Serif" font-size="10.00" fill="#000000"> +getPower():int</text>
<text text-anchor="start" x="569.0745" y="-13" font-family="Helvetica,sans-Serif" font-size="10.00" fill="#000000">+takeDamage(int):void</text>
</g>
<!-- A6&#45;&gt;A7 -->
<g id="edge8" class="edge">
<title>A6&#45;&gt;A7</title>
<path fill="none" stroke="#000000" stroke-dasharray="5,2" d="M781.9418,-161.8064C754.4432,-143.9501 722.6021,-123.2741 694.402,-104.9624"/>
<polygon fill="#000000" stroke="#000000" points="685.776,-99.361 696.6137,-101.033 689.9695,-102.0841 694.163,-104.8071 694.163,-104.8071 694.163,-104.8071 689.9695,-102.0841 691.7122,-108.5813 685.776,-99.361 685.776,-99.361"/>
</g>
<!-- A9 -->
<g id="node10" class="node">
<title>A9</title>
<polygon fill="none" stroke="#000000" points="731,-62 731,-94 969,-94 969,-62 731,-62"/>
<text text-anchor="start" x="818.611" y="-75" font-family="Helvetica,sans-Serif" font-size="10.00" fill="#000000">AbilityFactory </text>
<polygon fill="none" stroke="#000000" points="731,-18 731,-62 969,-62 969,-18 731,-18"/>
<text text-anchor="start" x="761.24" y="-43" font-family="Helvetica,sans-Serif" font-size="10.00" fill="#000000">+createAbility(String, int, int):BaseAbility</text>
<text text-anchor="start" x="740.952" y="-31" font-family="Helvetica,sans-Serif" font-size="10.00" fill="#000000"> +createAbilityList(List&lt;String&gt;):List&lt;BaseAbility&gt;</text>
</g>
<!-- A6&#45;&gt;A9 -->
<g id="edge11" class="edge">
<title>A6&#45;&gt;A9</title>
<path fill="none" stroke="#000000" stroke-dasharray="5,2" d="M850,-161.8064C850,-143.807 850,-122.9424 850,-104.5225"/>
<polygon fill="#000000" stroke="#000000" points="850,-94.288 854.5001,-104.288 850,-99.288 850.0001,-104.288 850.0001,-104.288 850.0001,-104.288 850,-99.288 845.5001,-104.2881 850,-94.288 850,-94.288"/>
</g>
<!-- A8&#45;&gt;A7 -->
<g id="edge10" class="edge">
<title>A8&#45;&gt;A7</title>
<path fill="none" stroke="#000000" d="M599.2428,-161.842C601.5626,-149.4145 604.1378,-135.6189 606.6419,-122.2039"/>
<polygon fill="none" stroke="#000000" points="599.2087,-162.025 602.0398,-168.6571 597.0067,-173.8212 594.1756,-167.1891 599.2087,-162.025"/>
<polygon fill="#000000" stroke="#000000" points="608.5376,-112.0486 611.1261,-122.7046 607.6201,-116.9637 606.7025,-121.8788 606.7025,-121.8788 606.7025,-121.8788 607.6201,-116.9637 602.279,-121.053 608.5376,-112.0486 608.5376,-112.0486"/>
</g>
</g>
</svg>
