<?xml version="1.0" encoding="UTF-8" standalone="no"?>
<!DOCTYPE svg PUBLIC "-//W3C//DTD SVG 1.1//EN"
 "http://www.w3.org/Graphics/SVG/1.1/DTD/svg11.dtd">
<!-- Generated by graphviz version 2.40.1 (20161225.0304)
 -->
<!-- Title: G Pages: 1 -->
<svg width="845pt" height="474pt"
 viewBox="0.00 0.00 845.00 474.00" xmlns="http://www.w3.org/2000/svg" xmlns:xlink="http://www.w3.org/1999/xlink">
<g id="graph0" class="graph" transform="scale(1 1) rotate(0) translate(4 470)">
<title>G</title>
<polygon fill="#ffffff" stroke="transparent" points="-4,4 -4,-470 841,-470 841,4 -4,4"/>
<!-- A0 -->
<g id="node1" class="node">
<title>A0</title>
<polygon fill="none" stroke="#000000" points="318,-434 318,-466 451,-466 451,-434 318,-434"/>
<text text-anchor="start" x="348.1115" y="-447" font-family="Helvetica,sans-Serif" font-size="10.00" fill="#000000">OverworldModel</text>
<polygon fill="none" stroke="#000000" points="318,-402 318,-434 451,-434 451,-402 318,-402"/>
<text text-anchor="start" x="327.6955" y="-415" font-family="Helvetica,sans-Serif" font-size="10.00" fill="#000000">+OverworldModel(Player)</text>
</g>
<!-- A1 -->
<g id="node2" class="node">
<title>A1</title>
<polygon fill="none" stroke="#000000" points="0,-314 0,-346 306,-346 306,-314 0,-314"/>
<text text-anchor="start" x="112.162" y="-327" font-family="Helvetica,sans-Serif" font-size="10.00" fill="#000000">MovementHandler</text>
<polygon fill="none" stroke="#000000" points="0,-282 0,-314 306,-314 306,-282 0,-282"/>
<text text-anchor="start" x="9.776" y="-295" font-family="Helvetica,sans-Serif" font-size="10.00" fill="#000000">+calculateMovement(Pair&lt;int,int&gt;,Pair&lt;int,int&gt;,Map):Pair&lt;int,int&gt;</text>
</g>
<!-- A0&#45;&gt;A1 -->
<g id="edge1" class="edge">
<title>A0&#45;&gt;A1</title>
<path fill="none" stroke="#000000" stroke-dasharray="5,2" d="M322.3997,-401.9998C292.11,-386.265 255.4452,-367.2183 223.9834,-350.8745"/>
<polygon fill="#000000" stroke="#000000" points="214.8296,-346.1193 225.7782,-346.7359 219.2667,-348.4243 223.7037,-350.7292 223.7037,-350.7292 223.7037,-350.7292 219.2667,-348.4243 221.6292,-354.7226 214.8296,-346.1193 214.8296,-346.1193"/>
</g>
<!-- A2 -->
<g id="node3" class="node">
<title>A2</title>
<polygon fill="none" stroke="#000000" points="325,-320 325,-352 444,-352 444,-320 325,-320"/>
<text text-anchor="start" x="373.387" y="-333" font-family="Helvetica,sans-Serif" font-size="10.00" fill="#000000">Map </text>
<polygon fill="none" stroke="#000000" points="325,-276 325,-320 444,-320 444,-276 325,-276"/>
<text text-anchor="start" x="334.63" y="-301" font-family="Helvetica,sans-Serif" font-size="10.00" fill="#000000"> +getGlobalMap():Map</text>
<text text-anchor="start" x="350.747" y="-289" font-family="Helvetica,sans-Serif" font-size="10.00" fill="#000000"> +getTiles:Tiles</text>
</g>
<!-- A0&#45;&gt;A2 -->
<g id="edge2" class="edge">
<title>A0&#45;&gt;A2</title>
<path fill="none" stroke="#000000" d="M384,-389.5063C384,-380.7023 384,-371.42 384,-362.491"/>
<polygon fill="#000000" stroke="#000000" points="384.0001,-389.8422 388,-395.8422 384,-401.8422 380,-395.8422 384.0001,-389.8422"/>
<polygon fill="#000000" stroke="#000000" points="384,-352.2213 388.5001,-362.2212 384,-357.2213 384.0001,-362.2213 384.0001,-362.2213 384.0001,-362.2213 384,-357.2213 379.5001,-362.2213 384,-352.2213 384,-352.2213"/>
</g>
<!-- A5 -->
<g id="node6" class="node">
<title>A5</title>
<polygon fill="none" stroke="#000000" points="516,-314 516,-346 656,-346 656,-314 516,-314"/>
<text text-anchor="start" x="545.7125" y="-327" font-family="Helvetica,sans-Serif" font-size="10.00" fill="#000000">EncounterHandler</text>
<polygon fill="none" stroke="#000000" points="516,-282 516,-314 656,-314 656,-282 516,-282"/>
<text text-anchor="start" x="525.8415" y="-295" font-family="Helvetica,sans-Serif" font-size="10.00" fill="#000000">+getEncounter():Encounter</text>
</g>
<!-- A0&#45;&gt;A5 -->
<g id="edge6" class="edge">
<title>A0&#45;&gt;A5</title>
<path fill="none" stroke="#000000" d="M437.8669,-401.9998C464.1266,-386.4 495.8659,-367.545 523.2185,-351.296"/>
<polygon fill="#000000" stroke="#000000" points="531.9325,-346.1193 525.6335,-355.0955 527.6338,-348.673 523.3351,-351.2267 523.3351,-351.2267 523.3351,-351.2267 527.6338,-348.673 521.0368,-347.3579 531.9325,-346.1193 531.9325,-346.1193"/>
</g>
<!-- A3 -->
<g id="node4" class="node">
<title>A3</title>
<polygon fill="none" stroke="#000000" points="369.3921,-212 292.6079,-212 292.6079,-176 369.3921,-176 369.3921,-212"/>
<text text-anchor="middle" x="331" y="-191" font-family="Helvetica,sans-Serif" font-size="10.00" fill="#000000">MapParser</text>
</g>
<!-- A2&#45;&gt;A3 -->
<g id="edge3" class="edge">
<title>A2&#45;&gt;A3</title>
<path fill="none" stroke="#000000" stroke-dasharray="5,2" d="M360.7435,-275.7013C352.3543,-258.2587 343.578,-237.9882 337.5556,-222.0017"/>
<polygon fill="#000000" stroke="#000000" points="334.0274,-212.1877 341.6452,-220.0757 335.719,-216.8929 337.4105,-221.5981 337.4105,-221.5981 337.4105,-221.5981 335.719,-216.8929 333.1759,-223.1205 334.0274,-212.1877 334.0274,-212.1877"/>
</g>
<!-- A4 -->
<g id="node5" class="node">
<title>A4</title>
<polygon fill="none" stroke="#000000" points="387,-194 387,-226 495,-226 495,-194 387,-194"/>
<text text-anchor="start" x="431.5575" y="-207" font-family="Helvetica,sans-Serif" font-size="10.00" fill="#000000">Tile </text>
<polygon fill="none" stroke="#000000" points="387,-162 387,-194 495,-194 495,-162 387,-162"/>
<text text-anchor="start" x="396.83" y="-175" font-family="Helvetica,sans-Serif" font-size="10.00" fill="#000000"> isColition():boolean</text>
</g>
<!-- A2&#45;&gt;A4 -->
<g id="edge5" class="edge">
<title>A2&#45;&gt;A4</title>
<path fill="none" stroke="#000000" d="M407.4718,-264.5856C412.074,-254.8969 416.8568,-244.8278 421.3196,-235.4325"/>
<polygon fill="#000000" stroke="#000000" points="407.3406,-264.862 408.3794,-271.9979 402.1919,-275.7013 401.1531,-268.5654 407.3406,-264.862"/>
<polygon fill="#000000" stroke="#000000" points="425.6571,-226.3008 425.4312,-237.2644 423.5118,-230.8172 421.3665,-235.3336 421.3665,-235.3336 421.3665,-235.3336 423.5118,-230.8172 417.3017,-233.4028 425.6571,-226.3008 425.6571,-226.3008"/>
<text text-anchor="middle" x="425.5148" y="-243.3003" font-family="Helvetica,sans-Serif" font-size="10.00" fill="#000000">n</text>
<text text-anchor="middle" x="402.3342" y="-252.7018" font-family="Helvetica,sans-Serif" font-size="10.00" fill="#000000">1</text>
</g>
<!-- A3&#45;&gt;A2 -->
<g id="edge4" class="edge">
<title>A3&#45;&gt;A2</title>
<path fill="none" stroke="#000000" stroke-dasharray="5,2" d="M344.0384,-212.1877C351.8566,-226.5463 361.5436,-247.2581 369.5368,-266.2572"/>
<polygon fill="#000000" stroke="#000000" points="373.426,-275.7013 365.4571,-268.1682 371.522,-271.078 369.6181,-266.4547 369.6181,-266.4547 369.6181,-266.4547 371.522,-271.078 373.7791,-264.7411 373.426,-275.7013 373.426,-275.7013"/>
</g>
<!-- A6 -->
<g id="node7" class="node">
<title>A6</title>
<polygon fill="none" stroke="#000000" points="513,-194 513,-226 659,-226 659,-194 513,-194"/>
<text text-anchor="start" x="548.497" y="-207" font-family="Helvetica,sans-Serif" font-size="10.00" fill="#000000">CreatureFactory </text>
<polygon fill="none" stroke="#000000" points="513,-162 513,-194 659,-194 659,-162 513,-162"/>
<text text-anchor="start" x="522.7985" y="-175" font-family="Helvetica,sans-Serif" font-size="10.00" fill="#000000"> +createCreature():ICreature</text>
</g>
<!-- A5&#45;&gt;A6 -->
<g id="edge7" class="edge">
<title>A5&#45;&gt;A6</title>
<path fill="none" stroke="#000000" stroke-dasharray="5,2" d="M586,-281.8422C586,-267.8531 586,-251.2695 586,-236.3003"/>
<polygon fill="#000000" stroke="#000000" points="586,-226.2466 590.5001,-236.2465 586,-231.2466 586.0001,-236.2466 586.0001,-236.2466 586.0001,-236.2466 586,-231.2466 581.5001,-236.2466 586,-226.2466 586,-226.2466"/>
</g>
<!-- A8 -->
<g id="node9" class="node">
<title>A8</title>
<polygon fill="none" stroke="#000000" points="677,-194 677,-226 837,-226 837,-194 677,-194"/>
<text text-anchor="start" x="732.8245" y="-207" font-family="Helvetica,sans-Serif" font-size="10.00" fill="#000000">Encounter </text>
<polygon fill="none" stroke="#000000" points="677,-162 677,-194 837,-194 837,-162 677,-162"/>
<text text-anchor="start" x="686.5695" y="-175" font-family="Helvetica,sans-Serif" font-size="10.00" fill="#000000"> +getEnenyCreature():ICreature</text>
</g>
<!-- A5&#45;&gt;A8 -->
<g id="edge9" class="edge">
<title>A5&#45;&gt;A8</title>
<path fill="none" stroke="#000000" stroke-dasharray="5,2" d="M631.8249,-281.8422C653.7642,-266.4462 680.1818,-247.9075 703.0823,-231.837"/>
<polygon fill="#000000" stroke="#000000" points="711.3454,-226.0383 705.7447,-235.4661 707.2526,-228.9105 703.1598,-231.7826 703.1598,-231.7826 703.1598,-231.7826 707.2526,-228.9105 700.5749,-228.0991 711.3454,-226.0383 711.3454,-226.0383"/>
</g>
<!-- A7 -->
<g id="node8" class="node">
<title>A7</title>
<polygon fill="none" stroke="#000000" points="605,-80 605,-112 738,-112 738,-80 605,-80"/>
<text text-anchor="start" x="637.597" y="-93" font-family="Helvetica,sans-Serif" font-size="10.00" fill="#000000">&lt;&lt;ICreature&gt;&gt; </text>
<polygon fill="none" stroke="#000000" points="605,0 605,-80 738,-80 738,0 605,0"/>
<text text-anchor="start" x="614.9595" y="-61" font-family="Helvetica,sans-Serif" font-size="10.00" fill="#000000"> +getMoves():List&lt;Move&gt;</text>
<text text-anchor="start" x="643.8565" y="-49" font-family="Helvetica,sans-Serif" font-size="10.00" fill="#000000"> +getHp():int</text>
<text text-anchor="start" x="635.793" y="-37" font-family="Helvetica,sans-Serif" font-size="10.00" fill="#000000"> +getSpeed():int</text>
<text text-anchor="start" x="636.078" y="-25" font-family="Helvetica,sans-Serif" font-size="10.00" fill="#000000"> +getPower():int</text>
<text text-anchor="start" x="621.0745" y="-13" font-family="Helvetica,sans-Serif" font-size="10.00" fill="#000000">+takeDamage(int):void</text>
</g>
<!-- A6&#45;&gt;A7 -->
<g id="edge8" class="edge">
<title>A6&#45;&gt;A7</title>
<path fill="none" stroke="#000000" stroke-dasharray="5,2" d="M605.7144,-161.9932C613.2685,-149.7288 622.1861,-135.2508 630.9632,-121.0009"/>
<polygon fill="#000000" stroke="#000000" points="636.3966,-112.1796 634.9837,-123.0541 633.7744,-116.4369 631.1521,-120.6941 631.1521,-120.6941 631.1521,-120.6941 633.7744,-116.4369 627.3206,-118.3341 636.3966,-112.1796 636.3966,-112.1796"/>
</g>
<!-- A8&#45;&gt;A7 -->
<g id="edge10" class="edge">
<title>A8&#45;&gt;A7</title>
<path fill="none" stroke="#000000" d="M730.5021,-151.4801C724.4576,-141.7808 717.9003,-131.2587 711.4214,-120.8622"/>
<polygon fill="none" stroke="#000000" points="730.707,-151.8089 737.2751,-154.7854 737.0537,-161.9932 730.4856,-159.0166 730.707,-151.8089"/>
<polygon fill="#000000" stroke="#000000" points="706.0105,-112.1796 715.1186,-118.2865 708.655,-116.4231 711.2995,-120.6665 711.2995,-120.6665 711.2995,-120.6665 708.655,-116.4231 707.4804,-123.0466 706.0105,-112.1796 706.0105,-112.1796"/>
</g>
</g>
</svg>
