<?xml version="1.0" encoding="UTF-8" standalone="no"?>
<!DOCTYPE svg PUBLIC "-//W3C//DTD SVG 1.1//EN"
 "http://www.w3.org/Graphics/SVG/1.1/DTD/svg11.dtd">
<!-- Generated by graphviz version 2.40.1 (20161225.0304)
 -->
<!-- Title: G Pages: 1 -->
<svg width="264pt" height="324pt"
 viewBox="0.00 0.00 264.00 324.00" xmlns="http://www.w3.org/2000/svg" xmlns:xlink="http://www.w3.org/1999/xlink">
<g id="graph0" class="graph" transform="scale(1 1) rotate(0) translate(4 320)">
<title>G</title>
<polygon fill="#ffffff" stroke="transparent" points="-4,4 -4,-320 260,-320 260,4 -4,4"/>
<!-- A0 -->
<g id="node1" class="node">
<title>A0</title>
<polygon fill="none" stroke="#000000" points="12,-284 12,-316 224,-316 224,-284 12,-284"/>
<text text-anchor="start" x="86.325" y="-297" font-family="Helvetica,sans-Serif" font-size="10.00" fill="#000000">CombatScene</text>
<polygon fill="none" stroke="#000000" points="12,-240 12,-284 224,-284 224,-240 12,-240"/>
<text text-anchor="start" x="21.743" y="-265" font-family="Helvetica,sans-Serif" font-size="10.00" fill="#000000">+renderNewCombat(CombatModel, Player)</text>
<text text-anchor="start" x="97.3045" y="-253" font-family="Helvetica,sans-Serif" font-size="10.00" fill="#000000">+render()</text>
</g>
<!-- A1 -->
<g id="node2" class="node">
<title>A1</title>
<polygon fill="none" stroke="#000000" points="50,-158 50,-190 186,-190 186,-158 50,-158"/>
<text text-anchor="start" x="59.66" y="-171" font-family="Helvetica,sans-Serif" font-size="10.00" fill="#000000">CombatGraphicsRenderer</text>
<polygon fill="none" stroke="#000000" points="50,-126 50,-158 186,-158 186,-126 50,-126"/>
<text text-anchor="start" x="84.5215" y="-139" font-family="Helvetica,sans-Serif" font-size="10.00" fill="#000000">+render(Batch)</text>
</g>
<!-- A0&#45;&gt;A1 -->
<g id="edge1" class="edge">
<title>A0&#45;&gt;A1</title>
<path fill="none" stroke="#000000" d="M118,-227.4095C118,-218.4769 118,-209.2591 118,-200.5745"/>
<polygon fill="#000000" stroke="#000000" points="118.0001,-227.7013 122,-233.7014 118,-239.7013 114,-233.7013 118.0001,-227.7013"/>
<polygon fill="#000000" stroke="#000000" points="118,-190.3008 122.5001,-200.3008 118,-195.3008 118.0001,-200.3008 118.0001,-200.3008 118.0001,-200.3008 118,-195.3008 113.5001,-200.3009 118,-190.3008 118,-190.3008"/>
</g>
<!-- A2 -->
<g id="node3" class="node">
<title>A2</title>
<polygon fill="none" stroke="#000000" points="0,-38 0,-70 100,-70 100,-38 0,-38"/>
<text text-anchor="start" x="9.718" y="-51" font-family="Helvetica,sans-Serif" font-size="10.00" fill="#000000">CreatureRenderer</text>
<polygon fill="none" stroke="#000000" points="0,-6 0,-38 100,-38 100,-6 0,-6"/>
<text text-anchor="start" x="16.5215" y="-19" font-family="Helvetica,sans-Serif" font-size="10.00" fill="#000000">+render(Batch)</text>
</g>
<!-- A1&#45;&gt;A2 -->
<g id="edge3" class="edge">
<title>A1&#45;&gt;A2</title>
<path fill="none" stroke="#000000" d="M93.8388,-115.3626C87.1335,-103.5298 79.8696,-90.7111 73.2194,-78.9755"/>
<polygon fill="#000000" stroke="#000000" points="93.861,-115.4019 100.2992,-118.65 99.7772,-125.8422 93.3391,-122.5941 93.861,-115.4019"/>
<polygon fill="#000000" stroke="#000000" points="68.2731,-70.2466 77.1183,-76.7282 70.7381,-74.5967 73.2032,-78.9468 73.2032,-78.9468 73.2032,-78.9468 70.7381,-74.5967 69.2881,-81.1654 68.2731,-70.2466 68.2731,-70.2466"/>
<text text-anchor="middle" x="84.5632" y="-78.8496" font-family="Helvetica,sans-Serif" font-size="10.00" fill="#000000">2</text>
<text text-anchor="middle" x="83.4871" y="-111.2392" font-family="Helvetica,sans-Serif" font-size="10.00" fill="#000000">1</text>
</g>
<!-- A3 -->
<g id="node4" class="node">
<title>A3</title>
<polygon fill="none" stroke="#000000" points="118,-44 118,-76 256,-76 256,-44 118,-44"/>
<text text-anchor="start" x="164.7745" y="-57" font-family="Helvetica,sans-Serif" font-size="10.00" fill="#000000">HealthBar</text>
<polygon fill="none" stroke="#000000" points="118,0 118,-44 256,-44 256,0 118,0"/>
<text text-anchor="start" x="127.962" y="-25" font-family="Helvetica,sans-Serif" font-size="10.00" fill="#000000">+setCurrentHealth(double)</text>
<text text-anchor="start" x="153.5215" y="-13" font-family="Helvetica,sans-Serif" font-size="10.00" fill="#000000">+render(Batch)</text>
</g>
<!-- A1&#45;&gt;A3 -->
<g id="edge2" class="edge">
<title>A1&#45;&gt;A3</title>
<path fill="none" stroke="#000000" d="M142.4764,-115.4324C148.1621,-105.5442 154.2455,-94.9643 160.0318,-84.9012"/>
<polygon fill="#000000" stroke="#000000" points="142.4724,-115.4393 142.9492,-122.6347 136.4907,-125.8422 136.014,-118.6469 142.4724,-115.4393"/>
<polygon fill="#000000" stroke="#000000" points="165.0228,-76.2213 163.9391,-87.1335 162.5304,-80.5558 160.038,-84.8904 160.038,-84.8904 160.038,-84.8904 162.5304,-80.5558 156.1369,-82.6472 165.0228,-76.2213 165.0228,-76.2213"/>
<text text-anchor="middle" x="163.3148" y="-93.1482" font-family="Helvetica,sans-Serif" font-size="10.00" fill="#000000">2</text>
<text text-anchor="middle" x="138.1987" y="-102.9153" font-family="Helvetica,sans-Serif" font-size="10.00" fill="#000000">1</text>
</g>
</g>
</svg>
