<?xml version="1.0" encoding="UTF-8" standalone="no"?>
<!DOCTYPE svg PUBLIC "-//W3C//DTD SVG 1.1//EN"
 "http://www.w3.org/Graphics/SVG/1.1/DTD/svg11.dtd">
<!-- Generated by graphviz version 2.40.1 (20161225.0304)
 -->
<!-- Title: G Pages: 1 -->
<svg width="972pt" height="226pt"
 viewBox="0.00 0.00 972.00 226.00" xmlns="http://www.w3.org/2000/svg" xmlns:xlink="http://www.w3.org/1999/xlink">
<g id="graph0" class="graph" transform="scale(1 1) rotate(0) translate(4 222)">
<title>G</title>
<polygon fill="#ffffff" stroke="transparent" points="-4,4 -4,-222 968,-222 968,4 -4,4"/>
<!-- A0 -->
<g id="node1" class="node">
<title>A0</title>
<polygon fill="none" stroke="#000000" points="0,-133 0,-165 270,-165 270,-133 0,-133"/>
<text text-anchor="start" x="98.051" y="-146" font-family="Helvetica,sans-Serif" font-size="10.00" fill="#000000">OverworldScene</text>
<polygon fill="none" stroke="#000000" points="0,-89 0,-133 270,-133 270,-89 0,-89"/>
<text text-anchor="start" x="9.8485" y="-114" font-family="Helvetica,sans-Serif" font-size="10.00" fill="#000000">+OverworldScene(Player, OverworldModel, SpriteBatch)</text>
<text text-anchor="start" x="114.3045" y="-102" font-family="Helvetica,sans-Serif" font-size="10.00" fill="#000000">+render()</text>
</g>
<!-- A1 -->
<g id="node2" class="node">
<title>A1</title>
<polygon fill="none" stroke="#000000" points="320,-186 320,-218 450,-218 450,-186 320,-186"/>
<text text-anchor="start" x="349.9965" y="-199" font-family="Helvetica,sans-Serif" font-size="10.00" fill="#000000">PlayerRenderer</text>
<polygon fill="none" stroke="#000000" points="320,-154 320,-186 450,-186 450,-154 320,-154"/>
<text text-anchor="start" x="329.5805" y="-167" font-family="Helvetica,sans-Serif" font-size="10.00" fill="#000000">+PlayerRenderer(Player)</text>
</g>
<!-- A0&#45;&gt;A1 -->
<g id="edge2" class="edge">
<title>A0&#45;&gt;A1</title>
<path fill="none" stroke="#000000" d="M270.2437,-158.9175C283.8609,-162.1312 297.3148,-165.3063 309.9533,-168.289"/>
<polygon fill="#000000" stroke="#000000" points="319.9019,-170.6368 309.1356,-172.7196 315.0355,-169.4884 310.1692,-168.3399 310.1692,-168.3399 310.1692,-168.3399 315.0355,-169.4884 311.2029,-163.9602 319.9019,-170.6368 319.9019,-170.6368"/>
</g>
<!-- A2 -->
<g id="node3" class="node">
<title>A2</title>
<polygon fill="none" stroke="#000000" points="322,-104 322,-136 449,-136 449,-104 322,-104"/>
<text text-anchor="start" x="358.8295" y="-117" font-family="Helvetica,sans-Serif" font-size="10.00" fill="#000000">TextureMap</text>
<polygon fill="none" stroke="#000000" points="322,0 322,-104 449,-104 449,0 322,0"/>
<text text-anchor="start" x="347.7175" y="-85" font-family="Helvetica,sans-Serif" font-size="10.00" fill="#000000">#TextureMap(int,</text>
<text text-anchor="start" x="362.717" y="-73" font-family="Helvetica,sans-Serif" font-size="10.00" fill="#000000">int, int, int,</text>
<text text-anchor="start" x="372.168" y="-61" font-family="Helvetica,sans-Serif" font-size="10.00" fill="#000000">Color,</text>
<text text-anchor="start" x="331.8755" y="-49" font-family="Helvetica,sans-Serif" font-size="10.00" fill="#000000">Iterable&lt;TextureLayer&gt;)</text>
<text text-anchor="start" x="338.9645" y="-37" font-family="Helvetica,sans-Serif" font-size="10.00" fill="#000000">+render(SpriteBatch)</text>
<text text-anchor="start" x="354.2465" y="-25" font-family="Helvetica,sans-Serif" font-size="10.00" fill="#000000">+getBgColor()</text>
<text text-anchor="start" x="354.5265" y="-13" font-family="Helvetica,sans-Serif" font-size="10.00" fill="#000000">+getTileSize()</text>
</g>
<!-- A0&#45;&gt;A2 -->
<g id="edge1" class="edge">
<title>A0&#45;&gt;A2</title>
<path fill="none" stroke="#000000" d="M270.2437,-95.0825C284.4541,-91.7288 298.4867,-88.4171 311.6004,-85.3223"/>
<polygon fill="#000000" stroke="#000000" points="321.4371,-83.0009 312.7381,-89.6775 316.5708,-84.1493 311.7044,-85.2978 311.7044,-85.2978 311.7044,-85.2978 316.5708,-84.1493 310.6708,-80.9181 321.4371,-83.0009 321.4371,-83.0009"/>
</g>
<!-- A3 -->
<g id="node4" class="node">
<title>A3</title>
<polygon fill="none" stroke="#000000" points="500.5,-168 500.5,-200 629.5,-200 629.5,-168 500.5,-168"/>
<text text-anchor="start" x="535.55" y="-181" font-family="Helvetica,sans-Serif" font-size="10.00" fill="#000000">TextureLayer</text>
<polygon fill="none" stroke="#000000" points="500.5,-124 500.5,-168 629.5,-168 629.5,-124 500.5,-124"/>
<text text-anchor="start" x="529.4415" y="-149" font-family="Helvetica,sans-Serif" font-size="10.00" fill="#000000">#TextureLayer()</text>
<text text-anchor="start" x="510.407" y="-137" font-family="Helvetica,sans-Serif" font-size="10.00" fill="#000000">+render(SpriteBatch, int)</text>
</g>
<!-- A2&#45;&gt;A3 -->
<g id="edge7" class="edge">
<title>A2&#45;&gt;A3</title>
<path fill="none" stroke="#000000" d="M459.2197,-106.8672C469.6447,-112.3265 480.358,-117.9368 490.7737,-123.3912"/>
<polygon fill="#000000" stroke="#000000" points="459.1682,-106.8402 451.9972,-107.6002 448.5376,-101.2732 455.7086,-100.5132 459.1682,-106.8402"/>
<polygon fill="#000000" stroke="#000000" points="499.8356,-128.1367 488.8891,-127.484 495.4062,-125.8171 490.9768,-123.4975 490.9768,-123.4975 490.9768,-123.4975 495.4062,-125.8171 493.0644,-119.5111 499.8356,-128.1367 499.8356,-128.1367"/>
<text text-anchor="middle" x="479.8568" y="-124.2155" font-family="Helvetica,sans-Serif" font-size="10.00" fill="#000000">n</text>
<text text-anchor="middle" x="468.5164" y="-99.1944" font-family="Helvetica,sans-Serif" font-size="10.00" fill="#000000">1</text>
</g>
<!-- A7 -->
<g id="node8" class="node">
<title>A7</title>
<polygon fill="none" stroke="#000000" points="505.5,-68 505.5,-100 624.5,-100 624.5,-68 505.5,-68"/>
<text text-anchor="start" x="523.607" y="-81" font-family="Helvetica,sans-Serif" font-size="10.00" fill="#000000">TextureMapParser</text>
<polygon fill="none" stroke="#000000" points="505.5,-36 505.5,-68 624.5,-68 624.5,-36 505.5,-36"/>
<text text-anchor="start" x="515.415" y="-49" font-family="Helvetica,sans-Serif" font-size="10.00" fill="#000000">+parseMapFile(String)</text>
</g>
<!-- A2&#45;&gt;A7 -->
<g id="edge3" class="edge">
<title>A2&#45;&gt;A7</title>
<path fill="none" stroke="#000000" d="M448.5376,-61.5127C463.4512,-61.2057 479.4233,-61.1678 494.5984,-61.3989"/>
<polygon fill="#000000" stroke="#000000" points="504.9541,-61.6019 494.8678,-65.905 499.955,-61.5039 494.956,-61.4058 494.956,-61.4058 494.956,-61.4058 499.955,-61.5039 495.0442,-56.9067 504.9541,-61.6019 504.9541,-61.6019"/>
</g>
<!-- A4 -->
<g id="node5" class="node">
<title>A4</title>
<polygon fill="none" stroke="#000000" points="679,-174 679,-206 827,-206 827,-174 679,-174"/>
<text text-anchor="start" x="728" y="-187" font-family="Helvetica,sans-Serif" font-size="10.00" fill="#000000">TextureTile</text>
<polygon fill="none" stroke="#000000" points="679,-130 679,-174 827,-174 827,-130 679,-130"/>
<text text-anchor="start" x="688.9675" y="-155" font-family="Helvetica,sans-Serif" font-size="10.00" fill="#000000">+TextureTile(TextureRegion)</text>
<text text-anchor="start" x="722.856" y="-143" font-family="Helvetica,sans-Serif" font-size="10.00" fill="#000000">+getTexture()</text>
</g>
<!-- A3&#45;&gt;A4 -->
<g id="edge8" class="edge">
<title>A3&#45;&gt;A4</title>
<path fill="none" stroke="#000000" d="M641.3016,-164.4446C650.2861,-164.7306 659.4897,-165.0235 668.5705,-165.3126"/>
<polygon fill="#000000" stroke="#000000" points="641.1012,-164.4383 634.977,-168.2454 629.1073,-164.0565 635.2315,-160.2494 641.1012,-164.4383"/>
<polygon fill="#000000" stroke="#000000" points="678.7524,-165.6367 668.6143,-169.8162 673.755,-165.4776 668.7575,-165.3184 668.7575,-165.3184 668.7575,-165.3184 673.755,-165.4776 668.9007,-160.8207 678.7524,-165.6367 678.7524,-165.6367"/>
<text text-anchor="middle" x="660.3665" y="-170.5081" font-family="Helvetica,sans-Serif" font-size="10.00" fill="#000000">n</text>
<text text-anchor="middle" x="647.4932" y="-153.185" font-family="Helvetica,sans-Serif" font-size="10.00" fill="#000000">1</text>
</g>
<!-- A5 -->
<g id="node6" class="node">
<title>A5</title>
<polygon fill="none" stroke="#000000" points="680,-80 680,-112 826,-112 826,-80 680,-80"/>
<text text-anchor="start" x="718.5515" y="-93" font-family="Helvetica,sans-Serif" font-size="10.00" fill="#000000">TilesetManager</text>
<polygon fill="none" stroke="#000000" points="680,0 680,-80 826,-80 826,0 680,0"/>
<text text-anchor="start" x="710.909" y="-61" font-family="Helvetica,sans-Serif" font-size="10.00" fill="#000000">+addTileset(String,</text>
<text text-anchor="start" x="722.4385" y="-49" font-family="Helvetica,sans-Serif" font-size="10.00" fill="#000000">String, int, int,</text>
<text text-anchor="start" x="738.2745" y="-37" font-family="Helvetica,sans-Serif" font-size="10.00" fill="#000000">int, int,</text>
<text text-anchor="start" x="746.057" y="-25" font-family="Helvetica,sans-Serif" font-size="10.00" fill="#000000">int)</text>
<text text-anchor="start" x="689.803" y="-13" font-family="Helvetica,sans-Serif" font-size="10.00" fill="#000000">+getTextureTileFromGId(int)</text>
</g>
<!-- A6 -->
<g id="node7" class="node">
<title>A6</title>
<polygon fill="none" stroke="#000000" points="877.5,-68 877.5,-100 964.5,-100 964.5,-68 877.5,-68"/>
<text text-anchor="start" x="906.278" y="-81" font-family="Helvetica,sans-Serif" font-size="10.00" fill="#000000">Tileset</text>
<polygon fill="none" stroke="#000000" points="877.5,-12 877.5,-68 964.5,-68 964.5,-12 877.5,-12"/>
<text text-anchor="start" x="887.3875" y="-49" font-family="Helvetica,sans-Serif" font-size="10.00" fill="#000000">#Tileset(String,</text>
<text text-anchor="start" x="890.4385" y="-37" font-family="Helvetica,sans-Serif" font-size="10.00" fill="#000000">String, int, int,</text>
<text text-anchor="start" x="897.942" y="-25" font-family="Helvetica,sans-Serif" font-size="10.00" fill="#000000">int, int, int)</text>
</g>
<!-- A5&#45;&gt;A6 -->
<g id="edge6" class="edge">
<title>A5&#45;&gt;A6</title>
<path fill="none" stroke="#000000" d="M838.6406,-56C848.1834,-56 857.6934,-56 866.6748,-56"/>
<polygon fill="#000000" stroke="#000000" points="838.4679,-56.0001 832.4679,-60 826.4679,-56 832.468,-52 838.4679,-56.0001"/>
<polygon fill="#000000" stroke="#000000" points="876.9457,-56 866.9457,-60.5001 871.9457,-56 866.9457,-56.0001 866.9457,-56.0001 866.9457,-56.0001 871.9457,-56 866.9456,-51.5001 876.9457,-56 876.9457,-56"/>
</g>
<!-- A7&#45;&gt;A2 -->
<g id="edge4" class="edge">
<title>A7&#45;&gt;A2</title>
<path fill="none" stroke="#000000" stroke-dasharray="5,2" d="M504.9541,-74.3981C490.1042,-74.7568 474.0055,-74.8413 458.5674,-74.6515"/>
<polygon fill="#000000" stroke="#000000" points="448.5376,-74.4873 458.6099,-70.1517 453.5369,-74.5692 458.5363,-74.6511 458.5363,-74.6511 458.5363,-74.6511 453.5369,-74.5692 458.4626,-79.1505 448.5376,-74.4873 448.5376,-74.4873"/>
</g>
<!-- A7&#45;&gt;A5 -->
<g id="edge5" class="edge">
<title>A7&#45;&gt;A5</title>
<path fill="none" stroke="#000000" stroke-dasharray="5,2" d="M624.1426,-64.2031C638.6532,-63.2794 654.4347,-62.2747 669.8175,-61.2954"/>
<polygon fill="#000000" stroke="#000000" points="679.8512,-60.6567 670.1573,-65.783 674.8613,-60.9744 669.8714,-61.2921 669.8714,-61.2921 669.8714,-61.2921 674.8613,-60.9744 669.5854,-56.8012 679.8512,-60.6567 679.8512,-60.6567"/>
</g>
</g>
</svg>
