<?xml version="1.0" encoding="UTF-8" standalone="no"?>
<!DOCTYPE svg PUBLIC "-//W3C//DTD SVG 1.1//EN"
 "http://www.w3.org/Graphics/SVG/1.1/DTD/svg11.dtd">
<!-- Generated by graphviz version 2.40.1 (20161225.0304)
 -->
<!-- Title: G Pages: 1 -->
<svg width="293pt" height="194pt"
 viewBox="0.00 0.00 292.56 194.00" xmlns="http://www.w3.org/2000/svg" xmlns:xlink="http://www.w3.org/1999/xlink">
<g id="graph0" class="graph" transform="scale(1 1) rotate(0) translate(4 190)">
<title>G</title>
<polygon fill="#ffffff" stroke="transparent" points="-4,4 -4,-190 288.5615,-190 288.5615,4 -4,4"/>
<!-- A0 -->
<g id="node1" class="node">
<title>A0</title>
<polygon fill="none" stroke="#000000" points="84.949,-154 84.949,-186 246.949,-186 246.949,-154 84.949,-154"/>
<text text-anchor="start" x="153.7265" y="-167" font-family="Helvetica,sans-Serif" font-size="10.00" fill="#000000">View </text>
<polygon fill="none" stroke="#000000" points="84.949,-86 84.949,-154 246.949,-154 246.949,-86 84.949,-86"/>
<text text-anchor="start" x="135.255" y="-135" font-family="Helvetica,sans-Serif" font-size="10.00" fill="#000000">+View(Model)</text>
<text text-anchor="start" x="133.8555" y="-123" font-family="Helvetica,sans-Serif" font-size="10.00" fill="#000000">+update():void</text>
<text text-anchor="start" x="134.6955" y="-111" font-family="Helvetica,sans-Serif" font-size="10.00" fill="#000000">+render():void</text>
<text text-anchor="start" x="94.542" y="-99" font-family="Helvetica,sans-Serif" font-size="10.00" fill="#000000">&#45;changeScene(ModelState):void</text>
</g>
<!-- A1 -->
<g id="node2" class="node">
<title>A1</title>
<polygon fill="#add8e6" stroke="#000000" points="101.8471,-36 .0509,-36 .0509,0 101.8471,0 101.8471,-36"/>
<text text-anchor="middle" x="50.949" y="-15" font-family="Helvetica,sans-Serif" font-size="10.00" fill="#000000">OverworldScene</text>
</g>
<!-- A0&#45;&gt;A1 -->
<g id="edge1" class="edge">
<title>A0&#45;&gt;A1</title>
<path fill="none" stroke="#000000" d="M117.1786,-85.9574C102.8825,-71.2883 87.8492,-55.8628 75.7255,-43.4228"/>
<polygon fill="#000000" stroke="#000000" points="68.5853,-36.0964 78.7874,-40.1171 72.075,-39.6771 75.5648,-43.2579 75.5648,-43.2579 75.5648,-43.2579 72.075,-39.6771 72.3421,-46.3987 68.5853,-36.0964 68.5853,-36.0964"/>
</g>
<!-- A2 -->
<g id="node3" class="node">
<title>A2</title>
<polygon fill="#add8e6" stroke="#000000" points="211.7997,-36 120.0983,-36 120.0983,0 211.7997,0 211.7997,-36"/>
<text text-anchor="middle" x="165.949" y="-15" font-family="Helvetica,sans-Serif" font-size="10.00" fill="#000000">CombatScene</text>
</g>
<!-- A0&#45;&gt;A2 -->
<g id="edge2" class="edge">
<title>A0&#45;&gt;A2</title>
<path fill="none" stroke="#000000" d="M165.949,-85.9574C165.949,-72.3954 165.949,-58.1869 165.949,-46.2888"/>
<polygon fill="#000000" stroke="#000000" points="165.949,-36.0964 170.4491,-46.0963 165.949,-41.0964 165.9491,-46.0964 165.9491,-46.0964 165.9491,-46.0964 165.949,-41.0964 161.4491,-46.0964 165.949,-36.0964 165.949,-36.0964"/>
</g>
<!-- A3 -->
<g id="node4" class="node">
<title>A3</title>
<polygon fill="#add8e6" stroke="#000000" points="284.6745,-36 229.2235,-36 229.2235,0 284.6745,0 284.6745,-36"/>
<text text-anchor="middle" x="256.949" y="-15" font-family="Helvetica,sans-Serif" font-size="10.00" fill="#000000">Model</text>
</g>
<!-- A0&#45;&gt;A3 -->
<g id="edge3" class="edge">
<title>A0&#45;&gt;A3</title>
<path fill="none" stroke="#000000" d="M211.958,-76.34C220.7149,-64.9849 229.4466,-53.6624 236.8556,-44.0552"/>
<polygon fill="none" stroke="#000000" points="211.8694,-76.4549 211.3728,-83.6489 204.5412,-85.9574 205.0378,-78.7634 211.8694,-76.4549"/>
<polygon fill="#000000" stroke="#000000" points="242.9933,-36.0964 240.4499,-46.7632 239.9399,-40.0557 236.8865,-44.0151 236.8865,-44.0151 236.8865,-44.0151 239.9399,-40.0557 233.323,-41.267 242.9933,-36.0964 242.9933,-36.0964"/>
</g>
</g>
</svg>
