<?xml version="1.0" encoding="UTF-8" standalone="no"?>
<!DOCTYPE svg PUBLIC "-//W3C//DTD SVG 1.1//EN"
 "http://www.w3.org/Graphics/SVG/1.1/DTD/svg11.dtd">
<!-- Generated by graphviz version 2.40.1 (20161225.0304)
 -->
<!-- Title: G Pages: 1 -->
<svg width="500pt" height="404pt"
 viewBox="0.00 0.00 499.50 404.00" xmlns="http://www.w3.org/2000/svg" xmlns:xlink="http://www.w3.org/1999/xlink">
<g id="graph0" class="graph" transform="scale(1 1) rotate(0) translate(4 400)">
<title>G</title>
<polygon fill="#ffffff" stroke="transparent" points="-4,4 -4,-400 495.5,-400 495.5,4 -4,4"/>
<!-- A0 -->
<g id="node1" class="node">
<title>A0</title>
<polygon fill="none" stroke="#000000" points="134.5,-364 134.5,-396 325.5,-396 325.5,-364 134.5,-364"/>
<text text-anchor="start" x="214.998" y="-377" font-family="Helvetica,sans-Serif" font-size="10.00" fill="#000000">Model </text>
<polygon fill="none" stroke="#000000" points="134.5,-332 134.5,-364 325.5,-364 325.5,-332 134.5,-332"/>
<text text-anchor="start" x="160.819" y="-345" font-family="Helvetica,sans-Serif" font-size="10.00" fill="#000000">&#45;currentModelState:ModelState</text>
<polygon fill="none" stroke="#000000" points="134.5,-264 134.5,-332 325.5,-332 325.5,-264 134.5,-264"/>
<text text-anchor="start" x="194.0285" y="-313" font-family="Helvetica,sans-Serif" font-size="10.00" fill="#000000"> +initialize():void</text>
<text text-anchor="start" x="144.025" y="-301" font-family="Helvetica,sans-Serif" font-size="10.00" fill="#000000">+registerNewObserver(IObserver):void</text>
<text text-anchor="start" x="148.177" y="-289" font-family="Helvetica,sans-Serif" font-size="10.00" fill="#000000">+getCurrentModelState():ModelState</text>
<text text-anchor="start" x="199.1615" y="-277" font-family="Helvetica,sans-Serif" font-size="10.00" fill="#000000">&#45;update():void</text>
</g>
<!-- A1 -->
<g id="node2" class="node">
<title>A1</title>
<polygon fill="#add8e6" stroke="transparent" points="0,-132 0,-208 143,-208 143,-132 0,-132"/>
<polygon fill="none" stroke="#000000" points=".5,-176 .5,-208 143.5,-208 143.5,-176 .5,-176"/>
<text text-anchor="start" x="34.222" y="-189" font-family="Helvetica,sans-Serif" font-size="10.00" fill="#000000">OverworldModel </text>
<polygon fill="none" stroke="#000000" points=".5,-132 .5,-176 143.5,-176 143.5,-132 .5,-132"/>
<text text-anchor="start" x="27.129" y="-157" font-family="Helvetica,sans-Serif" font-size="10.00" fill="#000000"> +isEncounter():bool</text>
<text text-anchor="start" x="10.452" y="-145" font-family="Helvetica,sans-Serif" font-size="10.00" fill="#000000"> +getEncounter():Encounter</text>
</g>
<!-- A0&#45;&gt;A1 -->
<g id="edge1" class="edge">
<title>A0&#45;&gt;A1</title>
<path fill="none" stroke="#000000" d="M155.4955,-255.0587C142.27,-241.6658 128.857,-228.0831 116.7472,-215.82"/>
<polygon fill="#000000" stroke="#000000" points="155.8914,-255.4596 162.9534,-256.9183 164.3232,-263.9981 157.2611,-262.5395 155.8914,-255.4596"/>
<polygon fill="#000000" stroke="#000000" points="109.3889,-208.3685 119.6173,-212.322 112.9021,-211.9262 116.4154,-215.4839 116.4154,-215.4839 116.4154,-215.4839 112.9021,-211.9262 113.2134,-218.6458 109.3889,-208.3685 109.3889,-208.3685"/>
</g>
<!-- A2 -->
<g id="node3" class="node">
<title>A2</title>
<polygon fill="none" stroke="#000000" points="92.5,-44 92.5,-76 251.5,-76 251.5,-44 92.5,-44"/>
<text text-anchor="start" x="156.443" y="-57" font-family="Helvetica,sans-Serif" font-size="10.00" fill="#000000">Player </text>
<polygon fill="none" stroke="#000000" points="92.5,0 92.5,-44 251.5,-44 251.5,0 92.5,0"/>
<text text-anchor="start" x="102.4005" y="-25" font-family="Helvetica,sans-Serif" font-size="10.00" fill="#000000"> +getCoordinates():Pair&lt;int,int&gt;</text>
<text text-anchor="start" x="129.634" y="-13" font-family="Helvetica,sans-Serif" font-size="10.00" fill="#000000"> +move(int,int):void</text>
</g>
<!-- A0&#45;&gt;A2 -->
<g id="edge2" class="edge">
<title>A0&#45;&gt;A2</title>
<path fill="none" stroke="#000000" stroke-dasharray="5,2" d="M204.5073,-263.8348C199.1871,-247.7179 194.0964,-230.395 190.5,-214 181.1504,-171.3772 176.3273,-121.8944 173.8857,-86.2723"/>
<polygon fill="#000000" stroke="#000000" points="173.2302,-76.1484 178.367,-85.8367 173.5533,-81.138 173.8764,-86.1275 173.8764,-86.1275 173.8764,-86.1275 173.5533,-81.138 169.3858,-86.4183 173.2302,-76.1484 173.2302,-76.1484"/>
</g>
<!-- A3 -->
<g id="node4" class="node">
<title>A3</title>
<polygon fill="#add8e6" stroke="transparent" points="199.5,-138 199.5,-202 375.5,-202 375.5,-138 199.5,-138"/>
<polygon fill="none" stroke="#000000" points="199.5,-170 199.5,-202 375.5,-202 375.5,-170 199.5,-170"/>
<text text-anchor="start" x="254.996" y="-183" font-family="Helvetica,sans-Serif" font-size="10.00" fill="#000000">CombatModel </text>
<polygon fill="none" stroke="#000000" points="199.5,-138 199.5,-170 375.5,-170 375.5,-138 199.5,-138"/>
<text text-anchor="start" x="209.43" y="-151" font-family="Helvetica,sans-Serif" font-size="10.00" fill="#000000"> &#45;startCombatLoop(Encounter):void</text>
</g>
<!-- A0&#45;&gt;A3 -->
<g id="edge3" class="edge">
<title>A0&#45;&gt;A3</title>
<path fill="none" stroke="#000000" d="M257.5403,-252.6474C262.6409,-238.5769 267.7811,-224.3971 272.3288,-211.8515"/>
<polygon fill="#000000" stroke="#000000" points="257.5153,-252.7165 259.2311,-259.7205 253.4257,-263.9981 251.71,-256.9941 257.5153,-252.7165"/>
<polygon fill="#000000" stroke="#000000" points="275.837,-202.1739 276.6595,-213.1089 274.1329,-206.8746 272.4289,-211.5753 272.4289,-211.5753 272.4289,-211.5753 274.1329,-206.8746 268.1983,-210.0416 275.837,-202.1739 275.837,-202.1739"/>
</g>
<!-- A4 -->
<g id="node5" class="node">
<title>A4</title>
<polygon fill="none" stroke="#000000" points="393.5,-170 393.5,-214 491.5,-214 491.5,-170 393.5,-170"/>
<text text-anchor="start" x="403.0375" y="-195" font-family="Helvetica,sans-Serif" font-size="10.00" fill="#000000">&lt;&lt;enumeration&gt;&gt;</text>
<text text-anchor="start" x="415.8255" y="-183" font-family="Helvetica,sans-Serif" font-size="10.00" fill="#000000">ModelState </text>
<polygon fill="none" stroke="#000000" points="393.5,-126 393.5,-170 491.5,-170 491.5,-126 393.5,-126"/>
<text text-anchor="start" x="419.7235" y="-151" font-family="Helvetica,sans-Serif" font-size="10.00" fill="#000000"> COMBAT</text>
<text text-anchor="start" x="422.503" y="-139" font-family="Helvetica,sans-Serif" font-size="10.00" fill="#000000"> WORLD</text>
</g>
<!-- A0&#45;&gt;A4 -->
<g id="edge4" class="edge">
<title>A0&#45;&gt;A4</title>
<path fill="none" stroke="#000000" stroke-dasharray="5,2" d="M318.0993,-263.8489C339.835,-247.5774 363.0249,-230.1813 384.5,-214 384.7744,-213.7932 385.0496,-213.5859 385.3254,-213.378"/>
<polygon fill="#000000" stroke="#000000" points="393.4693,-207.2311 388.1986,-216.8473 389.4785,-210.2433 385.4876,-213.2555 385.4876,-213.2555 385.4876,-213.2555 389.4785,-210.2433 382.7767,-209.6638 393.4693,-207.2311 393.4693,-207.2311"/>
</g>
<!-- A1&#45;&gt;A2 -->
<g id="edge6" class="edge">
<title>A1&#45;&gt;A2</title>
<path fill="none" stroke="#000000" stroke-dasharray="5,2" d="M100.4241,-131.8201C111.7219,-116.907 124.777,-99.6744 136.5915,-84.0792"/>
<polygon fill="#000000" stroke="#000000" points="142.6409,-76.0941 140.1892,-86.7824 139.6216,-80.0795 136.6022,-84.065 136.6022,-84.065 136.6022,-84.065 139.6216,-80.0795 133.0153,-81.3476 142.6409,-76.0941 142.6409,-76.0941"/>
</g>
<!-- A3&#45;&gt;A2 -->
<g id="edge5" class="edge">
<title>A3&#45;&gt;A2</title>
<path fill="none" stroke="#000000" stroke-dasharray="5,2" d="M259.1232,-137.7092C244.9309,-121.5593 227.5038,-101.7284 211.9395,-84.0173"/>
<polygon fill="#000000" stroke="#000000" points="204.9377,-76.0498 214.9191,-80.5909 208.2383,-79.8056 211.5389,-83.5615 211.5389,-83.5615 211.5389,-83.5615 208.2383,-79.8056 208.1586,-86.532 204.9377,-76.0498 204.9377,-76.0498"/>
</g>
</g>
</svg>
