<?xml version="1.0" encoding="UTF-8" standalone="no"?>
<!DOCTYPE svg PUBLIC "-//W3C//DTD SVG 1.1//EN"
 "http://www.w3.org/Graphics/SVG/1.1/DTD/svg11.dtd">
<!-- Generated by graphviz version 2.40.1 (20161225.0304)
 -->
<!-- Title: G Pages: 1 -->
<svg width="354pt" height="384pt"
 viewBox="0.00 0.00 354.00 384.00" xmlns="http://www.w3.org/2000/svg" xmlns:xlink="http://www.w3.org/1999/xlink">
<g id="graph0" class="graph" transform="scale(1 1) rotate(0) translate(4 380)">
<title>G</title>
<polygon fill="#ffffff" stroke="transparent" points="-4,4 -4,-380 350,-380 350,4 -4,4"/>
<!-- A0 -->
<g id="node1" class="node">
<title>A0</title>
<polygon fill="none" stroke="#000000" points="80,-344 80,-376 292,-376 292,-344 80,-344"/>
<text text-anchor="start" x="154.325" y="-357" font-family="Helvetica,sans-Serif" font-size="10.00" fill="#000000">CombatScene</text>
<polygon fill="none" stroke="#000000" points="80,-288 80,-344 292,-344 292,-288 80,-288"/>
<text text-anchor="start" x="122.2365" y="-325" font-family="Helvetica,sans-Serif" font-size="10.00" fill="#000000">+CombatScene(SpriteBatch)</text>
<text text-anchor="start" x="89.743" y="-313" font-family="Helvetica,sans-Serif" font-size="10.00" fill="#000000">+renderNewCombat(CombatModel, Player)</text>
<text text-anchor="start" x="165.3045" y="-301" font-family="Helvetica,sans-Serif" font-size="10.00" fill="#000000">+render()</text>
</g>
<!-- A1 -->
<g id="node2" class="node">
<title>A1</title>
<polygon fill="none" stroke="#000000" points="58,-206 58,-238 314,-238 314,-206 58,-206"/>
<text text-anchor="start" x="127.66" y="-219" font-family="Helvetica,sans-Serif" font-size="10.00" fill="#000000">CombatGraphicsRenderer</text>
<polygon fill="none" stroke="#000000" points="58,-162 58,-206 314,-206 314,-162 58,-162"/>
<text text-anchor="start" x="67.517" y="-187" font-family="Helvetica,sans-Serif" font-size="10.00" fill="#000000">+CombatGraphicsRenderer(CombatCreature, Player)</text>
<text text-anchor="start" x="152.5215" y="-175" font-family="Helvetica,sans-Serif" font-size="10.00" fill="#000000">+render(Batch)</text>
</g>
<!-- A0&#45;&gt;A1 -->
<g id="edge1" class="edge">
<title>A0&#45;&gt;A1</title>
<path fill="none" stroke="#000000" d="M186,-275.3667C186,-266.3578 186,-257.1112 186,-248.3169"/>
<polygon fill="#000000" stroke="#000000" points="186.0001,-275.6787 190,-281.6787 186,-287.6787 182,-281.6787 186.0001,-275.6787"/>
<polygon fill="#000000" stroke="#000000" points="186,-238.2422 190.5001,-248.2421 186,-243.2422 186.0001,-248.2422 186.0001,-248.2422 186.0001,-248.2422 186,-243.2422 181.5001,-248.2422 186,-238.2422 186,-238.2422"/>
</g>
<!-- A2 -->
<g id="node3" class="node">
<title>A2</title>
<polygon fill="none" stroke="#000000" points="0,-62 0,-94 190,-94 190,-62 0,-62"/>
<text text-anchor="start" x="54.718" y="-75" font-family="Helvetica,sans-Serif" font-size="10.00" fill="#000000">CreatureRenderer</text>
<polygon fill="none" stroke="#000000" points="0,-18 0,-62 190,-62 190,-18 0,-18"/>
<text text-anchor="start" x="9.564" y="-43" font-family="Helvetica,sans-Serif" font-size="10.00" fill="#000000">+CombatCreature(float, float, boolean)</text>
<text text-anchor="start" x="61.5215" y="-31" font-family="Helvetica,sans-Serif" font-size="10.00" fill="#000000">+render(Batch)</text>
</g>
<!-- A1&#45;&gt;A2 -->
<g id="edge3" class="edge">
<title>A1&#45;&gt;A2</title>
<path fill="none" stroke="#000000" d="M155.3158,-151.4448C145.4915,-135.8986 134.6326,-118.7154 124.8674,-103.2627"/>
<polygon fill="#000000" stroke="#000000" points="155.442,-151.6445 162.0287,-154.5797 161.8526,-161.7887 155.2659,-158.8535 155.442,-151.6445"/>
<polygon fill="#000000" stroke="#000000" points="119.2603,-94.3899 128.4065,-100.4394 121.9313,-98.6166 124.6024,-102.8434 124.6024,-102.8434 124.6024,-102.8434 121.9313,-98.6166 120.7984,-105.2473 119.2603,-94.3899 119.2603,-94.3899"/>
<text text-anchor="middle" x="136.0887" y="-102.1974" font-family="Helvetica,sans-Serif" font-size="10.00" fill="#000000">2</text>
<text text-anchor="middle" x="145.0241" y="-147.9811" font-family="Helvetica,sans-Serif" font-size="10.00" fill="#000000">1</text>
</g>
<!-- A3 -->
<g id="node4" class="node">
<title>A3</title>
<polygon fill="none" stroke="#000000" points="208,-80 208,-112 346,-112 346,-80 208,-80"/>
<text text-anchor="start" x="254.7745" y="-93" font-family="Helvetica,sans-Serif" font-size="10.00" fill="#000000">HealthBar</text>
<polygon fill="none" stroke="#000000" points="208,0 208,-80 346,-80 346,0 208,0"/>
<text text-anchor="start" x="233.794" y="-61" font-family="Helvetica,sans-Serif" font-size="10.00" fill="#000000">+HealthBar(double,</text>
<text text-anchor="start" x="241.71" y="-49" font-family="Helvetica,sans-Serif" font-size="10.00" fill="#000000">float, float, float,</text>
<text text-anchor="start" x="265.888" y="-37" font-family="Helvetica,sans-Serif" font-size="10.00" fill="#000000">float)</text>
<text text-anchor="start" x="217.962" y="-25" font-family="Helvetica,sans-Serif" font-size="10.00" fill="#000000">+setCurrentHealth(double)</text>
<text text-anchor="start" x="243.5215" y="-13" font-family="Helvetica,sans-Serif" font-size="10.00" fill="#000000">+render(Batch)</text>
</g>
<!-- A1&#45;&gt;A3 -->
<g id="edge2" class="edge">
<title>A1&#45;&gt;A3</title>
<path fill="none" stroke="#000000" d="M216.6829,-151.4469C222.9349,-141.5536 229.6059,-130.9973 236.1474,-120.6459"/>
<polygon fill="#000000" stroke="#000000" points="216.558,-151.6445 216.7341,-158.8535 210.1474,-161.7887 209.9713,-154.5797 216.558,-151.6445"/>
<polygon fill="#000000" stroke="#000000" points="241.5997,-112.018 240.0616,-122.8755 238.9286,-116.2448 236.2575,-120.4715 236.2575,-120.4715 236.2575,-120.4715 238.9286,-116.2448 232.4535,-118.0675 241.5997,-112.018 241.5997,-112.018"/>
<text text-anchor="middle" x="239.0617" y="-128.8563" font-family="Helvetica,sans-Serif" font-size="10.00" fill="#000000">2</text>
<text text-anchor="middle" x="212.6855" y="-138.9504" font-family="Helvetica,sans-Serif" font-size="10.00" fill="#000000">1</text>
</g>
</g>
</svg>
