<?xml version="1.0" encoding="UTF-8" standalone="no"?>
<!DOCTYPE svg PUBLIC "-//W3C//DTD SVG 1.1//EN"
 "http://www.w3.org/Graphics/SVG/1.1/DTD/svg11.dtd">
<!-- Generated by graphviz version 2.40.1 (20161225.0304)
 -->
<!-- Title: G Pages: 1 -->
<svg width="737pt" height="126pt"
 viewBox="0.00 0.00 737.13 126.00" xmlns="http://www.w3.org/2000/svg" xmlns:xlink="http://www.w3.org/1999/xlink">
<g id="graph0" class="graph" transform="scale(1 1) rotate(0) translate(4 122)">
<title>G</title>
<polygon fill="#ffffff" stroke="transparent" points="-4,4 -4,-122 733.127,-122 733.127,4 -4,4"/>
<!-- A0 -->
<g id="node1" class="node">
<title>A0</title>
<polygon fill="none" stroke="#000000" points="0,-66 0,-98 134,-98 134,-66 0,-66"/>
<text text-anchor="start" x="30.051" y="-79" font-family="Helvetica,sans-Serif" font-size="10.00" fill="#000000">OverworldScene</text>
<polygon fill="none" stroke="#000000" points="0,-34 0,-66 134,-66 134,-34 0,-34"/>
<text text-anchor="start" x="9.635" y="-47" font-family="Helvetica,sans-Serif" font-size="10.00" fill="#000000">+OverworldScene(Player)</text>
</g>
<!-- A1 -->
<g id="node2" class="node">
<title>A1</title>
<polygon fill="none" stroke="#000000" points="289.8417,-118 208.1583,-118 208.1583,-82 289.8417,-82 289.8417,-118"/>
<text text-anchor="middle" x="249" y="-97" font-family="Helvetica,sans-Serif" font-size="10.00" fill="#000000">TextureMap</text>
</g>
<!-- A0&#45;&gt;A1 -->
<g id="edge1" class="edge">
<title>A0&#45;&gt;A1</title>
<path fill="none" stroke="#000000" d="M134.253,-78.5637C155.3791,-82.5104 178.3412,-86.8 198.1351,-90.4978"/>
<polygon fill="#000000" stroke="#000000" points="208.1707,-92.3725 197.5144,-94.9596 203.2557,-91.4543 198.3408,-90.5361 198.3408,-90.5361 198.3408,-90.5361 203.2557,-91.4543 199.1672,-86.1126 208.1707,-92.3725 208.1707,-92.3725"/>
</g>
<!-- A2 -->
<g id="node3" class="node">
<title>A2</title>
<polygon fill="none" stroke="#000000" points="184,-32 184,-64 314,-64 314,-32 184,-32"/>
<text text-anchor="start" x="213.9965" y="-45" font-family="Helvetica,sans-Serif" font-size="10.00" fill="#000000">PlayerRenderer</text>
<polygon fill="none" stroke="#000000" points="184,0 184,-32 314,-32 314,0 184,0"/>
<text text-anchor="start" x="193.5805" y="-13" font-family="Helvetica,sans-Serif" font-size="10.00" fill="#000000">+PlayerRenderer(Player)</text>
</g>
<!-- A0&#45;&gt;A2 -->
<g id="edge2" class="edge">
<title>A0&#45;&gt;A2</title>
<path fill="none" stroke="#000000" d="M134.253,-53.4363C147.1636,-51.0244 160.7599,-48.4844 173.8998,-46.0297"/>
<polygon fill="#000000" stroke="#000000" points="183.84,-44.1727 174.8364,-50.4327 178.925,-45.091 174.01,-46.0092 174.01,-46.0092 174.01,-46.0092 178.925,-45.091 173.1836,-41.5857 183.84,-44.1727 183.84,-44.1727"/>
</g>
<!-- A3 -->
<g id="node4" class="node">
<title>A3</title>
<polygon fill="none" stroke="#000000" points="474.6792,-118 364.1068,-118 364.1068,-82 474.6792,-82 474.6792,-118"/>
<text text-anchor="middle" x="419.393" y="-97" font-family="Helvetica,sans-Serif" font-size="10.00" fill="#000000">TextureMapParser</text>
</g>
<!-- A1&#45;&gt;A3 -->
<g id="edge3" class="edge">
<title>A1&#45;&gt;A3</title>
<path fill="none" stroke="#000000" d="M289.8134,-94.1408C309.0222,-93.2916 332.4073,-93.0495 353.9966,-93.4147"/>
<polygon fill="#000000" stroke="#000000" points="364.0952,-93.6339 353.9998,-97.9157 359.0964,-93.5253 354.0975,-93.4168 354.0975,-93.4168 354.0975,-93.4168 359.0964,-93.5253 354.1952,-88.9179 364.0952,-93.6339 364.0952,-93.6339"/>
</g>
<!-- A6 -->
<g id="node7" class="node">
<title>A6</title>
<polygon fill="none" stroke="#000000" points="462.7931,-64 375.9929,-64 375.9929,-28 462.7931,-28 462.7931,-64"/>
<text text-anchor="middle" x="419.393" y="-43" font-family="Helvetica,sans-Serif" font-size="10.00" fill="#000000">TextureLayer</text>
</g>
<!-- A1&#45;&gt;A6 -->
<g id="edge7" class="edge">
<title>A1&#45;&gt;A6</title>
<path fill="none" stroke="#000000" d="M301.518,-83.3563C322.1177,-76.828 345.7215,-69.3476 366.3698,-62.8038"/>
<polygon fill="#000000" stroke="#000000" points="301.2527,-83.4403 296.7415,-89.0661 289.8134,-87.0657 294.3246,-81.4399 301.2527,-83.4403"/>
<polygon fill="#000000" stroke="#000000" points="375.9341,-59.7728 367.7608,-67.0836 371.1677,-61.2833 366.4013,-62.7939 366.4013,-62.7939 366.4013,-62.7939 371.1677,-61.2833 365.0418,-58.5042 375.9341,-59.7728 375.9341,-59.7728"/>
<text text-anchor="middle" x="361.2084" y="-70.3062" font-family="Helvetica,sans-Serif" font-size="10.00" fill="#000000">n</text>
<text text-anchor="middle" x="304.5391" y="-70.5322" font-family="Helvetica,sans-Serif" font-size="10.00" fill="#000000">1</text>
</g>
<!-- A3&#45;&gt;A1 -->
<g id="edge4" class="edge">
<title>A3&#45;&gt;A1</title>
<path fill="none" stroke="#000000" stroke-dasharray="5,2" d="M364.0952,-106.3661C343.5077,-106.916 320.2527,-106.8751 300.0621,-106.2434"/>
<polygon fill="#000000" stroke="#000000" points="289.8134,-105.8592 299.975,-101.7371 294.8099,-106.0465 299.8063,-106.2339 299.8063,-106.2339 299.8063,-106.2339 294.8099,-106.0465 299.6377,-110.7307 289.8134,-105.8592 289.8134,-105.8592"/>
</g>
<!-- A4 -->
<g id="node5" class="node">
<title>A4</title>
<polygon fill="none" stroke="#000000" points="621.6316,-118 524.8374,-118 524.8374,-82 621.6316,-82 621.6316,-118"/>
<text text-anchor="middle" x="573.2345" y="-97" font-family="Helvetica,sans-Serif" font-size="10.00" fill="#000000">TilesetManager</text>
</g>
<!-- A3&#45;&gt;A4 -->
<g id="edge5" class="edge">
<title>A3&#45;&gt;A4</title>
<path fill="none" stroke="#000000" stroke-dasharray="5,2" d="M474.9333,-100C487.7687,-100 501.4667,-100 514.436,-100"/>
<polygon fill="#000000" stroke="#000000" points="524.6505,-100 514.6505,-104.5001 519.6505,-100 514.6505,-100.0001 514.6505,-100.0001 514.6505,-100.0001 519.6505,-100 514.6505,-95.5001 524.6505,-100 524.6505,-100"/>
</g>
<!-- A5 -->
<g id="node6" class="node">
<title>A5</title>
<polygon fill="none" stroke="#000000" points="729.3507,-118 671.4593,-118 671.4593,-82 729.3507,-82 729.3507,-118"/>
<text text-anchor="middle" x="700.405" y="-97" font-family="Helvetica,sans-Serif" font-size="10.00" fill="#000000">Tileset</text>
</g>
<!-- A4&#45;&gt;A5 -->
<g id="edge6" class="edge">
<title>A4&#45;&gt;A5</title>
<path fill="none" stroke="#000000" d="M633.7022,-100C643.1031,-100 652.595,-100 661.3534,-100"/>
<polygon fill="#000000" stroke="#000000" points="633.675,-100.0001 627.675,-104 621.675,-100 627.675,-96 633.675,-100.0001"/>
<polygon fill="#000000" stroke="#000000" points="671.6176,-100 661.6176,-104.5001 666.6176,-100 661.6176,-100.0001 661.6176,-100.0001 661.6176,-100.0001 666.6176,-100 661.6175,-95.5001 671.6176,-100 671.6176,-100"/>
</g>
<!-- A7 -->
<g id="node8" class="node">
<title>A7</title>
<polygon fill="none" stroke="#000000" points="612.2345,-64 534.2345,-64 534.2345,-28 612.2345,-28 612.2345,-64"/>
<text text-anchor="middle" x="573.2345" y="-43" font-family="Helvetica,sans-Serif" font-size="10.00" fill="#000000">TextureTile</text>
</g>
<!-- A6&#45;&gt;A7 -->
<g id="edge8" class="edge">
<title>A6&#45;&gt;A7</title>
<path fill="none" stroke="#000000" d="M475.2482,-46C491.1278,-46 508.3051,-46 523.7763,-46"/>
<polygon fill="#000000" stroke="#000000" points="475.0663,-46.0001 469.0663,-50 463.0663,-46 469.0663,-42 475.0663,-46.0001"/>
<polygon fill="#000000" stroke="#000000" points="534.1776,-46 524.1776,-50.5001 529.1776,-46 524.1776,-46.0001 524.1776,-46.0001 524.1776,-46.0001 529.1776,-46 524.1776,-41.5001 534.1776,-46 534.1776,-46"/>
<text text-anchor="middle" x="516.0514" y="-51.4524" font-family="Helvetica,sans-Serif" font-size="10.00" fill="#000000">n</text>
<text text-anchor="middle" x="481.1925" y="-34.5476" font-family="Helvetica,sans-Serif" font-size="10.00" fill="#000000">1</text>
</g>
</g>
</svg>
