<?xml version="1.0" encoding="UTF-8" standalone="no"?>
<!DOCTYPE svg PUBLIC "-//W3C//DTD SVG 1.1//EN"
 "http://www.w3.org/Graphics/SVG/1.1/DTD/svg11.dtd">
<!-- Generated by graphviz version 2.40.1 (20161225.0304)
 -->
<!-- Title: G Pages: 1 -->
<svg width="736pt" height="203pt"
 viewBox="0.00 0.00 736.44 203.00" xmlns="http://www.w3.org/2000/svg" xmlns:xlink="http://www.w3.org/1999/xlink">
<g id="graph0" class="graph" transform="scale(1 1) rotate(0) translate(4 199)">
<title>G</title>
<polygon fill="#ffffff" stroke="transparent" points="-4,4 -4,-199 732.444,-199 732.444,4 -4,4"/>
<!-- A0 -->
<g id="node1" class="node">
<title>A0</title>
<polygon fill="none" stroke="#000000" points=".5,-112 .5,-144 93.5,-144 93.5,-112 .5,-112"/>
<text text-anchor="start" x="10.051" y="-125" font-family="Helvetica,sans-Serif" font-size="10.00" fill="#000000">OverworldScene</text>
<polygon fill="none" stroke="#000000" points=".5,-80 .5,-112 93.5,-112 93.5,-80 .5,-80"/>
<text text-anchor="start" x="26.3045" y="-93" font-family="Helvetica,sans-Serif" font-size="10.00" fill="#000000">+render()</text>
</g>
<!-- A1 -->
<g id="node2" class="node">
<title>A1</title>
<polygon fill="none" stroke="#000000" points="147.5,-159 147.5,-191 252.5,-191 252.5,-159 147.5,-159"/>
<text text-anchor="start" x="164.9965" y="-172" font-family="Helvetica,sans-Serif" font-size="10.00" fill="#000000">PlayerRenderer</text>
<polygon fill="none" stroke="#000000" points="147.5,-127 147.5,-159 252.5,-159 252.5,-127 147.5,-127"/>
<text text-anchor="start" x="157.0785" y="-140" font-family="Helvetica,sans-Serif" font-size="10.00" fill="#000000">+draw(SpriteBatch)</text>
</g>
<!-- A0&#45;&gt;A1 -->
<g id="edge2" class="edge">
<title>A0&#45;&gt;A1</title>
<path fill="none" stroke="#000000" d="M93.2364,-126.3569C107.0171,-130.5902 122.3243,-135.2924 136.9304,-139.7793"/>
<polygon fill="#000000" stroke="#000000" points="146.903,-142.8427 136.0224,-144.2078 142.1234,-141.3745 137.3438,-139.9062 137.3438,-139.9062 137.3438,-139.9062 142.1234,-141.3745 138.6653,-135.6046 146.903,-142.8427 146.903,-142.8427"/>
</g>
<!-- A2 -->
<g id="node3" class="node">
<title>A2</title>
<polygon fill="none" stroke="#000000" points="143.5,-77 143.5,-109 256.5,-109 256.5,-77 143.5,-77"/>
<text text-anchor="start" x="173.3295" y="-90" font-family="Helvetica,sans-Serif" font-size="10.00" fill="#000000">TextureMap</text>
<polygon fill="none" stroke="#000000" points="143.5,-21 143.5,-77 256.5,-77 256.5,-21 143.5,-21"/>
<text text-anchor="start" x="153.4645" y="-58" font-family="Helvetica,sans-Serif" font-size="10.00" fill="#000000">+render(SpriteBatch)</text>
<text text-anchor="start" x="168.7465" y="-46" font-family="Helvetica,sans-Serif" font-size="10.00" fill="#000000">+getBgColor()</text>
<text text-anchor="start" x="169.0265" y="-34" font-family="Helvetica,sans-Serif" font-size="10.00" fill="#000000">+getTileSize()</text>
</g>
<!-- A0&#45;&gt;A2 -->
<g id="edge1" class="edge">
<title>A0&#45;&gt;A2</title>
<path fill="none" stroke="#000000" d="M93.2364,-97.6431C105.8238,-93.7763 119.6849,-89.5184 133.122,-85.3906"/>
<polygon fill="#000000" stroke="#000000" points="142.807,-82.4155 134.5693,-89.6537 138.0274,-83.8838 133.2479,-85.352 133.2479,-85.352 133.2479,-85.352 138.0274,-83.8838 131.9264,-81.0504 142.807,-82.4155 142.807,-82.4155"/>
</g>
<!-- A3 -->
<g id="node4" class="node">
<title>A3</title>
<polygon fill="none" stroke="#000000" points="309.5,-163 309.5,-195 421.5,-195 421.5,-163 309.5,-163"/>
<text text-anchor="start" x="336.05" y="-176" font-family="Helvetica,sans-Serif" font-size="10.00" fill="#000000">TextureLayer</text>
<polygon fill="none" stroke="#000000" points="309.5,-119 309.5,-163 421.5,-163 421.5,-119 309.5,-119"/>
<text text-anchor="start" x="319.2395" y="-144" font-family="Helvetica,sans-Serif" font-size="10.00" fill="#000000">+render(SpriteBatch,</text>
<text text-anchor="start" x="358.557" y="-132" font-family="Helvetica,sans-Serif" font-size="10.00" fill="#000000">int)</text>
</g>
<!-- A2&#45;&gt;A3 -->
<g id="edge7" class="edge">
<title>A2&#45;&gt;A3</title>
<path fill="none" stroke="#000000" d="M266.8171,-102.3082C277.9659,-108.4871 289.5065,-114.8831 300.5943,-121.0281"/>
<polygon fill="#000000" stroke="#000000" points="266.6594,-102.2209 259.4724,-102.811 256.1635,-96.4039 263.3504,-95.8138 266.6594,-102.2209"/>
<polygon fill="#000000" stroke="#000000" points="309.3732,-125.8936 298.4453,-124.982 304.9999,-123.4698 300.6267,-121.0461 300.6267,-121.0461 300.6267,-121.0461 304.9999,-123.4698 302.8081,-117.1101 309.3732,-125.8936 309.3732,-125.8936"/>
<text text-anchor="middle" x="289.4218" y="-121.4999" font-family="Helvetica,sans-Serif" font-size="10.00" fill="#000000">n</text>
<text text-anchor="middle" x="276.1149" y="-94.7976" font-family="Helvetica,sans-Serif" font-size="10.00" fill="#000000">1</text>
</g>
<!-- A7 -->
<g id="node8" class="node">
<title>A7</title>
<polygon fill="none" stroke="#000000" points="306.5,-65 306.5,-97 425.5,-97 425.5,-65 306.5,-65"/>
<text text-anchor="start" x="324.607" y="-78" font-family="Helvetica,sans-Serif" font-size="10.00" fill="#000000">TextureMapParser</text>
<polygon fill="none" stroke="#000000" points="306.5,-33 306.5,-65 425.5,-65 425.5,-33 306.5,-33"/>
<text text-anchor="start" x="316.415" y="-46" font-family="Helvetica,sans-Serif" font-size="10.00" fill="#000000">+parseMapFile(String)</text>
</g>
<!-- A2&#45;&gt;A7 -->
<g id="edge3" class="edge">
<title>A2&#45;&gt;A7</title>
<path fill="none" stroke="#000000" d="M256.1635,-58.5616C268.9621,-58.249 282.6927,-58.1716 295.9527,-58.3294"/>
<polygon fill="#000000" stroke="#000000" points="305.9777,-58.496 295.9043,-62.8292 300.9784,-58.4129 295.9791,-58.3298 295.9791,-58.3298 295.9791,-58.3298 300.9784,-58.4129 296.0539,-53.8304 305.9777,-58.496 305.9777,-58.496"/>
</g>
<!-- A4 -->
<g id="node5" class="node">
<title>A4</title>
<polygon fill="none" stroke="#000000" points="508,-162 508,-194 588,-194 588,-162 508,-162"/>
<text text-anchor="start" x="523" y="-175" font-family="Helvetica,sans-Serif" font-size="10.00" fill="#000000">TextureTile</text>
<polygon fill="none" stroke="#000000" points="508,-130 508,-162 588,-162 588,-130 508,-130"/>
<text text-anchor="start" x="517.856" y="-143" font-family="Helvetica,sans-Serif" font-size="10.00" fill="#000000">+getTexture()</text>
</g>
<!-- A3&#45;&gt;A4 -->
<g id="edge8" class="edge">
<title>A3&#45;&gt;A4</title>
<path fill="none" stroke="#000000" d="M433.7667,-158.8703C455.0241,-159.4527 478.0615,-160.0839 497.8425,-160.6258"/>
<polygon fill="#000000" stroke="#000000" points="433.7407,-158.8697 427.6333,-162.7038 421.7452,-158.541 427.8525,-154.7068 433.7407,-158.8697"/>
<polygon fill="#000000" stroke="#000000" points="507.8632,-160.9004 497.7436,-165.1247 502.865,-160.7634 497.8669,-160.6264 497.8669,-160.6264 497.8669,-160.6264 502.865,-160.7634 497.9902,-156.1281 507.8632,-160.9004 507.8632,-160.9004"/>
<text text-anchor="middle" x="489.5123" y="-165.8531" font-family="Helvetica,sans-Serif" font-size="10.00" fill="#000000">n</text>
<text text-anchor="middle" x="440.096" y="-147.5882" font-family="Helvetica,sans-Serif" font-size="10.00" fill="#000000">1</text>
</g>
<!-- A5 -->
<g id="node6" class="node">
<title>A5</title>
<polygon fill="none" stroke="#000000" points="475,-80 475,-112 621,-112 621,-80 475,-80"/>
<text text-anchor="start" x="513.5515" y="-93" font-family="Helvetica,sans-Serif" font-size="10.00" fill="#000000">TilesetManager</text>
<polygon fill="none" stroke="#000000" points="475,0 475,-80 621,-80 621,0 475,0"/>
<text text-anchor="start" x="505.909" y="-61" font-family="Helvetica,sans-Serif" font-size="10.00" fill="#000000">+addTileset(String,</text>
<text text-anchor="start" x="517.4385" y="-49" font-family="Helvetica,sans-Serif" font-size="10.00" fill="#000000">String, int, int,</text>
<text text-anchor="start" x="533.2745" y="-37" font-family="Helvetica,sans-Serif" font-size="10.00" fill="#000000">int, int,</text>
<text text-anchor="start" x="541.057" y="-25" font-family="Helvetica,sans-Serif" font-size="10.00" fill="#000000">int)</text>
<text text-anchor="start" x="484.803" y="-13" font-family="Helvetica,sans-Serif" font-size="10.00" fill="#000000">+getTextureTileFromGId(int)</text>
</g>
<!-- A6 -->
<g id="node7" class="node">
<title>A6</title>
<polygon fill="none" stroke="#000000" points="728.6677,-74 670.7763,-74 670.7763,-38 728.6677,-38 728.6677,-74"/>
<text text-anchor="middle" x="699.722" y="-53" font-family="Helvetica,sans-Serif" font-size="10.00" fill="#000000">Tileset</text>
</g>
<!-- A5&#45;&gt;A6 -->
<g id="edge6" class="edge">
<title>A5&#45;&gt;A6</title>
<path fill="none" stroke="#000000" d="M633.5385,-56C642.939,-56 652.1379,-56 660.5451,-56"/>
<polygon fill="#000000" stroke="#000000" points="633.1945,-56.0001 627.1945,-60 621.1945,-56 627.1945,-52 633.1945,-56.0001"/>
<polygon fill="#000000" stroke="#000000" points="670.7264,-56 660.7265,-60.5001 665.7264,-56 660.7264,-56.0001 660.7264,-56.0001 660.7264,-56.0001 665.7264,-56 660.7264,-51.5001 670.7264,-56 670.7264,-56"/>
<text text-anchor="middle" x="652.6003" y="-61.4524" font-family="Helvetica,sans-Serif" font-size="10.00" fill="#000000">n</text>
<text text-anchor="middle" x="639.3207" y="-44.5476" font-family="Helvetica,sans-Serif" font-size="10.00" fill="#000000">1</text>
</g>
<!-- A7&#45;&gt;A2 -->
<g id="edge4" class="edge">
<title>A7&#45;&gt;A2</title>
<path fill="none" stroke="#000000" stroke-dasharray="5,2" d="M305.9777,-71.504C293.1756,-71.779 279.5614,-71.8234 266.497,-71.6372"/>
<polygon fill="#000000" stroke="#000000" points="256.1635,-71.4384 266.2482,-67.1317 261.1626,-71.5347 266.1616,-71.6309 266.1616,-71.6309 266.1616,-71.6309 261.1626,-71.5347 266.0751,-76.13 256.1635,-71.4384 256.1635,-71.4384"/>
</g>
<!-- A7&#45;&gt;A5 -->
<g id="edge5" class="edge">
<title>A7&#45;&gt;A5</title>
<path fill="none" stroke="#000000" stroke-dasharray="5,2" d="M425.0048,-62.0655C437.6868,-61.4401 451.3034,-60.7686 464.6904,-60.1084"/>
<polygon fill="#000000" stroke="#000000" points="474.8634,-59.6067 465.0972,-64.5939 469.8694,-59.8531 464.8755,-60.0994 464.8755,-60.0994 464.8755,-60.0994 469.8694,-59.8531 464.6538,-55.6048 474.8634,-59.6067 474.8634,-59.6067"/>
</g>
</g>
</svg>
