<?xml version="1.0" encoding="UTF-8" standalone="no"?>
<!DOCTYPE svg PUBLIC "-//W3C//DTD SVG 1.1//EN"
 "http://www.w3.org/Graphics/SVG/1.1/DTD/svg11.dtd">
<!-- Generated by graphviz version 2.40.1 (20161225.0304)
 -->
<!-- Title: G Pages: 1 -->
<svg width="303pt" height="272pt"
 viewBox="0.00 0.00 303.39 272.00" xmlns="http://www.w3.org/2000/svg" xmlns:xlink="http://www.w3.org/1999/xlink">
<g id="graph0" class="graph" transform="scale(1 1) rotate(0) translate(4 268)">
<title>G</title>
<polygon fill="#ffffff" stroke="transparent" points="-4,4 -4,-268 299.393,-268 299.393,4 -4,4"/>
<!-- A0 -->
<g id="node1" class="node">
<title>A0</title>
<polygon fill="none" stroke="#000000" points="101.393,-232 101.393,-264 235.393,-264 235.393,-232 101.393,-232"/>
<text text-anchor="start" x="131.444" y="-245" font-family="Helvetica,sans-Serif" font-size="10.00" fill="#000000">OverworldScene</text>
<polygon fill="none" stroke="#000000" points="101.393,-200 101.393,-232 235.393,-232 235.393,-200 101.393,-200"/>
<text text-anchor="start" x="111.028" y="-213" font-family="Helvetica,sans-Serif" font-size="10.00" fill="#000000">+OverworldScene(Player)</text>
</g>
<!-- A1 -->
<g id="node2" class="node">
<title>A1</title>
<polygon fill="none" stroke="#000000" points="147.2347,-136 65.5513,-136 65.5513,-100 147.2347,-100 147.2347,-136"/>
<text text-anchor="middle" x="106.393" y="-115" font-family="Helvetica,sans-Serif" font-size="10.00" fill="#000000">TextureMap</text>
</g>
<!-- A0&#45;&gt;A1 -->
<g id="edge1" class="edge">
<title>A0&#45;&gt;A1</title>
<path fill="none" stroke="#000000" d="M150.9576,-199.9413C141.5563,-182.6551 130.0817,-161.5567 121.1306,-145.0981"/>
<polygon fill="#000000" stroke="#000000" points="116.1866,-136.0076 124.9176,-142.6425 118.5755,-140.4 120.9644,-144.7925 120.9644,-144.7925 120.9644,-144.7925 118.5755,-140.4 117.0112,-146.9425 116.1866,-136.0076 116.1866,-136.0076"/>
</g>
<!-- A2 -->
<g id="node3" class="node">
<title>A2</title>
<polygon fill="none" stroke="#000000" points="165.393,-118 165.393,-150 295.393,-150 295.393,-118 165.393,-118"/>
<text text-anchor="start" x="195.3895" y="-131" font-family="Helvetica,sans-Serif" font-size="10.00" fill="#000000">PlayerRenderer</text>
<polygon fill="none" stroke="#000000" points="165.393,-86 165.393,-118 295.393,-118 295.393,-86 165.393,-86"/>
<text text-anchor="start" x="174.9735" y="-99" font-family="Helvetica,sans-Serif" font-size="10.00" fill="#000000">+PlayerRenderer(Player)</text>
</g>
<!-- A0&#45;&gt;A2 -->
<g id="edge2" class="edge">
<title>A0&#45;&gt;A2</title>
<path fill="none" stroke="#000000" d="M185.8284,-199.9413C192.6963,-187.3133 200.6705,-172.651 207.9592,-159.2493"/>
<polygon fill="#000000" stroke="#000000" points="212.8736,-150.2131 212.049,-161.1479 210.4847,-154.6055 208.0958,-158.9979 208.0958,-158.9979 208.0958,-158.9979 210.4847,-154.6055 204.1426,-156.8479 212.8736,-150.2131 212.8736,-150.2131"/>
</g>
<!-- A3 -->
<g id="node4" class="node">
<title>A3</title>
<polygon fill="none" stroke="#000000" points="110.6792,-36 .1068,-36 .1068,0 110.6792,0 110.6792,-36"/>
<text text-anchor="middle" x="55.393" y="-15" font-family="Helvetica,sans-Serif" font-size="10.00" fill="#000000">TextureMapParser</text>
</g>
<!-- A1&#45;&gt;A3 -->
<g id="edge3" class="edge">
<title>A1&#45;&gt;A3</title>
<path fill="none" stroke="#000000" stroke-dasharray="5,2" d="M91.6747,-99.6585C82.4343,-84.5755 71.1608,-62.9631 63.4335,-45.7611"/>
<polygon fill="#000000" stroke="#000000" points="59.3358,-36.2253 67.4184,-43.6362 61.3099,-40.8191 63.2839,-45.4129 63.2839,-45.4129 63.2839,-45.4129 61.3099,-40.8191 59.1495,-47.1896 59.3358,-36.2253 59.3358,-36.2253"/>
</g>
<!-- A4 -->
<g id="node5" class="node">
<title>A4</title>
<polygon fill="none" stroke="#000000" points="186.3387,-36 128.4473,-36 128.4473,0 186.3387,0 186.3387,-36"/>
<text text-anchor="middle" x="157.393" y="-15" font-family="Helvetica,sans-Serif" font-size="10.00" fill="#000000">Tileset</text>
</g>
<!-- A1&#45;&gt;A4 -->
<g id="edge5" class="edge">
<title>A1&#45;&gt;A4</title>
<path fill="none" stroke="#000000" stroke-dasharray="5,2" d="M115.7472,-99.6585C123.5114,-84.4345 134.6681,-62.5585 143.4802,-45.28"/>
<polygon fill="#000000" stroke="#000000" points="148.0981,-36.2253 147.5636,-47.1781 145.8265,-40.6794 143.5548,-45.1336 143.5548,-45.1336 143.5548,-45.1336 145.8265,-40.6794 139.546,-43.0891 148.0981,-36.2253 148.0981,-36.2253"/>
</g>
<!-- A5 -->
<g id="node6" class="node">
<title>A5</title>
<polygon fill="none" stroke="#000000" points="282.393,-36 204.393,-36 204.393,0 282.393,0 282.393,-36"/>
<text text-anchor="middle" x="243.393" y="-15" font-family="Helvetica,sans-Serif" font-size="10.00" fill="#000000">TextureTile</text>
</g>
<!-- A1&#45;&gt;A5 -->
<g id="edge6" class="edge">
<title>A1&#45;&gt;A5</title>
<path fill="none" stroke="#000000" d="M141.0137,-92.7294C162.1745,-77.2835 189.1005,-57.6295 210.0275,-42.3544"/>
<polygon fill="#000000" stroke="#000000" points="140.8953,-92.8158 138.4073,-99.5842 131.2027,-99.8908 133.6907,-93.1224 140.8953,-92.8158"/>
<polygon fill="#000000" stroke="#000000" points="218.3049,-36.3124 212.8809,-45.8429 214.2664,-39.2603 210.2278,-42.2082 210.2278,-42.2082 210.2278,-42.2082 214.2664,-39.2603 207.5747,-38.5735 218.3049,-36.3124 218.3049,-36.3124"/>
<text text-anchor="middle" x="208.6475" y="-50.8262" font-family="Helvetica,sans-Serif" font-size="10.00" fill="#000000">n</text>
<text text-anchor="middle" x="140.8601" y="-79.377" font-family="Helvetica,sans-Serif" font-size="10.00" fill="#000000">1</text>
</g>
<!-- A3&#45;&gt;A1 -->
<g id="edge4" class="edge">
<title>A3&#45;&gt;A1</title>
<path fill="none" stroke="#000000" stroke-dasharray="5,2" d="M70.04,-36.2253C79.2699,-51.2746 90.5472,-72.8815 98.2928,-90.106"/>
<polygon fill="#000000" stroke="#000000" points="102.4029,-99.6585 94.3168,-92.2513 100.4267,-95.0656 98.4505,-90.4727 98.4505,-90.4727 98.4505,-90.4727 100.4267,-95.0656 102.5841,-88.6941 102.4029,-99.6585 102.4029,-99.6585"/>
</g>
</g>
</svg>
