<?xml version="1.0" encoding="UTF-8" standalone="no"?>
<!DOCTYPE svg PUBLIC "-//W3C//DTD SVG 1.1//EN"
 "http://www.w3.org/Graphics/SVG/1.1/DTD/svg11.dtd">
<!-- Generated by graphviz version 2.40.1 (20161225.0304)
 -->
<!-- Title: G Pages: 1 -->
<svg width="810pt" height="372pt"
 viewBox="0.00 0.00 810.00 372.00" xmlns="http://www.w3.org/2000/svg" xmlns:xlink="http://www.w3.org/1999/xlink">
<g id="graph0" class="graph" transform="scale(1 1) rotate(0) translate(4 368)">
<title>G</title>
<polygon fill="#ffffff" stroke="transparent" points="-4,4 -4,-368 806,-368 806,4 -4,4"/>
<!-- A0 -->
<g id="node1" class="node">
<title>A0</title>
<polygon fill="none" stroke="#000000" points=".5,-96 .5,-128 175.5,-128 175.5,-96 .5,-96"/>
<text text-anchor="start" x="56.325" y="-109" font-family="Helvetica,sans-Serif" font-size="10.00" fill="#000000">CombatScene</text>
<polygon fill="none" stroke="#000000" points=".5,-64 .5,-96 175.5,-96 175.5,-64 .5,-64"/>
<text text-anchor="start" x="10.344" y="-77" font-family="Helvetica,sans-Serif" font-size="10.00" fill="#000000">+CombatScene(Encounter, Player)</text>
</g>
<!-- A1 -->
<g id="node2" class="node">
<title>A1</title>
<polygon fill="none" stroke="#000000" points="240.5,-160 240.5,-192 403.5,-192 403.5,-160 240.5,-160"/>
<text text-anchor="start" x="296.165" y="-173" font-family="Helvetica,sans-Serif" font-size="10.00" fill="#000000">UIRenderer</text>
<polygon fill="none" stroke="#000000" points="240.5,-116 240.5,-160 403.5,-160 403.5,-116 240.5,-116"/>
<text text-anchor="start" x="250.184" y="-141" font-family="Helvetica,sans-Serif" font-size="10.00" fill="#000000">+UIRenderer(Encounter, Player)</text>
<text text-anchor="start" x="290.7465" y="-129" font-family="Helvetica,sans-Serif" font-size="10.00" fill="#000000">+render():void</text>
</g>
<!-- A0&#45;&gt;A1 -->
<g id="edge1" class="edge">
<title>A0&#45;&gt;A1</title>
<path fill="none" stroke="#000000" d="M187.0602,-120.6773C201.2084,-124.1841 215.7045,-127.7772 229.6961,-131.2452"/>
<polygon fill="#000000" stroke="#000000" points="186.9463,-120.6491 180.1601,-123.0881 175.2987,-117.7621 182.0848,-115.3231 186.9463,-120.6491"/>
<polygon fill="#000000" stroke="#000000" points="239.7827,-133.7453 228.9937,-135.7072 234.9295,-132.5423 230.0764,-131.3394 230.0764,-131.3394 230.0764,-131.3394 234.9295,-132.5423 231.159,-126.9715 239.7827,-133.7453 239.7827,-133.7453"/>
</g>
<!-- A2 -->
<g id="node3" class="node">
<title>A2</title>
<polygon fill="none" stroke="#000000" points="225.5,-55 225.5,-87 418.5,-87 418.5,-55 225.5,-55"/>
<text text-anchor="start" x="281.162" y="-68" font-family="Helvetica,sans-Serif" font-size="10.00" fill="#000000">GraphicsRenderer</text>
<polygon fill="none" stroke="#000000" points="225.5,-11 225.5,-55 418.5,-55 418.5,-11 225.5,-11"/>
<text text-anchor="start" x="235.181" y="-36" font-family="Helvetica,sans-Serif" font-size="10.00" fill="#000000">+GraphicsRenderer(Encounter, Player)</text>
<text text-anchor="start" x="290.7465" y="-24" font-family="Helvetica,sans-Serif" font-size="10.00" fill="#000000">+render():void</text>
</g>
<!-- A0&#45;&gt;A2 -->
<g id="edge2" class="edge">
<title>A0&#45;&gt;A2</title>
<path fill="none" stroke="#000000" d="M187.198,-75.9752C196.3906,-74.1288 205.7289,-72.2532 214.9791,-70.3952"/>
<polygon fill="#000000" stroke="#000000" points="187.0637,-76.0021 181.9689,-81.1053 175.2987,-78.3652 180.3935,-73.262 187.0637,-76.0021"/>
<polygon fill="#000000" stroke="#000000" points="224.9709,-68.3883 216.0529,-74.7695 220.0688,-69.373 215.1667,-70.3576 215.1667,-70.3576 215.1667,-70.3576 220.0688,-69.373 214.2806,-65.9457 224.9709,-68.3883 224.9709,-68.3883"/>
</g>
<!-- A3 -->
<g id="node4" class="node">
<title>A3</title>
<polygon fill="none" stroke="#000000" points="482,-332 482,-364 621,-364 621,-332 482,-332"/>
<text text-anchor="start" x="528.439" y="-345" font-family="Helvetica,sans-Serif" font-size="10.00" fill="#000000">HealthBox</text>
<polygon fill="none" stroke="#000000" points="482,-288 482,-332 621,-332 621,-288 482,-288"/>
<text text-anchor="start" x="519.2765" y="-313" font-family="Helvetica,sans-Serif" font-size="10.00" fill="#000000">&#45;maxHealth:int</text>
<text text-anchor="start" x="513.1635" y="-301" font-family="Helvetica,sans-Serif" font-size="10.00" fill="#000000">&#45;currentHealth:int</text>
<polygon fill="none" stroke="#000000" points="482,-232 482,-288 621,-288 621,-232 482,-232"/>
<text text-anchor="start" x="516.912" y="-269" font-family="Helvetica,sans-Serif" font-size="10.00" fill="#000000">+HealthBox(int)</text>
<text text-anchor="start" x="491.6325" y="-257" font-family="Helvetica,sans-Serif" font-size="10.00" fill="#000000">+setCurrentHealth(int):void</text>
<text text-anchor="start" x="520.2465" y="-245" font-family="Helvetica,sans-Serif" font-size="10.00" fill="#000000">+render():void</text>
</g>
<!-- A1&#45;&gt;A3 -->
<g id="edge3" class="edge">
<title>A1&#45;&gt;A3</title>
<path fill="none" stroke="#000000" d="M392.298,-198.4223C417.6702,-214.3421 446.4196,-232.3809 472.4118,-248.6897"/>
<polygon fill="#000000" stroke="#000000" points="392.2634,-198.4006 385.055,-198.5999 382.0986,-192.0227 389.307,-191.8234 392.2634,-198.4006"/>
<polygon fill="#000000" stroke="#000000" points="481.112,-254.1487 470.2496,-252.6455 476.8766,-251.4912 472.6413,-248.8337 472.6413,-248.8337 472.6413,-248.8337 476.8766,-251.4912 475.033,-245.0219 481.112,-254.1487 481.112,-254.1487"/>
<text text-anchor="middle" x="461.2656" y="-248.6745" font-family="Helvetica,sans-Serif" font-size="10.00" fill="#000000">2</text>
<text text-anchor="middle" x="401.945" y="-191.4969" font-family="Helvetica,sans-Serif" font-size="10.00" fill="#000000">1</text>
</g>
<!-- A4 -->
<g id="node5" class="node">
<title>A4</title>
<polygon fill="none" stroke="#000000" points="468,-182 468,-214 634,-214 634,-182 468,-182"/>
<text text-anchor="start" x="514.6065" y="-195" font-family="Helvetica,sans-Serif" font-size="10.00" fill="#000000">ChoiceRenderer</text>
<polygon fill="none" stroke="#000000" points="468,-150 468,-182 634,-182 634,-150 468,-150"/>
<text text-anchor="start" x="491.267" y="-163" font-family="Helvetica,sans-Serif" font-size="10.00" fill="#000000">&#45;currentSelection:Selection</text>
<polygon fill="none" stroke="#000000" points="468,-94 468,-150 634,-150 634,-94 468,-94"/>
<text text-anchor="start" x="477.514" y="-131" font-family="Helvetica,sans-Serif" font-size="10.00" fill="#000000">+changeSelection(Direction):void</text>
<text text-anchor="start" x="481.954" y="-119" font-family="Helvetica,sans-Serif" font-size="10.00" fill="#000000">+getCurrentSelection:Selection</text>
<text text-anchor="start" x="518.357" y="-107" font-family="Helvetica,sans-Serif" font-size="10.00" fill="#000000"> +render():void</text>
</g>
<!-- A1&#45;&gt;A4 -->
<g id="edge4" class="edge">
<title>A1&#45;&gt;A4</title>
<path fill="none" stroke="#000000" d="M415.2744,-154C429.2676,-154 443.6915,-154 457.6753,-154"/>
<polygon fill="#000000" stroke="#000000" points="415.0593,-154.0001 409.0593,-158 403.0593,-154 409.0593,-150 415.0593,-154.0001"/>
<polygon fill="#000000" stroke="#000000" points="467.7675,-154 457.7675,-158.5001 462.7675,-154 457.7675,-154.0001 457.7675,-154.0001 457.7675,-154.0001 462.7675,-154 457.7674,-149.5001 467.7675,-154 467.7675,-154"/>
</g>
<!-- A8 -->
<g id="node9" class="node">
<title>A8</title>
<polygon fill="none" stroke="#000000" points="474,-44 474,-76 628,-76 628,-44 474,-44"/>
<text text-anchor="start" x="510.718" y="-57" font-family="Helvetica,sans-Serif" font-size="10.00" fill="#000000">CreatureRenderer</text>
<polygon fill="none" stroke="#000000" points="474,0 474,-44 628,-44 628,0 474,0"/>
<text text-anchor="start" x="483.634" y="-25" font-family="Helvetica,sans-Serif" font-size="10.00" fill="#000000">+CreatureRenderer(ICreature)</text>
<text text-anchor="start" x="519.7465" y="-13" font-family="Helvetica,sans-Serif" font-size="10.00" fill="#000000">+render():void</text>
</g>
<!-- A2&#45;&gt;A8 -->
<g id="edge8" class="edge">
<title>A2&#45;&gt;A8</title>
<path fill="none" stroke="#000000" d="M430.4554,-43.7777C441.5907,-43.244 452.7989,-42.7068 463.6592,-42.1863"/>
<polygon fill="#000000" stroke="#000000" points="430.1497,-43.7923 424.3482,-48.075 418.1635,-44.3669 423.9651,-40.0842 430.1497,-43.7923"/>
<polygon fill="#000000" stroke="#000000" points="473.9514,-41.693 464.1783,-46.6666 468.9571,-41.9324 463.9628,-42.1718 463.9628,-42.1718 463.9628,-42.1718 468.9571,-41.9324 463.7474,-37.677 473.9514,-41.693 473.9514,-41.693"/>
<text text-anchor="middle" x="456.2507" y="-48.0034" font-family="Helvetica,sans-Serif" font-size="10.00" fill="#000000">n</text>
<text text-anchor="middle" x="435.8642" y="-32.0564" font-family="Helvetica,sans-Serif" font-size="10.00" fill="#000000">1</text>
</g>
<!-- A5 -->
<g id="node6" class="node">
<title>A5</title>
<polygon fill="none" stroke="#000000" points="693,-302 693,-346 793,-346 793,-302 693,-302"/>
<text text-anchor="start" x="702.9825" y="-327" font-family="Helvetica,sans-Serif" font-size="10.00" fill="#000000">&lt;&lt;Enumeration&gt;&gt;</text>
<text text-anchor="start" x="722.439" y="-315" font-family="Helvetica,sans-Serif" font-size="10.00" fill="#000000">Selection</text>
<polygon fill="none" stroke="#000000" points="693,-234 693,-302 793,-302 793,-234 693,-234"/>
<text text-anchor="start" x="727.168" y="-283" font-family="Helvetica,sans-Serif" font-size="10.00" fill="#000000"> FIRST</text>
<text text-anchor="start" x="721.613" y="-271" font-family="Helvetica,sans-Serif" font-size="10.00" fill="#000000">SECOND</text>
<text text-anchor="start" x="727.7275" y="-259" font-family="Helvetica,sans-Serif" font-size="10.00" fill="#000000">THIRD</text>
<text text-anchor="start" x="722.173" y="-247" font-family="Helvetica,sans-Serif" font-size="10.00" fill="#000000">FOURTH</text>
</g>
<!-- A4&#45;&gt;A5 -->
<g id="edge5" class="edge">
<title>A4&#45;&gt;A5</title>
<path fill="none" stroke="#000000" d="M634.0973,-212.8606C651.0992,-224.9036 668.6511,-237.3362 684.5672,-248.6101"/>
<polygon fill="#000000" stroke="#000000" points="692.7297,-254.3918 681.9683,-252.2837 688.6495,-251.5017 684.5694,-248.6116 684.5694,-248.6116 684.5694,-248.6116 688.6495,-251.5017 687.1705,-244.9395 692.7297,-254.3918 692.7297,-254.3918"/>
</g>
<!-- A6 -->
<g id="node7" class="node">
<title>A6</title>
<polygon fill="none" stroke="#000000" points="693,-172 693,-216 793,-216 793,-172 693,-172"/>
<text text-anchor="start" x="702.9825" y="-197" font-family="Helvetica,sans-Serif" font-size="10.00" fill="#000000">&lt;&lt;Enumeration&gt;&gt;</text>
<text text-anchor="start" x="723.279" y="-185" font-family="Helvetica,sans-Serif" font-size="10.00" fill="#000000">Direction</text>
<polygon fill="none" stroke="#000000" points="693,-92 693,-172 793,-172 793,-92 693,-92"/>
<text text-anchor="start" x="734.6665" y="-153" font-family="Helvetica,sans-Serif" font-size="10.00" fill="#000000"> UP</text>
<text text-anchor="start" x="727.172" y="-141" font-family="Helvetica,sans-Serif" font-size="10.00" fill="#000000">DOWN</text>
<text text-anchor="start" x="730.777" y="-129" font-family="Helvetica,sans-Serif" font-size="10.00" fill="#000000">LEFT</text>
<text text-anchor="start" x="727.4475" y="-117" font-family="Helvetica,sans-Serif" font-size="10.00" fill="#000000">RIGHT</text>
<text text-anchor="start" x="729.387" y="-105" font-family="Helvetica,sans-Serif" font-size="10.00" fill="#000000">BACK</text>
</g>
<!-- A4&#45;&gt;A6 -->
<g id="edge6" class="edge">
<title>A4&#45;&gt;A6</title>
<path fill="none" stroke="#000000" d="M634.0973,-154C650.3193,-154 667.042,-154 682.3668,-154"/>
<polygon fill="#000000" stroke="#000000" points="692.7297,-154 682.7297,-158.5001 687.7297,-154 682.7297,-154.0001 682.7297,-154.0001 682.7297,-154.0001 687.7297,-154 682.7296,-149.5001 692.7297,-154 692.7297,-154"/>
</g>
<!-- A7 -->
<g id="node8" class="node">
<title>A7</title>
<polygon fill="none" stroke="#000000" points="684,-42 684,-74 802,-74 802,-42 684,-42"/>
<text text-anchor="start" x="712.9905" y="-55" font-family="Helvetica,sans-Serif" font-size="10.00" fill="#000000">ChoiceButton</text>
<polygon fill="none" stroke="#000000" points="684,-10 684,-42 802,-42 802,-10 684,-10"/>
<text text-anchor="start" x="693.96" y="-23" font-family="Helvetica,sans-Serif" font-size="10.00" fill="#000000">+render(boolean):void</text>
</g>
<!-- A4&#45;&gt;A7 -->
<g id="edge7" class="edge">
<title>A4&#45;&gt;A7</title>
<path fill="none" stroke="#000000" d="M644.8387,-99.2608C656.5135,-92.4505 668.2309,-85.6153 679.2999,-79.1584"/>
<polygon fill="#000000" stroke="#000000" points="644.4627,-99.4801 641.2955,-105.9584 634.0973,-105.5266 637.2645,-99.0482 644.4627,-99.4801"/>
<polygon fill="#000000" stroke="#000000" points="688.0247,-74.0689 681.6543,-82.9947 683.7058,-76.5883 679.3869,-79.1077 679.3869,-79.1077 679.3869,-79.1077 683.7058,-76.5883 677.1194,-75.2207 688.0247,-74.0689 688.0247,-74.0689"/>
<text text-anchor="middle" x="676.6266" y="-87.5031" font-family="Helvetica,sans-Serif" font-size="10.00" fill="#000000">4</text>
<text text-anchor="middle" x="645.4954" y="-86.0923" font-family="Helvetica,sans-Serif" font-size="10.00" fill="#000000">1</text>
</g>
</g>
</svg>
