<?xml version="1.0" encoding="UTF-8" standalone="no"?>
<!DOCTYPE svg PUBLIC "-//W3C//DTD SVG 1.1//EN"
 "http://www.w3.org/Graphics/SVG/1.1/DTD/svg11.dtd">
<!-- Generated by graphviz version 2.40.1 (20161225.0304)
 -->
<!-- Title: G Pages: 1 -->
<svg width="926pt" height="268pt"
 viewBox="0.00 0.00 925.61 268.00" xmlns="http://www.w3.org/2000/svg" xmlns:xlink="http://www.w3.org/1999/xlink">
<g id="graph0" class="graph" transform="scale(1 1) rotate(0) translate(4 264)">
<title>G</title>
<polygon fill="#ffffff" stroke="transparent" points="-4,4 -4,-264 921.613,-264 921.613,4 -4,4"/>
<!-- A0 -->
<g id="node1" class="node">
<title>A0</title>
<polygon fill="none" stroke="#000000" points=".5,-205 .5,-237 171.5,-237 171.5,-205 .5,-205"/>
<text text-anchor="start" x="54.8855" y="-218" font-family="Helvetica,sans-Serif" font-size="10.00" fill="#000000">CombatModel</text>
<polygon fill="none" stroke="#000000" points=".5,-161 .5,-205 171.5,-205 171.5,-161 .5,-161"/>
<text text-anchor="start" x="10.294" y="-186" font-family="Helvetica,sans-Serif" font-size="10.00" fill="#000000">+CombatModel(Player,Encounter)</text>
<text text-anchor="start" x="41.683" y="-174" font-family="Helvetica,sans-Serif" font-size="10.00" fill="#000000">+combatLoop():void</text>
</g>
<!-- A1 -->
<g id="node2" class="node">
<title>A1</title>
<polygon fill="none" stroke="#000000" points="221.5,-174 221.5,-206 428.5,-206 428.5,-174 221.5,-174"/>
<text text-anchor="start" x="289.996" y="-187" font-family="Helvetica,sans-Serif" font-size="10.00" fill="#000000">EnemyCreature</text>
<polygon fill="none" stroke="#000000" points="221.5,-106 221.5,-174 428.5,-174 428.5,-106 221.5,-106"/>
<text text-anchor="start" x="276.797" y="-155" font-family="Helvetica,sans-Serif" font-size="10.00" fill="#000000">+chooseMove():Move</text>
<text text-anchor="start" x="279.853" y="-143" font-family="Helvetica,sans-Serif" font-size="10.00" fill="#000000">+takeDamage():void</text>
<text text-anchor="start" x="292.3565" y="-131" font-family="Helvetica,sans-Serif" font-size="10.00" fill="#000000">+isDead():bool</text>
<text text-anchor="start" x="231.11" y="-119" font-family="Helvetica,sans-Serif" font-size="10.00" fill="#000000">&#45;createNewMoveUsingPower(Move):Move</text>
</g>
<!-- A0&#45;&gt;A1 -->
<g id="edge1" class="edge">
<title>A0&#45;&gt;A1</title>
<path fill="none" stroke="#000000" d="M182.926,-181.4715C192.0688,-179.8265 201.3903,-178.1494 210.6662,-176.4806"/>
<polygon fill="#000000" stroke="#000000" points="182.9198,-181.4725 177.7229,-186.4718 171.1094,-183.5975 176.3063,-178.5982 182.9198,-181.4725"/>
<polygon fill="#000000" stroke="#000000" points="220.703,-174.6748 211.6579,-180.8745 215.782,-175.5602 210.861,-176.4456 210.861,-176.4456 210.861,-176.4456 215.782,-175.5602 210.0641,-172.0167 220.703,-174.6748 220.703,-174.6748"/>
</g>
<!-- A4 -->
<g id="node5" class="node">
<title>A4</title>
<polygon fill="none" stroke="#000000" points="372.2273,-260 276.7727,-260 276.7727,-224 372.2273,-224 372.2273,-260"/>
<text text-anchor="middle" x="324.5" y="-239" font-family="Helvetica,sans-Serif" font-size="10.00" fill="#000000">PlayerCreature</text>
</g>
<!-- A0&#45;&gt;A4 -->
<g id="edge4" class="edge">
<title>A0&#45;&gt;A4</title>
<path fill="none" stroke="#000000" d="M183.3191,-216.5993C211.6094,-221.6891 241.5771,-227.0808 266.5904,-231.5811"/>
<polygon fill="#000000" stroke="#000000" points="182.9198,-216.5275 176.3063,-219.4018 171.1094,-214.4025 177.7229,-211.5282 182.9198,-216.5275"/>
<polygon fill="#000000" stroke="#000000" points="276.6297,-233.3873 265.9908,-236.0454 271.7087,-232.5019 266.7877,-231.6165 266.7877,-231.6165 266.7877,-231.6165 271.7087,-232.5019 267.5846,-227.1876 276.6297,-233.3873 276.6297,-233.3873"/>
</g>
<!-- A2 -->
<g id="node3" class="node">
<title>A2</title>
<polygon fill="#ffffff" stroke="#000000" points="366.907,-88 276.093,-88 276.093,-52 372.907,-52 372.907,-82 366.907,-88"/>
<polyline fill="none" stroke="#000000" points="366.907,-88 366.907,-82 "/>
<polyline fill="none" stroke="#000000" points="372.907,-82 366.907,-82 "/>
<text text-anchor="middle" x="324.5" y="-67" font-family="Helvetica,sans-Serif" font-size="10.00" fill="#000000">This handles AI</text>
</g>
<!-- A1&#45;&gt;A2 -->
<g id="edge2" class="edge">
<title>A1&#45;&gt;A2</title>
<path fill="none" stroke="#000000" stroke-dasharray="5,2" d="M324.5,-95.6332C324.5,-93.1356 324.5,-90.6381 324.5,-88.1406"/>
<polygon fill="#000000" stroke="#000000" points="324.5,-105.9007 320.0001,-95.9007 324.5,-100.9007 324.5001,-95.9007 324.5001,-95.9007 324.5001,-95.9007 324.5,-100.9007 329.0001,-95.9007 324.5,-105.9007 324.5,-105.9007"/>
</g>
<!-- A3 -->
<g id="node4" class="node">
<title>A3</title>
<polygon fill="none" stroke="#000000" points="656.531,-226 656.531,-258 789.531,-258 789.531,-226 656.531,-226"/>
<text text-anchor="start" x="690.5175" y="-239" font-family="Helvetica,sans-Serif" font-size="10.00" fill="#000000">&lt;&lt;ICreature&gt;&gt;</text>
<polygon fill="none" stroke="#000000" points="656.531,-146 656.531,-226 789.531,-226 789.531,-146 656.531,-146"/>
<text text-anchor="start" x="666.4905" y="-207" font-family="Helvetica,sans-Serif" font-size="10.00" fill="#000000"> +getMoves():List&lt;Move&gt;</text>
<text text-anchor="start" x="695.3875" y="-195" font-family="Helvetica,sans-Serif" font-size="10.00" fill="#000000"> +getHp():int</text>
<text text-anchor="start" x="687.324" y="-183" font-family="Helvetica,sans-Serif" font-size="10.00" fill="#000000"> +getSpeed():int</text>
<text text-anchor="start" x="687.609" y="-171" font-family="Helvetica,sans-Serif" font-size="10.00" fill="#000000"> +getPower():int</text>
<text text-anchor="start" x="672.6055" y="-159" font-family="Helvetica,sans-Serif" font-size="10.00" fill="#000000">+takeDamage(int):void</text>
</g>
<!-- A1&#45;&gt;A3 -->
<g id="edge3" class="edge">
<title>A1&#45;&gt;A3</title>
<path fill="none" stroke="#000000" d="M440.2972,-159.6299C491.3196,-162.3056 551.8633,-166.9484 606.031,-175 618.9591,-176.9217 632.5739,-179.531 645.7559,-182.3735"/>
<polygon fill="none" stroke="#000000" points="440.2026,-159.6253 434.0096,-163.3194 428.2177,-159.0236 434.4107,-155.3294 440.2026,-159.6253"/>
<polygon fill="#000000" stroke="#000000" points="655.7333,-184.5851 644.9964,-186.8143 650.8518,-183.503 645.9703,-182.421 645.9703,-182.421 645.9703,-182.421 650.8518,-183.503 646.9442,-178.0276 655.7333,-184.5851 655.7333,-184.5851"/>
</g>
<!-- A6 -->
<g id="node7" class="node">
<title>A6</title>
<polygon fill="none" stroke="#000000" points="606.0465,-220 477.9845,-220 477.9845,-184 606.0465,-184 606.0465,-220"/>
<text text-anchor="middle" x="542.0155" y="-199" font-family="Helvetica,sans-Serif" font-size="10.00" fill="#000000">&lt;&lt;ICombatCreature&gt;&gt;</text>
</g>
<!-- A1&#45;&gt;A6 -->
<g id="edge13" class="edge">
<title>A1&#45;&gt;A6</title>
<path fill="none" stroke="#000000" stroke-dasharray="5,2" d="M428.1614,-177.9222C441.5441,-180.7524 455.0299,-183.6043 467.8059,-186.3062"/>
<polygon fill="none" stroke="#000000" points="467.3765,-189.7927 477.8843,-188.4376 468.8249,-182.9442 467.3765,-189.7927"/>
</g>
<!-- A7 -->
<g id="node8" class="node">
<title>A7</title>
<polygon fill="none" stroke="#000000" points="780.955,-109 664.107,-109 664.107,-73 780.955,-73 780.955,-109"/>
<text text-anchor="middle" x="722.531" y="-88" font-family="Helvetica,sans-Serif" font-size="10.00" fill="#000000">&lt;&lt;ICombatAction&gt;&gt;</text>
</g>
<!-- A1&#45;&gt;A7 -->
<g id="edge8" class="edge">
<title>A1&#45;&gt;A7</title>
<path fill="none" stroke="#000000" d="M428.0389,-139.0917C499.1703,-127.4757 591.6274,-112.3771 653.8092,-102.2225"/>
<polygon fill="#000000" stroke="#000000" points="663.9038,-100.5741 654.7598,-106.627 658.9692,-101.3799 654.0345,-102.1858 654.0345,-102.1858 654.0345,-102.1858 658.9692,-101.3799 653.3092,-97.7447 663.9038,-100.5741 663.9038,-100.5741"/>
</g>
<!-- A5 -->
<g id="node6" class="node">
<title>A5</title>
<polygon fill="none" stroke="#000000" points="917.4051,-220 839.2389,-220 839.2389,-184 917.4051,-184 917.4051,-220"/>
<text text-anchor="middle" x="878.322" y="-199" font-family="Helvetica,sans-Serif" font-size="10.00" fill="#000000">&lt;&lt;IMove&gt;&gt;</text>
</g>
<!-- A3&#45;&gt;A5 -->
<g id="edge6" class="edge">
<title>A3&#45;&gt;A5</title>
<path fill="none" stroke="#000000" d="M801.1103,-202C810.5754,-202 820.027,-202 828.9061,-202"/>
<polygon fill="none" stroke="#000000" points="801.0523,-202.0001 795.0523,-206 789.0523,-202 795.0523,-198 801.0523,-202.0001"/>
<polygon fill="#000000" stroke="#000000" points="839.0329,-202 829.033,-206.5001 834.0329,-202 829.0329,-202.0001 829.0329,-202.0001 829.0329,-202.0001 834.0329,-202 829.0329,-197.5001 839.0329,-202 839.0329,-202"/>
</g>
<!-- A4&#45;&gt;A3 -->
<g id="edge5" class="edge">
<title>A4&#45;&gt;A3</title>
<path fill="none" stroke="#000000" d="M384.6336,-242.3726C441.832,-241.9848 530.1664,-239.4544 606.031,-229 618.9788,-227.2157 632.6036,-224.6763 645.7895,-221.8609"/>
<polygon fill="none" stroke="#000000" points="384.5628,-242.3728 378.5804,-246.3992 372.5629,-242.4256 378.5452,-238.3993 384.5628,-242.3728"/>
<polygon fill="#000000" stroke="#000000" points="655.7687,-219.6622 646.9713,-226.2086 650.8858,-220.7381 646.003,-221.814 646.003,-221.814 646.003,-221.814 650.8858,-220.7381 645.0347,-217.4194 655.7687,-219.6622 655.7687,-219.6622"/>
</g>
<!-- A4&#45;&gt;A6 -->
<g id="edge12" class="edge">
<title>A4&#45;&gt;A6</title>
<path fill="none" stroke="#000000" stroke-dasharray="5,2" d="M372.2347,-233.2218C400.2201,-228.0754 436.1759,-221.4634 467.7886,-215.6499"/>
<polygon fill="none" stroke="#000000" points="468.6823,-219.0444 477.8843,-213.7934 467.4162,-212.1598 468.6823,-219.0444"/>
</g>
<!-- A6&#45;&gt;A3 -->
<g id="edge7" class="edge">
<title>A6&#45;&gt;A3</title>
<path fill="none" stroke="#000000" stroke-dasharray="5,2" d="M606.1668,-202C619.0067,-202 632.6178,-202 645.8322,-202"/>
<polygon fill="none" stroke="#000000" points="645.8406,-205.5001 655.8406,-202 645.8405,-198.5001 645.8406,-205.5001"/>
</g>
<!-- A6&#45;&gt;A7 -->
<g id="edge14" class="edge">
<title>A6&#45;&gt;A7</title>
<path fill="none" stroke="#000000" stroke-dasharray="5,2" d="M571.4202,-183.9189C602.2345,-164.971 650.7618,-135.1313 684.4781,-114.399"/>
<polygon fill="#000000" stroke="#000000" points="693.1389,-109.0734 686.9776,-118.1447 688.8797,-111.6924 684.6205,-114.3114 684.6205,-114.3114 684.6205,-114.3114 688.8797,-111.6924 682.2633,-110.4781 693.1389,-109.0734 693.1389,-109.0734"/>
</g>
<!-- A8 -->
<g id="node9" class="node">
<title>A8</title>
<polygon fill="none" stroke="#000000" points="579.7469,-90 504.2841,-90 504.2841,-54 579.7469,-54 579.7469,-90"/>
<text text-anchor="middle" x="542.0155" y="-69" font-family="Helvetica,sans-Serif" font-size="10.00" fill="#000000">FleeAction</text>
</g>
<!-- A8&#45;&gt;A7 -->
<g id="edge9" class="edge">
<title>A8&#45;&gt;A7</title>
<path fill="none" stroke="#000000" stroke-dasharray="5,2" d="M579.8575,-75.983C601.2108,-78.2306 628.5541,-81.1085 653.5796,-83.7426"/>
<polygon fill="none" stroke="#000000" points="653.4583,-87.2491 663.7698,-84.8151 654.1911,-80.2875 653.4583,-87.2491"/>
</g>
<!-- A9 -->
<g id="node10" class="node">
<title>A9</title>
<polygon fill="none" stroke="#000000" points="586.0875,-36 497.9435,-36 497.9435,0 586.0875,0 586.0875,-36"/>
<text text-anchor="middle" x="542.0155" y="-15" font-family="Helvetica,sans-Serif" font-size="10.00" fill="#000000">AttackAcktion</text>
</g>
<!-- A9&#45;&gt;A7 -->
<g id="edge10" class="edge">
<title>A9&#45;&gt;A7</title>
<path fill="none" stroke="#000000" stroke-dasharray="5,2" d="M586.1746,-35.8578C610.9952,-45.8952 642.1737,-58.5037 668.4502,-69.1299"/>
<polygon fill="none" stroke="#000000" points="667.3055,-72.4423 677.8884,-72.9466 669.9299,-65.9528 667.3055,-72.4423"/>
</g>
<!-- A10 -->
<g id="node11" class="node">
<title>A10</title>
<polygon fill="none" stroke="#000000" points="767.8202,-36 677.2418,-36 677.2418,0 767.8202,0 767.8202,-36"/>
<text text-anchor="middle" x="722.531" y="-15" font-family="Helvetica,sans-Serif" font-size="10.00" fill="#000000">AttackHandler</text>
</g>
<!-- A9&#45;&gt;A10 -->
<g id="edge11" class="edge">
<title>A9&#45;&gt;A10</title>
<path fill="none" stroke="#000000" d="M586.1746,-18C610.5011,-18 640.9348,-18 666.875,-18"/>
<polygon fill="#000000" stroke="#000000" points="676.9429,-18 666.9429,-22.5001 671.9429,-18 666.9429,-18.0001 666.9429,-18.0001 666.9429,-18.0001 671.9429,-18 666.9428,-13.5001 676.9429,-18 676.9429,-18"/>
</g>
</g>
</svg>
