<?xml version="1.0" encoding="UTF-8" standalone="no"?>
<!DOCTYPE svg PUBLIC "-//W3C//DTD SVG 1.1//EN"
 "http://www.w3.org/Graphics/SVG/1.1/DTD/svg11.dtd">
<!-- Generated by graphviz version 2.40.1 (20161225.0304)
 -->
<!-- Title: G Pages: 1 -->
<svg width="259pt" height="216pt"
 viewBox="0.00 0.00 259.29 216.00" xmlns="http://www.w3.org/2000/svg" xmlns:xlink="http://www.w3.org/1999/xlink">
<g id="graph0" class="graph" transform="scale(1 1) rotate(0) translate(4 212)">
<title>G</title>
<polygon fill="#ffffff" stroke="transparent" points="-4,4 -4,-212 255.292,-212 255.292,4 -4,4"/>
<!-- A0 -->
<g id="node1" class="node">
<title>A0</title>
<polygon fill="none" stroke="#000000" points="114.1748,-208 49.8252,-208 49.8252,-172 114.1748,-172 114.1748,-208"/>
<text text-anchor="middle" x="82" y="-187" font-family="Helvetica,sans-Serif" font-size="10.00" fill="#000000">Feyrune</text>
</g>
<!-- A1 -->
<g id="node2" class="node">
<title>A1</title>
<polygon fill="#0000ff" stroke="#000000" points="54,-122 0,-122 0,-86 54,-86 54,-122"/>
<text text-anchor="middle" x="27" y="-101" font-family="Helvetica,sans-Serif" font-size="10.00" fill="#ffffff">View</text>
</g>
<!-- A0&#45;&gt;A1 -->
<g id="edge1" class="edge">
<title>A0&#45;&gt;A1</title>
<path fill="none" stroke="#000000" d="M70.3359,-171.7616C62.7523,-159.9036 52.7314,-144.2345 44.2361,-130.951"/>
<polygon fill="#000000" stroke="#000000" points="38.6473,-122.2121 47.8261,-128.2121 41.3412,-126.4244 44.0351,-130.6366 44.0351,-130.6366 44.0351,-130.6366 41.3412,-126.4244 40.244,-133.0611 38.6473,-122.2121 38.6473,-122.2121"/>
</g>
<!-- A2 -->
<g id="node3" class="node">
<title>A2</title>
<polygon fill="#0000ff" stroke="#000000" points="109.7255,-36 54.2745,-36 54.2745,0 109.7255,0 109.7255,-36"/>
<text text-anchor="middle" x="82" y="-15" font-family="Helvetica,sans-Serif" font-size="10.00" fill="#ffffff">Model</text>
</g>
<!-- A0&#45;&gt;A2 -->
<g id="edge2" class="edge">
<title>A0&#45;&gt;A2</title>
<path fill="none" stroke="#000000" d="M82,-171.9181C82,-141.981 82,-81.8972 82,-46.2989"/>
<polygon fill="#000000" stroke="#000000" points="82,-36.0977 86.5001,-46.0977 82,-41.0977 82.0001,-46.0977 82.0001,-46.0977 82.0001,-46.0977 82,-41.0977 77.5001,-46.0978 82,-36.0977 82,-36.0977"/>
</g>
<!-- A3 -->
<g id="node4" class="node">
<title>A3</title>
<polygon fill="#0000ff" stroke="#000000" points="181.8308,-122 110.1692,-122 110.1692,-86 181.8308,-86 181.8308,-122"/>
<text text-anchor="middle" x="146" y="-101" font-family="Helvetica,sans-Serif" font-size="10.00" fill="#ffffff">Controller</text>
</g>
<!-- A0&#45;&gt;A3 -->
<g id="edge3" class="edge">
<title>A0&#45;&gt;A3</title>
<path fill="none" stroke="#000000" d="M95.5728,-171.7616C104.4822,-159.7896 116.2826,-143.9328 126.2281,-130.5685"/>
<polygon fill="#000000" stroke="#000000" points="132.4468,-122.2121 130.0867,-132.921 129.4617,-126.2233 126.4767,-130.2344 126.4767,-130.2344 126.4767,-130.2344 129.4617,-126.2233 122.8666,-127.5479 132.4468,-122.2121 132.4468,-122.2121"/>
</g>
<!-- A1&#45;&gt;A2 -->
<g id="edge5" class="edge">
<title>A1&#45;&gt;A2</title>
<path fill="none" stroke="#000000" d="M38.6641,-85.7616C46.2477,-73.9036 56.2686,-58.2345 64.7639,-44.951"/>
<polygon fill="#000000" stroke="#000000" points="70.3527,-36.2121 68.756,-47.0611 67.6588,-40.4244 64.9649,-44.6366 64.9649,-44.6366 64.9649,-44.6366 67.6588,-40.4244 61.1739,-42.2121 70.3527,-36.2121 70.3527,-36.2121"/>
</g>
<!-- A3&#45;&gt;A2 -->
<g id="edge4" class="edge">
<title>A3&#45;&gt;A2</title>
<path fill="none" stroke="#000000" d="M132.4272,-85.7616C123.5178,-73.7896 111.7174,-57.9328 101.7719,-44.5685"/>
<polygon fill="#000000" stroke="#000000" points="95.5532,-36.2121 105.1334,-41.5479 98.5383,-40.2233 101.5233,-44.2344 101.5233,-44.2344 101.5233,-44.2344 98.5383,-40.2233 97.9133,-46.921 95.5532,-36.2121 95.5532,-36.2121"/>
</g>
<!-- A4 -->
<g id="node5" class="node">
<title>A4</title>
<polygon fill="#0000ff" stroke="#000000" points="245.0847,-208 132.9153,-208 132.9153,-172 251.0847,-172 251.0847,-202 245.0847,-208"/>
<polyline fill="none" stroke="#000000" points="245.0847,-208 245.0847,-202 "/>
<polyline fill="none" stroke="#000000" points="251.0847,-202 245.0847,-202 "/>
<text text-anchor="middle" x="192" y="-193" font-family="Helvetica,sans-Serif" font-size="10.00" fill="#ffffff">package is indicated</text>
<text text-anchor="middle" x="192" y="-181" font-family="Helvetica,sans-Serif" font-size="10.00" fill="#ffffff">with colour blue</text>
</g>
</g>
</svg>
