<?xml version="1.0" encoding="UTF-8" standalone="no"?>
<!DOCTYPE svg PUBLIC "-//W3C//DTD SVG 1.1//EN"
 "http://www.w3.org/Graphics/SVG/1.1/DTD/svg11.dtd">
<!-- Generated by graphviz version 2.40.1 (20161225.0304)
 -->
<!-- Title: G Pages: 1 -->
<svg width="444pt" height="116pt"
 viewBox="0.00 0.00 443.91 116.00" xmlns="http://www.w3.org/2000/svg" xmlns:xlink="http://www.w3.org/1999/xlink">
<g id="graph0" class="graph" transform="scale(1 1) rotate(0) translate(4 112)">
<title>G</title>
<polygon fill="#ffffff" stroke="transparent" points="-4,4 -4,-112 439.907,-112 439.907,4 -4,4"/>
<!-- A0 -->
<g id="node1" class="node">
<title>A0</title>
<polygon fill="none" stroke="#000000" points="0,-76 0,-108 156,-108 156,-76 0,-76"/>
<text text-anchor="start" x="63.8325" y="-89" font-family="Helvetica,sans-Serif" font-size="10.00" fill="#000000">Player</text>
<polygon fill="none" stroke="#000000" points="0,-44 0,-76 156,-76 156,-44 0,-44"/>
<text text-anchor="start" x="22.432" y="-57" font-family="Helvetica,sans-Serif" font-size="10.00" fill="#000000">&#45;coordinates:Pair&lt;int,int&gt;</text>
<polygon fill="none" stroke="#000000" points="0,0 0,-44 156,-44 156,0 0,0"/>
<text text-anchor="start" x="9.79" y="-25" font-family="Helvetica,sans-Serif" font-size="10.00" fill="#000000">+getCoordinates():Pair&lt;int,int&gt;</text>
<text text-anchor="start" x="22.8515" y="-13" font-family="Helvetica,sans-Serif" font-size="10.00" fill="#000000">+move(pair&lt;int,int&gt;):void</text>
</g>
<!-- A1 -->
<g id="node2" class="node">
<title>A1</title>
<polygon fill="none" stroke="#000000" points="296.3423,-72 205.8857,-72 205.8857,-36 296.3423,-36 296.3423,-72"/>
<text text-anchor="middle" x="251.114" y="-51" font-family="Helvetica,sans-Serif" font-size="10.00" fill="#000000">CreatureParty</text>
</g>
<!-- A0&#45;&gt;A1 -->
<g id="edge1" class="edge">
<title>A0&#45;&gt;A1</title>
<path fill="none" stroke="#000000" d="M168.208,-54C177.6081,-54 186.9507,-54 195.7913,-54"/>
<polygon fill="#000000" stroke="#000000" points="168.2003,-54.0001 162.2003,-58 156.2003,-54 162.2003,-50 168.2003,-54.0001"/>
<polygon fill="#000000" stroke="#000000" points="205.9121,-54 195.9121,-58.5001 200.9121,-54 195.9121,-54.0001 195.9121,-54.0001 195.9121,-54.0001 200.9121,-54 195.912,-49.5001 205.9121,-54 205.9121,-54"/>
</g>
<!-- A2 -->
<g id="node3" class="node">
<title>A2</title>
<polygon fill="none" stroke="#000000" points="435.7471,-72 346.3879,-72 346.3879,-36 435.7471,-36 435.7471,-72"/>
<text text-anchor="middle" x="391.0675" y="-51" font-family="Helvetica,sans-Serif" font-size="10.00" fill="#000000">BaseCreature</text>
</g>
<!-- A1&#45;&gt;A2 -->
<g id="edge2" class="edge">
<title>A1&#45;&gt;A2</title>
<path fill="none" stroke="#000000" d="M308.8291,-54C317.9243,-54 327.3048,-54 336.3299,-54"/>
<polygon fill="none" stroke="#000000" points="308.5529,-54.0001 302.5529,-58 296.5529,-54 302.5529,-50 308.5529,-54.0001"/>
<polygon fill="#000000" stroke="#000000" points="346.3343,-54 336.3344,-58.5001 341.3343,-54 336.3343,-54.0001 336.3343,-54.0001 336.3343,-54.0001 341.3343,-54 336.3343,-49.5001 346.3343,-54 346.3343,-54"/>
</g>
</g>
</svg>
