<?xml version="1.0" encoding="UTF-8" standalone="no"?>
<!DOCTYPE svg PUBLIC "-//W3C//DTD SVG 1.1//EN"
 "http://www.w3.org/Graphics/SVG/1.1/DTD/svg11.dtd">
<!-- Generated by graphviz version 2.40.1 (20161225.0304)
 -->
<!-- Title: G Pages: 1 -->
<svg width="474pt" height="568pt"
 viewBox="0.00 0.00 474.01 568.00" xmlns="http://www.w3.org/2000/svg" xmlns:xlink="http://www.w3.org/1999/xlink">
<g id="graph0" class="graph" transform="scale(1 1) rotate(0) translate(4 564)">
<title>G</title>
<polygon fill="#ffffff" stroke="transparent" points="-4,4 -4,-564 470.008,-564 470.008,4 -4,4"/>
<!-- A0 -->
<g id="node1" class="node">
<title>A0</title>
<polygon fill="none" stroke="#000000" points="46.6135,-528 46.6135,-560 217.6135,-560 217.6135,-528 46.6135,-528"/>
<text text-anchor="start" x="100.999" y="-541" font-family="Helvetica,sans-Serif" font-size="10.00" fill="#000000">CombatModel</text>
<polygon fill="none" stroke="#000000" points="46.6135,-484 46.6135,-528 217.6135,-528 217.6135,-484 46.6135,-484"/>
<text text-anchor="start" x="56.4075" y="-509" font-family="Helvetica,sans-Serif" font-size="10.00" fill="#000000">+CombatModel(Player,Encounter)</text>
<text text-anchor="start" x="87.7965" y="-497" font-family="Helvetica,sans-Serif" font-size="10.00" fill="#000000">+combatLoop():void</text>
</g>
<!-- A1 -->
<g id="node2" class="node">
<title>A1</title>
<polygon fill="none" stroke="#000000" points="113.6135,-402 113.6135,-434 320.6135,-434 320.6135,-402 113.6135,-402"/>
<text text-anchor="start" x="182.1095" y="-415" font-family="Helvetica,sans-Serif" font-size="10.00" fill="#000000">EnemyCreature</text>
<polygon fill="none" stroke="#000000" points="113.6135,-334 113.6135,-402 320.6135,-402 320.6135,-334 113.6135,-334"/>
<text text-anchor="start" x="168.9105" y="-383" font-family="Helvetica,sans-Serif" font-size="10.00" fill="#000000">+chooseMove():Move</text>
<text text-anchor="start" x="171.9665" y="-371" font-family="Helvetica,sans-Serif" font-size="10.00" fill="#000000">+takeDamage():void</text>
<text text-anchor="start" x="184.47" y="-359" font-family="Helvetica,sans-Serif" font-size="10.00" fill="#000000">+isDead():bool</text>
<text text-anchor="start" x="123.2235" y="-347" font-family="Helvetica,sans-Serif" font-size="10.00" fill="#000000">&#45;createNewMoveUsingPower(Move):Move</text>
</g>
<!-- A0&#45;&gt;A1 -->
<g id="edge1" class="edge">
<title>A0&#45;&gt;A1</title>
<path fill="none" stroke="#000000" d="M161.4913,-473.4925C167.6315,-463.5238 174.1582,-452.9275 180.4915,-442.6451"/>
<polygon fill="#000000" stroke="#000000" points="161.3585,-473.7082 161.6176,-480.9147 155.0651,-483.9256 154.806,-476.7191 161.3585,-473.7082"/>
<polygon fill="#000000" stroke="#000000" points="185.7533,-434.1025 184.3403,-444.9769 183.1311,-438.3597 180.5088,-442.6169 180.5088,-442.6169 180.5088,-442.6169 183.1311,-438.3597 176.6773,-440.2569 185.7533,-434.1025 185.7533,-434.1025"/>
</g>
<!-- A4 -->
<g id="node5" class="node">
<title>A4</title>
<polygon fill="none" stroke="#000000" points="95.3408,-402 -.1138,-402 -.1138,-366 95.3408,-366 95.3408,-402"/>
<text text-anchor="middle" x="47.6135" y="-381" font-family="Helvetica,sans-Serif" font-size="10.00" fill="#000000">PlayerCreature</text>
</g>
<!-- A0&#45;&gt;A4 -->
<g id="edge4" class="edge">
<title>A0&#45;&gt;A4</title>
<path fill="none" stroke="#000000" d="M102.1596,-473.6114C89.3465,-452.5614 74.8181,-428.6934 63.9788,-410.8858"/>
<polygon fill="#000000" stroke="#000000" points="102.1984,-473.6752 108.7349,-476.7206 108.4378,-483.9256 101.9013,-480.8802 102.1984,-473.6752"/>
<polygon fill="#000000" stroke="#000000" points="58.6753,-402.173 67.7187,-408.3752 61.2751,-406.444 63.8748,-410.715 63.8748,-410.715 63.8748,-410.715 61.2751,-406.444 60.0309,-413.0548 58.6753,-402.173 58.6753,-402.173"/>
</g>
<!-- A2 -->
<g id="node3" class="node">
<title>A2</title>
<polygon fill="#ffffff" stroke="#000000" points="429.0205,-402 338.2065,-402 338.2065,-366 435.0205,-366 435.0205,-396 429.0205,-402"/>
<polyline fill="none" stroke="#000000" points="429.0205,-402 429.0205,-396 "/>
<polyline fill="none" stroke="#000000" points="435.0205,-396 429.0205,-396 "/>
<text text-anchor="middle" x="386.6135" y="-381" font-family="Helvetica,sans-Serif" font-size="10.00" fill="#000000">This handles AI</text>
</g>
<!-- A1&#45;&gt;A2 -->
<g id="edge2" class="edge">
<title>A1&#45;&gt;A2</title>
<path fill="none" stroke="#000000" stroke-dasharray="5,2" d="M330.2752,-384C332.8854,-384 335.4956,-384 338.1058,-384"/>
<polygon fill="#000000" stroke="#000000" points="320.2073,-384 330.2073,-379.5001 325.2073,-384 330.2073,-384.0001 330.2073,-384.0001 330.2073,-384.0001 325.2073,-384 330.2072,-388.5001 320.2073,-384 320.2073,-384"/>
</g>
<!-- A3 -->
<g id="node4" class="node">
<title>A3</title>
<polygon fill="none" stroke="#000000" points="58.6135,-166 58.6135,-198 191.6135,-198 191.6135,-166 58.6135,-166"/>
<text text-anchor="start" x="92.6" y="-179" font-family="Helvetica,sans-Serif" font-size="10.00" fill="#000000">&lt;&lt;ICreature&gt;&gt;</text>
<polygon fill="none" stroke="#000000" points="58.6135,-86 58.6135,-166 191.6135,-166 191.6135,-86 58.6135,-86"/>
<text text-anchor="start" x="68.573" y="-147" font-family="Helvetica,sans-Serif" font-size="10.00" fill="#000000"> +getMoves():List&lt;Move&gt;</text>
<text text-anchor="start" x="97.47" y="-135" font-family="Helvetica,sans-Serif" font-size="10.00" fill="#000000"> +getHp():int</text>
<text text-anchor="start" x="89.4065" y="-123" font-family="Helvetica,sans-Serif" font-size="10.00" fill="#000000"> +getSpeed():int</text>
<text text-anchor="start" x="89.6915" y="-111" font-family="Helvetica,sans-Serif" font-size="10.00" fill="#000000"> +getPower():int</text>
<text text-anchor="start" x="74.688" y="-99" font-family="Helvetica,sans-Serif" font-size="10.00" fill="#000000">+takeDamage(int):void</text>
</g>
<!-- A1&#45;&gt;A3 -->
<g id="edge3" class="edge">
<title>A1&#45;&gt;A3</title>
<path fill="none" stroke="#000000" d="M214.0019,-321.754C211.4516,-298.0486 206.6286,-271.1779 197.6135,-248 192.0986,-233.8212 184.3535,-219.6865 175.9547,-206.5754"/>
<polygon fill="none" stroke="#000000" points="214.0135,-321.8783 218.5584,-327.4769 215.1385,-333.8255 210.5936,-328.2269 214.0135,-321.8783"/>
<polygon fill="#000000" stroke="#000000" points="170.3579,-198.1171 179.629,-203.9735 173.117,-202.2869 175.8762,-206.4567 175.8762,-206.4567 175.8762,-206.4567 173.117,-202.2869 172.1234,-208.9399 170.3579,-198.1171 170.3579,-198.1171"/>
</g>
<!-- A6 -->
<g id="node7" class="node">
<title>A6</title>
<polygon fill="none" stroke="#000000" points="188.6445,-284 60.5825,-284 60.5825,-248 188.6445,-248 188.6445,-284"/>
<text text-anchor="middle" x="124.6135" y="-263" font-family="Helvetica,sans-Serif" font-size="10.00" fill="#000000">&lt;&lt;ICombatCreature&gt;&gt;</text>
</g>
<!-- A1&#45;&gt;A6 -->
<g id="edge13" class="edge">
<title>A1&#45;&gt;A6</title>
<path fill="none" stroke="#000000" stroke-dasharray="5,2" d="M177.5972,-333.9574C166.3761,-319.5651 154.5873,-304.4447 144.9861,-292.1301"/>
<polygon fill="none" stroke="#000000" points="147.6314,-289.8307 138.7225,-284.0964 142.111,-294.1347 147.6314,-289.8307"/>
</g>
<!-- A7 -->
<g id="node8" class="node">
<title>A7</title>
<polygon fill="none" stroke="#000000" points="342.0375,-160 225.1895,-160 225.1895,-124 342.0375,-124 342.0375,-160"/>
<text text-anchor="middle" x="283.6135" y="-139" font-family="Helvetica,sans-Serif" font-size="10.00" fill="#000000">&lt;&lt;ICombatAction&gt;&gt;</text>
</g>
<!-- A1&#45;&gt;A7 -->
<g id="edge8" class="edge">
<title>A1&#45;&gt;A7</title>
<path fill="none" stroke="#000000" d="M230.4959,-333.8574C244.2534,-284.1663 264.8262,-209.8587 275.8979,-169.8683"/>
<polygon fill="#000000" stroke="#000000" points="278.6268,-160.0117 280.2954,-170.8499 277.2927,-164.8304 275.9585,-169.6491 275.9585,-169.6491 275.9585,-169.6491 277.2927,-164.8304 271.6216,-168.4484 278.6268,-160.0117 278.6268,-160.0117"/>
</g>
<!-- A5 -->
<g id="node6" class="node">
<title>A5</title>
<polygon fill="none" stroke="#000000" points="163.6966,-36 85.5304,-36 85.5304,0 163.6966,0 163.6966,-36"/>
<text text-anchor="middle" x="124.6135" y="-15" font-family="Helvetica,sans-Serif" font-size="10.00" fill="#000000">&lt;&lt;IMove&gt;&gt;</text>
</g>
<!-- A3&#45;&gt;A5 -->
<g id="edge6" class="edge">
<title>A3&#45;&gt;A5</title>
<path fill="none" stroke="#000000" d="M124.6135,-73.5797C124.6135,-63.9392 124.6135,-54.5079 124.6135,-46.2318"/>
<polygon fill="none" stroke="#000000" points="124.6136,-73.8049 128.6135,-79.805 124.6135,-85.8049 120.6135,-79.8049 124.6136,-73.8049"/>
<polygon fill="#000000" stroke="#000000" points="124.6135,-36.097 129.1136,-46.097 124.6135,-41.097 124.6136,-46.097 124.6136,-46.097 124.6136,-46.097 124.6135,-41.097 120.1136,-46.0971 124.6135,-36.097 124.6135,-36.097"/>
</g>
<!-- A4&#45;&gt;A3 -->
<g id="edge5" class="edge">
<title>A4&#45;&gt;A3</title>
<path fill="none" stroke="#000000" d="M43.6919,-353.6581C41.1671,-325.5282 40.1981,-282.8851 51.6135,-248 56.2879,-233.7151 63.5459,-219.6188 71.7069,-206.5981"/>
<polygon fill="none" stroke="#000000" points="43.7179,-353.9075 48.32,-359.4591 44.9655,-365.8424 40.3634,-360.2908 43.7179,-353.9075"/>
<polygon fill="#000000" stroke="#000000" points="77.1822,-198.2059 75.4868,-209.0399 74.4501,-202.3935 71.718,-206.581 71.718,-206.581 71.718,-206.581 74.4501,-202.3935 67.9492,-204.1221 77.1822,-198.2059 77.1822,-198.2059"/>
</g>
<!-- A4&#45;&gt;A6 -->
<g id="edge12" class="edge">
<title>A4&#45;&gt;A6</title>
<path fill="none" stroke="#000000" stroke-dasharray="5,2" d="M59.476,-365.8211C72.2306,-346.2751 92.6356,-315.0051 107.208,-292.6733"/>
<polygon fill="none" stroke="#000000" points="110.3301,-294.2933 112.8639,-284.0059 104.4678,-290.4679 110.3301,-294.2933"/>
</g>
<!-- A6&#45;&gt;A3 -->
<g id="edge7" class="edge">
<title>A6&#45;&gt;A3</title>
<path fill="none" stroke="#000000" stroke-dasharray="5,2" d="M124.6135,-247.9693C124.6135,-237.2725 124.6135,-222.9781 124.6135,-208.3588"/>
<polygon fill="none" stroke="#000000" points="128.1136,-208.2261 124.6135,-198.2262 121.1136,-208.2262 128.1136,-208.2261"/>
</g>
<!-- A6&#45;&gt;A7 -->
<g id="edge14" class="edge">
<title>A6&#45;&gt;A7</title>
<path fill="none" stroke="#000000" stroke-dasharray="5,2" d="M147.7335,-247.9693C175.2882,-226.4801 221.4601,-190.4718 252.2251,-166.479"/>
<polygon fill="#000000" stroke="#000000" points="260.4656,-160.0524 255.3475,-169.7507 256.5229,-163.1273 252.5801,-166.2022 252.5801,-166.2022 252.5801,-166.2022 256.5229,-163.1273 249.8127,-162.6537 260.4656,-160.0524 260.4656,-160.0524"/>
</g>
<!-- A8 -->
<g id="node9" class="node">
<title>A8</title>
<polygon fill="none" stroke="#000000" points="358.3449,-284 282.8821,-284 282.8821,-248 358.3449,-248 358.3449,-284"/>
<text text-anchor="middle" x="320.6135" y="-263" font-family="Helvetica,sans-Serif" font-size="10.00" fill="#000000">FleeAction</text>
</g>
<!-- A8&#45;&gt;A7 -->
<g id="edge9" class="edge">
<title>A8&#45;&gt;A7</title>
<path fill="none" stroke="#000000" stroke-dasharray="5,2" d="M315.2334,-247.9693C309.1227,-227.4903 299.0775,-193.8251 291.9503,-169.9395"/>
<polygon fill="none" stroke="#000000" points="295.2134,-168.6342 289.0001,-160.0524 288.5056,-170.6357 295.2134,-168.6342"/>
</g>
<!-- A9 -->
<g id="node10" class="node">
<title>A9</title>
<polygon fill="none" stroke="#000000" points="464.6855,-284 376.5415,-284 376.5415,-248 464.6855,-248 464.6855,-284"/>
<text text-anchor="middle" x="420.6135" y="-263" font-family="Helvetica,sans-Serif" font-size="10.00" fill="#000000">AttackAcktion</text>
</g>
<!-- A9&#45;&gt;A7 -->
<g id="edge10" class="edge">
<title>A9&#45;&gt;A7</title>
<path fill="none" stroke="#000000" stroke-dasharray="5,2" d="M400.6925,-247.9693C377.0519,-226.572 337.5068,-190.7793 310.9994,-166.7872"/>
<polygon fill="none" stroke="#000000" points="313.3213,-164.1681 303.5585,-160.0524 308.6239,-169.3579 313.3213,-164.1681"/>
</g>
<!-- A10 -->
<g id="node11" class="node">
<title>A10</title>
<polygon fill="none" stroke="#000000" points="465.9027,-160 375.3243,-160 375.3243,-124 465.9027,-124 465.9027,-160"/>
<text text-anchor="middle" x="420.6135" y="-139" font-family="Helvetica,sans-Serif" font-size="10.00" fill="#000000">AttackHandler</text>
</g>
<!-- A9&#45;&gt;A10 -->
<g id="edge11" class="edge">
<title>A9&#45;&gt;A10</title>
<path fill="none" stroke="#000000" d="M420.6135,-247.9693C420.6135,-227.5822 420.6135,-194.1268 420.6135,-170.2614"/>
<polygon fill="#000000" stroke="#000000" points="420.6135,-160.0524 425.1136,-170.0524 420.6135,-165.0524 420.6136,-170.0524 420.6136,-170.0524 420.6136,-170.0524 420.6135,-165.0524 416.1136,-170.0525 420.6135,-160.0524 420.6135,-160.0524"/>
</g>
</g>
</svg>
