<?xml version="1.0" encoding="UTF-8" standalone="no"?>
<!DOCTYPE svg PUBLIC "-//W3C//DTD SVG 1.1//EN"
 "http://www.w3.org/Graphics/SVG/1.1/DTD/svg11.dtd">
<!-- Generated by graphviz version 2.40.1 (20161225.0304)
 -->
<!-- Title: G Pages: 1 -->
<svg width="1477pt" height="788pt"
 viewBox="0.00 0.00 1477.34 788.00" xmlns="http://www.w3.org/2000/svg" xmlns:xlink="http://www.w3.org/1999/xlink">
<g id="graph0" class="graph" transform="scale(1 1) rotate(0) translate(4 784)">
<title>G</title>
<polygon fill="#ffffff" stroke="transparent" points="-4,4 -4,-784 1473.3395,-784 1473.3395,4 -4,4"/>
<!-- A0 -->
<g id="node1" class="node">
<title>A0</title>
<polygon fill="none" stroke="#000000" points="1036,-748 1036,-780 1195,-780 1195,-748 1036,-748"/>
<text text-anchor="start" x="1092.4455" y="-761" font-family="Helvetica,sans-Serif" font-size="10.00" fill="#000000">Controller </text>
<polygon fill="none" stroke="#000000" points="1036,-680 1036,-748 1195,-748 1195,-680 1036,-680"/>
<text text-anchor="start" x="1072.5845" y="-729" font-family="Helvetica,sans-Serif" font-size="10.00" fill="#000000"> +Controller(Model)</text>
<text text-anchor="start" x="1063.1295" y="-717" font-family="Helvetica,sans-Serif" font-size="10.00" fill="#000000">+observerUpdate():void</text>
<text text-anchor="start" x="1045.8935" y="-705" font-family="Helvetica,sans-Serif" font-size="10.00" fill="#000000">+changeInput(ModelState):void</text>
<text text-anchor="start" x="1071.4635" y="-693" font-family="Helvetica,sans-Serif" font-size="10.00" fill="#000000">+render(Batch):void</text>
</g>
<!-- A1 -->
<g id="node2" class="node">
<title>A1</title>
<polygon fill="none" stroke="#000000" points="613,-556 613,-588 758,-588 758,-556 613,-556"/>
<text text-anchor="start" x="644.9435" y="-569" font-family="Helvetica,sans-Serif" font-size="10.00" fill="#000000">CombatController </text>
<polygon fill="none" stroke="#000000" points="613,-500 613,-556 758,-556 758,-500 613,-500"/>
<text text-anchor="start" x="625.0825" y="-537" font-family="Helvetica,sans-Serif" font-size="10.00" fill="#000000"> +CombatController(Model)</text>
<text text-anchor="start" x="641.4635" y="-525" font-family="Helvetica,sans-Serif" font-size="10.00" fill="#000000">+render(Batch):void</text>
<text text-anchor="start" x="622.5705" y="-513" font-family="Helvetica,sans-Serif" font-size="10.00" fill="#000000">+setAsInputProcessor():void</text>
</g>
<!-- A0&#45;&gt;A1 -->
<g id="edge6" class="edge">
<title>A0&#45;&gt;A1</title>
<path fill="none" stroke="#000000" d="M1035.1954,-716.3756C964.9771,-702.0574 861.6607,-675.1933 781,-630 764.3644,-620.6793 748.1663,-608.0341 733.9578,-595.3107"/>
<polygon fill="#000000" stroke="#000000" points="726.2787,-588.2547 736.687,-591.7072 729.9605,-591.6377 733.6422,-595.0207 733.6422,-595.0207 733.6422,-595.0207 729.9605,-591.6377 730.5975,-598.3343 726.2787,-588.2547 726.2787,-588.2547"/>
</g>
<!-- A2 -->
<g id="node3" class="node">
<title>A2</title>
<polygon fill="none" stroke="#000000" points="823,-598 823,-630 1033,-630 1033,-598 823,-598"/>
<text text-anchor="start" x="881.328" y="-611" font-family="Helvetica,sans-Serif" font-size="10.00" fill="#000000">WorldInputProcessor</text>
<polygon fill="none" stroke="#000000" points="823,-458 823,-598 1033,-598 1033,-458 823,-458"/>
<text text-anchor="start" x="832.852" y="-579" font-family="Helvetica,sans-Serif" font-size="10.00" fill="#000000"> +WorldInputProcessor(MovementHandler)</text>
<text text-anchor="start" x="865.0705" y="-567" font-family="Helvetica,sans-Serif" font-size="10.00" fill="#000000">+setAsInputProcessor():void</text>
<text text-anchor="start" x="876.7395" y="-555" font-family="Helvetica,sans-Serif" font-size="10.00" fill="#000000">+keyDown(int):boolean</text>
<text text-anchor="start" x="883.1285" y="-543" font-family="Helvetica,sans-Serif" font-size="10.00" fill="#000000">+keyUp(int):boolean</text>
<text text-anchor="start" x="871.1795" y="-531" font-family="Helvetica,sans-Serif" font-size="10.00" fill="#000000">+keyTyped(char):boolean</text>
<text text-anchor="start" x="852.287" y="-519" font-family="Helvetica,sans-Serif" font-size="10.00" fill="#000000">+touchDown(int,int,int,int):boolean</text>
<text text-anchor="start" x="858.676" y="-507" font-family="Helvetica,sans-Serif" font-size="10.00" fill="#000000">+touchUp(int,int,int,int):boolean</text>
<text text-anchor="start" x="852.5615" y="-495" font-family="Helvetica,sans-Serif" font-size="10.00" fill="#000000">+touchDragged(int,int,int):boolean</text>
<text text-anchor="start" x="860.623" y="-483" font-family="Helvetica,sans-Serif" font-size="10.00" fill="#000000">+mouseMoved(int,int):boolean</text>
<text text-anchor="start" x="865.069" y="-471" font-family="Helvetica,sans-Serif" font-size="10.00" fill="#000000">+scrolled(float,float):boolean</text>
</g>
<!-- A0&#45;&gt;A2 -->
<g id="edge5" class="edge">
<title>A0&#45;&gt;A2</title>
<path fill="none" stroke="#000000" d="M1064.3951,-679.6657C1051.1955,-666.5367 1036.5398,-651.9593 1021.8718,-637.3698"/>
<polygon fill="#000000" stroke="#000000" points="1014.6765,-630.213 1024.94,-634.0746 1018.2215,-633.7391 1021.7665,-637.2651 1021.7665,-637.2651 1021.7665,-637.2651 1018.2215,-633.7391 1018.5931,-640.4556 1014.6765,-630.213 1014.6765,-630.213"/>
</g>
<!-- A3 -->
<g id="node4" class="node">
<title>A3</title>
<polygon fill="none" stroke="#000000" points="1052,-544 1052,-576 1179,-576 1179,-544 1052,-544"/>
<text text-anchor="start" x="1080.486" y="-557" font-family="Helvetica,sans-Serif" font-size="10.00" fill="#000000">&lt;&lt;IObserver&gt;&gt; </text>
<polygon fill="none" stroke="#000000" points="1052,-512 1052,-544 1179,-544 1179,-512 1052,-512"/>
<text text-anchor="start" x="1061.74" y="-525" font-family="Helvetica,sans-Serif" font-size="10.00" fill="#000000"> +observerUpdate():void</text>
</g>
<!-- A0&#45;&gt;A3 -->
<g id="edge1" class="edge">
<title>A0&#45;&gt;A3</title>
<path fill="none" stroke="#000000" stroke-dasharray="5,2" d="M1115,-679.6657C1115,-650.4734 1115,-614.1205 1115,-586.3952"/>
<polygon fill="none" stroke="#000000" points="1118.5001,-586.2245 1115,-576.2245 1111.5001,-586.2245 1118.5001,-586.2245"/>
</g>
<!-- A4 -->
<g id="node5" class="node">
<title>A4</title>
<polygon fill="none" stroke="#000000" points="1197,-544 1197,-588 1295,-588 1295,-544 1197,-544"/>
<text text-anchor="start" x="1206.5375" y="-569" font-family="Helvetica,sans-Serif" font-size="10.00" fill="#000000">&lt;&lt;enumeration&gt;&gt;</text>
<text text-anchor="start" x="1219.3255" y="-557" font-family="Helvetica,sans-Serif" font-size="10.00" fill="#000000">ModelState </text>
<polygon fill="none" stroke="#000000" points="1197,-500 1197,-544 1295,-544 1295,-500 1197,-500"/>
<text text-anchor="start" x="1223.2235" y="-525" font-family="Helvetica,sans-Serif" font-size="10.00" fill="#000000"> COMBAT</text>
<text text-anchor="start" x="1226.003" y="-513" font-family="Helvetica,sans-Serif" font-size="10.00" fill="#000000"> WORLD</text>
</g>
<!-- A0&#45;&gt;A4 -->
<g id="edge2" class="edge">
<title>A0&#45;&gt;A4</title>
<path fill="none" stroke="#000000" stroke-dasharray="5,2" d="M1152.1305,-679.9038C1163.7419,-664.0338 1176.5161,-646.3624 1188,-630 1195.5022,-619.3108 1203.408,-607.7768 1210.8868,-596.7343"/>
<polygon fill="#000000" stroke="#000000" points="1216.5089,-588.408 1214.6423,-599.2139 1213.7109,-592.5518 1210.9129,-596.6957 1210.9129,-596.6957 1210.9129,-596.6957 1213.7109,-592.5518 1207.1834,-594.1774 1216.5089,-588.408 1216.5089,-588.408"/>
</g>
<!-- A10 -->
<g id="node11" class="node">
<title>A10</title>
<polygon fill="none" stroke="#000000" points="832.7255,-340 777.2745,-340 777.2745,-304 832.7255,-304 832.7255,-340"/>
<text text-anchor="middle" x="805" y="-319" font-family="Helvetica,sans-Serif" font-size="10.00" fill="#000000">Model</text>
</g>
<!-- A0&#45;&gt;A10 -->
<g id="edge3" class="edge">
<title>A0&#45;&gt;A10</title>
<path fill="none" stroke="#000000" d="M1023.3705,-711.5885C944.4996,-693.6919 839.4797,-664.2485 814,-630 751.0441,-545.3779 779.7226,-408.4105 796.2309,-349.9206"/>
<polygon fill="none" stroke="#000000" points="1023.5845,-711.6362 1030.3122,-709.0406 1035.2959,-714.2525 1028.5681,-716.8481 1023.5845,-711.6362"/>
<polygon fill="#000000" stroke="#000000" points="799.0504,-340.2622 800.5678,-351.1226 797.6492,-345.0619 796.2481,-349.8615 796.2481,-349.8615 796.2481,-349.8615 797.6492,-345.0619 791.9284,-348.6005 799.0504,-340.2622 799.0504,-340.2622"/>
</g>
<!-- A11 -->
<g id="node12" class="node">
<title>A11</title>
<polygon fill="none" stroke="#000000" points="1367,-562 1313,-562 1313,-526 1367,-526 1367,-562"/>
<text text-anchor="middle" x="1340" y="-541" font-family="Helvetica,sans-Serif" font-size="10.00" fill="#000000">View</text>
</g>
<!-- A0&#45;&gt;A11 -->
<g id="edge4" class="edge">
<title>A0&#45;&gt;A11</title>
<path fill="none" stroke="#000000" d="M1194.7944,-702.345C1231.99,-686.1124 1274.4538,-662.3396 1304,-630 1318.9454,-613.6416 1328.2011,-590.1865 1333.5785,-571.9023"/>
<polygon fill="#000000" stroke="#000000" points="1336.2444,-562.0912 1337.9648,-572.9212 1334.9333,-566.9162 1333.6222,-571.7413 1333.6222,-571.7413 1333.6222,-571.7413 1334.9333,-566.9162 1329.2797,-570.5613 1336.2444,-562.0912 1336.2444,-562.0912"/>
</g>
<!-- A12 -->
<g id="node13" class="node">
<title>A12</title>
<polygon fill="none" stroke="#000000" points="1469.1796,-562 1384.8204,-562 1384.8204,-526 1469.1796,-526 1469.1796,-562"/>
<text text-anchor="middle" x="1427" y="-541" font-family="Helvetica,sans-Serif" font-size="10.00" fill="#000000">stateHandler</text>
</g>
<!-- A0&#45;&gt;A12 -->
<g id="edge7" class="edge">
<title>A0&#45;&gt;A12</title>
<path fill="none" stroke="#000000" d="M1194.6204,-714.1445C1250.3592,-699.7861 1323.8864,-673.9576 1376,-630 1394.5305,-614.3696 1408.0209,-590.1989 1416.4555,-571.4576"/>
<polygon fill="#000000" stroke="#000000" points="1420.4053,-562.2261 1420.6088,-573.1901 1418.4384,-566.823 1416.4716,-571.4199 1416.4716,-571.4199 1416.4716,-571.4199 1418.4384,-566.823 1412.3344,-569.6497 1420.4053,-562.2261 1420.4053,-562.2261"/>
</g>
<!-- A5 -->
<g id="node6" class="node">
<title>A5</title>
<polygon fill="none" stroke="#000000" points="611,-322 611,-354 759,-354 759,-322 611,-322"/>
<text text-anchor="start" x="659.4255" y="-335" font-family="Helvetica,sans-Serif" font-size="10.00" fill="#000000">&lt;&lt;IInput&gt;&gt; </text>
<polygon fill="none" stroke="#000000" points="611,-290 611,-322 759,-322 759,-290 611,-290"/>
<text text-anchor="start" x="620.681" y="-303" font-family="Helvetica,sans-Serif" font-size="10.00" fill="#000000"> +setAsInputProcessor():void</text>
</g>
<!-- A1&#45;&gt;A5 -->
<g id="edge11" class="edge">
<title>A1&#45;&gt;A5</title>
<path fill="none" stroke="#000000" stroke-dasharray="5,2" d="M685,-499.8745C685,-460.5765 685,-403.4493 685,-364.6165"/>
<polygon fill="none" stroke="#000000" points="688.5001,-364.1787 685,-354.1788 681.5001,-364.1788 688.5001,-364.1787"/>
</g>
<!-- A6 -->
<g id="node7" class="node">
<title>A6</title>
<polygon fill="none" stroke="#000000" points="0,-154 0,-186 194,-186 194,-154 0,-154"/>
<text text-anchor="start" x="49.4895" y="-167" font-family="Helvetica,sans-Serif" font-size="10.00" fill="#000000">CombatInputHandler </text>
<polygon fill="none" stroke="#000000" points="0,-86 0,-154 194,-154 194,-86 0,-86"/>
<text text-anchor="start" x="9.6275" y="-135" font-family="Helvetica,sans-Serif" font-size="10.00" fill="#000000"> +CombatInputHandler(PlayerCreature)</text>
<text text-anchor="start" x="23.514" y="-123" font-family="Helvetica,sans-Serif" font-size="10.00" fill="#000000">+changeSelection(Direction):void</text>
<text text-anchor="start" x="24.625" y="-111" font-family="Helvetica,sans-Serif" font-size="10.00" fill="#000000">+getCurrentSelection():Selection</text>
<text text-anchor="start" x="42.125" y="-99" font-family="Helvetica,sans-Serif" font-size="10.00" fill="#000000">+executeSelection():void</text>
</g>
<!-- A1&#45;&gt;A6 -->
<g id="edge12" class="edge">
<title>A1&#45;&gt;A6</title>
<path fill="none" stroke="#000000" d="M612.2495,-537.1589C473.6157,-522.5097 179.6913,-483.1642 116,-408 66.676,-349.7912 71.9288,-257.0608 82.5874,-196.3511"/>
<polygon fill="#000000" stroke="#000000" points="84.482,-186.1491 87.0804,-196.8026 83.569,-191.065 82.656,-195.981 82.656,-195.981 82.656,-195.981 83.569,-191.065 78.2317,-195.1593 84.482,-186.1491 84.482,-186.1491"/>
</g>
<!-- A7 -->
<g id="node8" class="node">
<title>A7</title>
<polygon fill="none" stroke="#000000" points="330,-376 330,-408 593,-408 593,-376 330,-376"/>
<text text-anchor="start" x="339.5065" y="-389" font-family="Helvetica,sans-Serif" font-size="10.00" fill="#000000">&lt;&lt;IInput&gt;&gt;&lt;&lt;InputProcessor&gt;&gt;CombatInputProcessor </text>
<polygon fill="none" stroke="#000000" points="330,-236 330,-376 593,-376 593,-236 330,-236"/>
<text text-anchor="start" x="356.6195" y="-357" font-family="Helvetica,sans-Serif" font-size="10.00" fill="#000000"> +CombatInputProcessor(CombatInputHandler)</text>
<text text-anchor="start" x="398.5705" y="-345" font-family="Helvetica,sans-Serif" font-size="10.00" fill="#000000">+setAsInputProcessor():void</text>
<text text-anchor="start" x="416.6285" y="-333" font-family="Helvetica,sans-Serif" font-size="10.00" fill="#000000">+keyUp(int):boolean</text>
<text text-anchor="start" x="410.2395" y="-321" font-family="Helvetica,sans-Serif" font-size="10.00" fill="#000000">+keyDown(int):boolean</text>
<text text-anchor="start" x="404.6795" y="-309" font-family="Helvetica,sans-Serif" font-size="10.00" fill="#000000">+keyTyped(char):boolean</text>
<text text-anchor="start" x="385.787" y="-297" font-family="Helvetica,sans-Serif" font-size="10.00" fill="#000000">+touchDown(int,int,int,int):boolean</text>
<text text-anchor="start" x="392.176" y="-285" font-family="Helvetica,sans-Serif" font-size="10.00" fill="#000000">+touchUp(int,int,int,int):boolean</text>
<text text-anchor="start" x="386.0615" y="-273" font-family="Helvetica,sans-Serif" font-size="10.00" fill="#000000">+touchDragged(int,int,int):boolean</text>
<text text-anchor="start" x="394.123" y="-261" font-family="Helvetica,sans-Serif" font-size="10.00" fill="#000000">+mouseMoved(int,int):boolean</text>
<text text-anchor="start" x="398.569" y="-249" font-family="Helvetica,sans-Serif" font-size="10.00" fill="#000000">+scrolled(float,float):boolean</text>
</g>
<!-- A1&#45;&gt;A7 -->
<g id="edge13" class="edge">
<title>A1&#45;&gt;A7</title>
<path fill="none" stroke="#000000" d="M640.477,-499.8745C616.1296,-475.7445 584.9995,-444.8923 555.5248,-415.6809"/>
<polygon fill="#000000" stroke="#000000" points="548.0721,-408.2946 558.3425,-412.1377 551.6234,-411.8143 555.1748,-415.334 555.1748,-415.334 555.1748,-415.334 551.6234,-411.8143 552.0071,-418.5302 548.0721,-408.2946 548.0721,-408.2946"/>
</g>
<!-- A8 -->
<g id="node9" class="node">
<title>A8</title>
<polygon fill="none" stroke="#000000" points="125,-328 125,-360 311,-360 311,-328 125,-328"/>
<text text-anchor="start" x="186.886" y="-341" font-family="Helvetica,sans-Serif" font-size="10.00" fill="#000000">ChoiceDialog </text>
<polygon fill="none" stroke="#000000" points="125,-284 125,-328 311,-328 311,-284 125,-284"/>
<text text-anchor="start" x="134.5165" y="-309" font-family="Helvetica,sans-Serif" font-size="10.00" fill="#000000"> +ChoiceDialog(CombatInputHandler)</text>
<text text-anchor="start" x="173.9635" y="-297" font-family="Helvetica,sans-Serif" font-size="10.00" fill="#000000">+render(Batch):void</text>
</g>
<!-- A1&#45;&gt;A8 -->
<g id="edge14" class="edge">
<title>A1&#45;&gt;A8</title>
<path fill="none" stroke="#000000" d="M612.472,-525.0041C536.3838,-503.2792 414.8916,-463.418 320,-408 300.5767,-396.6565 281.2121,-381.5441 264.6564,-367.1544"/>
<polygon fill="#000000" stroke="#000000" points="256.7668,-360.168 267.2368,-363.4286 260.5102,-363.4828 264.2535,-366.7976 264.2535,-366.7976 264.2535,-366.7976 260.5102,-363.4828 261.2702,-370.1666 256.7668,-360.168 256.7668,-360.168"/>
</g>
<!-- A1&#45;&gt;A10 -->
<g id="edge15" class="edge">
<title>A1&#45;&gt;A10</title>
<path fill="none" stroke="#000000" d="M714.1101,-499.8948C730.8285,-473.7174 751.6771,-439.5746 768,-408 777.8585,-388.9299 787.3932,-366.6456 794.3141,-349.54"/>
<polygon fill="#000000" stroke="#000000" points="798.0696,-340.1303 798.5422,-351.086 796.2162,-344.7741 794.3627,-349.4179 794.3627,-349.4179 794.3627,-349.4179 796.2162,-344.7741 790.1833,-347.7498 798.0696,-340.1303 798.0696,-340.1303"/>
</g>
<!-- A14 -->
<g id="node15" class="node">
<title>A14</title>
<polygon fill="none" stroke="#000000" points="969.0957,-340 850.9043,-340 850.9043,-304 969.0957,-304 969.0957,-340"/>
<text text-anchor="middle" x="910" y="-319" font-family="Helvetica,sans-Serif" font-size="10.00" fill="#000000">&lt;&lt;InputProcessor&gt;&gt;</text>
</g>
<!-- A1&#45;&gt;A14 -->
<g id="edge10" class="edge">
<title>A1&#45;&gt;A14</title>
<path fill="none" stroke="#000000" stroke-dasharray="5,2" d="M741.047,-499.8126C772.075,-474.2997 810.5987,-440.8407 842,-408 859.974,-389.2021 878.1333,-365.9704 891.1594,-348.3933"/>
<polygon fill="none" stroke="#000000" points="894.0298,-350.3977 897.1184,-340.263 888.3839,-346.2595 894.0298,-350.3977"/>
</g>
<!-- A13 -->
<g id="node14" class="node">
<title>A13</title>
<polygon fill="none" stroke="#000000" points="1096.6765,-340 987.3235,-340 987.3235,-304 1096.6765,-304 1096.6765,-340"/>
<text text-anchor="middle" x="1042" y="-319" font-family="Helvetica,sans-Serif" font-size="10.00" fill="#000000">MovementHandler</text>
</g>
<!-- A2&#45;&gt;A13 -->
<g id="edge8" class="edge">
<title>A2&#45;&gt;A13</title>
<path fill="none" stroke="#000000" stroke-dasharray="5,2" d="M972.2385,-457.8513C992.0826,-419.2076 1014.1018,-376.328 1027.9923,-349.2781"/>
<polygon fill="none" stroke="#000000" points="1031.2684,-350.5602 1032.723,-340.0657 1025.0414,-347.3626 1031.2684,-350.5602"/>
</g>
<!-- A2&#45;&gt;A14 -->
<g id="edge9" class="edge">
<title>A2&#45;&gt;A14</title>
<path fill="none" stroke="#000000" stroke-dasharray="5,2" d="M921.015,-457.8513C917.9229,-419.7161 914.4964,-377.4557 912.299,-350.354"/>
<polygon fill="none" stroke="#000000" points="915.7616,-349.7501 911.4648,-340.0657 908.7845,-350.3159 915.7616,-349.7501"/>
</g>
<!-- A15 -->
<g id="node16" class="node">
<title>A15</title>
<polygon fill="none" stroke="#000000" points="313.6221,-36 244.3779,-36 244.3779,0 313.6221,0 313.6221,-36"/>
<text text-anchor="middle" x="279" y="-15" font-family="Helvetica,sans-Serif" font-size="10.00" fill="#000000">Selection</text>
</g>
<!-- A6&#45;&gt;A15 -->
<g id="edge18" class="edge">
<title>A6&#45;&gt;A15</title>
<path fill="none" stroke="#000000" d="M174.1844,-85.9574C197.8768,-70.5963 222.8485,-54.4059 242.4724,-41.6827"/>
<polygon fill="#000000" stroke="#000000" points="251.0887,-36.0964 245.146,-45.3124 246.8933,-38.8165 242.6979,-41.5366 242.6979,-41.5366 242.6979,-41.5366 246.8933,-38.8165 240.2498,-37.7607 251.0887,-36.0964 251.0887,-36.0964"/>
</g>
<!-- A16 -->
<g id="node17" class="node">
<title>A16</title>
<polygon fill="none" stroke="#000000" points="144.7273,-36 49.2727,-36 49.2727,0 144.7273,0 144.7273,-36"/>
<text text-anchor="middle" x="97" y="-15" font-family="Helvetica,sans-Serif" font-size="10.00" fill="#000000">PlayerCreature</text>
</g>
<!-- A6&#45;&gt;A16 -->
<g id="edge19" class="edge">
<title>A6&#45;&gt;A16</title>
<path fill="none" stroke="#000000" d="M97,-85.9574C97,-72.3954 97,-58.1869 97,-46.2888"/>
<polygon fill="#000000" stroke="#000000" points="97,-36.0964 101.5001,-46.0963 97,-41.0964 97.0001,-46.0964 97.0001,-46.0964 97.0001,-46.0964 97,-41.0964 92.5001,-46.0964 97,-36.0964 97,-36.0964"/>
</g>
<!-- A8&#45;&gt;A6 -->
<g id="edge17" class="edge">
<title>A8&#45;&gt;A6</title>
<path fill="none" stroke="#000000" d="M193.2219,-283.9113C176.4827,-258.1801 154.0596,-223.7114 135.0705,-194.5217"/>
<polygon fill="#000000" stroke="#000000" points="129.5563,-186.0453 138.7815,-191.9738 132.2829,-190.2365 135.0094,-194.4277 135.0094,-194.4277 135.0094,-194.4277 132.2829,-190.2365 131.2374,-196.8816 129.5563,-186.0453 129.5563,-186.0453"/>
</g>
<!-- A9 -->
<g id="node10" class="node">
<title>A9</title>
<polygon fill="none" stroke="#000000" points="213,-148 213,-180 512,-180 512,-148 213,-148"/>
<text text-anchor="start" x="331.101" y="-161" font-family="Helvetica,sans-Serif" font-size="10.00" fill="#000000">ChoiceButton </text>
<polygon fill="none" stroke="#000000" points="213,-92 213,-148 512,-148 512,-92 213,-92"/>
<text text-anchor="start" x="222.605" y="-129" font-family="Helvetica,sans-Serif" font-size="10.00" fill="#000000"> +ChoiceButton(String,Selection,Vector2,float,float,BitmapFont)</text>
<text text-anchor="start" x="310.5455" y="-117" font-family="Helvetica,sans-Serif" font-size="10.00" fill="#000000">render(bool,Batch):void</text>
<text text-anchor="start" x="306.6515" y="-105" font-family="Helvetica,sans-Serif" font-size="10.00" fill="#000000">getButtonSelection():void</text>
</g>
<!-- A8&#45;&gt;A9 -->
<g id="edge16" class="edge">
<title>A8&#45;&gt;A9</title>
<path fill="none" stroke="#000000" d="M247.488,-283.9113C268.864,-256.3006 298.0288,-218.6295 321.5752,-188.2154"/>
<polygon fill="#000000" stroke="#000000" points="327.7435,-180.248 325.18,-190.9101 324.6826,-184.2016 321.6217,-188.1553 321.6217,-188.1553 321.6217,-188.1553 324.6826,-184.2016 318.0634,-185.4005 327.7435,-180.248 327.7435,-180.248"/>
</g>
<!-- A9&#45;&gt;A15 -->
<g id="edge20" class="edge">
<title>A9&#45;&gt;A15</title>
<path fill="none" stroke="#000000" d="M330.8577,-91.7254C319.764,-75.9537 307.6154,-58.6821 297.8671,-44.8231"/>
<polygon fill="#000000" stroke="#000000" points="291.8429,-36.2586 301.2768,-41.8489 294.7195,-40.3482 297.5961,-44.4378 297.5961,-44.4378 297.5961,-44.4378 294.7195,-40.3482 293.9155,-47.0268 291.8429,-36.2586 291.8429,-36.2586"/>
</g>
</g>
</svg>
