<?xml version="1.0" encoding="UTF-8" standalone="no"?>
<!DOCTYPE svg PUBLIC "-//W3C//DTD SVG 1.1//EN"
 "http://www.w3.org/Graphics/SVG/1.1/DTD/svg11.dtd">
<!-- Generated by graphviz version 2.40.1 (20161225.0304)
 -->
<!-- Title: G Pages: 1 -->
<svg width="603pt" height="348pt"
 viewBox="0.00 0.00 603.13 348.00" xmlns="http://www.w3.org/2000/svg" xmlns:xlink="http://www.w3.org/1999/xlink">
<g id="graph0" class="graph" transform="scale(1 1) rotate(0) translate(4 344)">
<title>G</title>
<polygon fill="#ffffff" stroke="transparent" points="-4,4 -4,-344 599.135,-344 599.135,4 -4,4"/>
<!-- A0 -->
<g id="node1" class="node">
<title>A0</title>
<polygon fill="none" stroke="#000000" points="179.6245,-308 179.6245,-340 335.6245,-340 335.6245,-308 179.6245,-308"/>
<text text-anchor="start" x="234.57" y="-321" font-family="Helvetica,sans-Serif" font-size="10.00" fill="#000000">Controller </text>
<polygon fill="none" stroke="#000000" points="179.6245,-252 179.6245,-308 335.6245,-308 335.6245,-252 179.6245,-252"/>
<text text-anchor="start" x="214.709" y="-289" font-family="Helvetica,sans-Serif" font-size="10.00" fill="#000000"> +Controller(Model)</text>
<text text-anchor="start" x="225.531" y="-277" font-family="Helvetica,sans-Serif" font-size="10.00" fill="#000000">+update():void</text>
<text text-anchor="start" x="189.273" y="-265" font-family="Helvetica,sans-Serif" font-size="10.00" fill="#000000">&#45;changeInput(ModelState):void</text>
</g>
<!-- A1 -->
<g id="node2" class="node">
<title>A1</title>
<polygon fill="none" stroke="#000000" points="95.3738,-176 -.1248,-176 -.1248,-140 95.3738,-140 95.3738,-176"/>
<text text-anchor="middle" x="47.6245" y="-155" font-family="Helvetica,sans-Serif" font-size="10.00" fill="#000000">&lt;&lt;IObserver&gt;&gt;</text>
</g>
<!-- A0&#45;&gt;A1 -->
<g id="edge1" class="edge">
<title>A0&#45;&gt;A1</title>
<path fill="none" stroke="#000000" stroke-dasharray="5,2" d="M182.2882,-251.9028C157.2164,-236.6523 129.3831,-219.0898 104.6245,-202 95.828,-195.9282 86.5492,-189.0041 78.0915,-182.4744"/>
<polygon fill="none" stroke="#000000" points="79.9918,-179.5177 69.9557,-176.1223 75.6839,-185.0351 79.9918,-179.5177"/>
</g>
<!-- A2 -->
<g id="node3" class="node">
<title>A2</title>
<polygon fill="none" stroke="#000000" points="113.6245,-158 113.6245,-202 211.6245,-202 211.6245,-158 113.6245,-158"/>
<text text-anchor="start" x="123.162" y="-183" font-family="Helvetica,sans-Serif" font-size="10.00" fill="#000000">&lt;&lt;enumeration&gt;&gt;</text>
<text text-anchor="start" x="135.95" y="-171" font-family="Helvetica,sans-Serif" font-size="10.00" fill="#000000">ModelState </text>
<polygon fill="none" stroke="#000000" points="113.6245,-114 113.6245,-158 211.6245,-158 211.6245,-114 113.6245,-114"/>
<text text-anchor="start" x="139.848" y="-139" font-family="Helvetica,sans-Serif" font-size="10.00" fill="#000000"> COMBAT</text>
<text text-anchor="start" x="142.6275" y="-127" font-family="Helvetica,sans-Serif" font-size="10.00" fill="#000000"> WORLD</text>
</g>
<!-- A0&#45;&gt;A2 -->
<g id="edge2" class="edge">
<title>A0&#45;&gt;A2</title>
<path fill="none" stroke="#000000" stroke-dasharray="5,2" d="M227.3047,-251.9565C218.2211,-238.7613 208.1687,-224.1589 198.7502,-210.4773"/>
<polygon fill="#000000" stroke="#000000" points="192.9821,-202.0984 202.3591,-207.7837 195.8173,-206.2169 198.6525,-210.3353 198.6525,-210.3353 198.6525,-210.3353 195.8173,-206.2169 194.9459,-212.887 192.9821,-202.0984 192.9821,-202.0984"/>
</g>
<!-- A3 -->
<g id="node4" class="node">
<title>A3</title>
<polygon fill="none" stroke="#000000" points="285.35,-176 229.899,-176 229.899,-140 285.35,-140 285.35,-176"/>
<text text-anchor="middle" x="257.6245" y="-155" font-family="Helvetica,sans-Serif" font-size="10.00" fill="#000000">Model</text>
</g>
<!-- A0&#45;&gt;A3 -->
<g id="edge3" class="edge">
<title>A0&#45;&gt;A3</title>
<path fill="none" stroke="#000000" d="M257.6245,-239.8928C257.6245,-221.5147 257.6245,-201.8713 257.6245,-186.4309"/>
<polygon fill="none" stroke="#000000" points="257.6246,-239.9565 261.6245,-245.9565 257.6245,-251.9565 253.6245,-245.9565 257.6246,-239.9565"/>
<polygon fill="#000000" stroke="#000000" points="257.6245,-176.009 262.1246,-186.009 257.6245,-181.009 257.6246,-186.009 257.6246,-186.009 257.6246,-186.009 257.6245,-181.009 253.1246,-186.009 257.6245,-176.009 257.6245,-176.009"/>
</g>
<!-- A4 -->
<g id="node5" class="node">
<title>A4</title>
<polygon fill="none" stroke="#000000" points="595.1455,-176 452.1035,-176 452.1035,-140 595.1455,-140 595.1455,-176"/>
<text text-anchor="middle" x="523.6245" y="-155" font-family="Helvetica,sans-Serif" font-size="10.00" fill="#000000">MapPlayerInputProcessor</text>
</g>
<!-- A0&#45;&gt;A4 -->
<g id="edge4" class="edge">
<title>A0&#45;&gt;A4</title>
<path fill="none" stroke="#000000" d="M335.7307,-256.9114C368.8102,-240.202 407.7043,-220.3517 442.6245,-202 455.3918,-195.2904 469.2087,-187.8517 481.7539,-181.0288"/>
<polygon fill="#000000" stroke="#000000" points="490.6308,-176.1888 484.0052,-184.9268 486.2409,-178.5823 481.851,-180.9759 481.851,-180.9759 481.851,-180.9759 486.2409,-178.5823 479.6968,-177.025 490.6308,-176.1888 490.6308,-176.1888"/>
</g>
<!-- A5 -->
<g id="node6" class="node">
<title>A5</title>
<polygon fill="none" stroke="#000000" points="433.8677,-176 303.3813,-176 303.3813,-140 433.8677,-140 433.8677,-176"/>
<text text-anchor="middle" x="368.6245" y="-155" font-family="Helvetica,sans-Serif" font-size="10.00" fill="#000000">CombatInputProcessor</text>
</g>
<!-- A0&#45;&gt;A5 -->
<g id="edge5" class="edge">
<title>A0&#45;&gt;A5</title>
<path fill="none" stroke="#000000" d="M293.0508,-251.9565C311.0683,-229.5564 332.3478,-203.1008 347.7282,-183.9792"/>
<polygon fill="#000000" stroke="#000000" points="354.139,-176.009 351.3778,-186.6216 351.0052,-179.9051 347.8714,-183.8012 347.8714,-183.8012 347.8714,-183.8012 351.0052,-179.9051 344.3649,-180.9807 354.139,-176.009 354.139,-176.009"/>
</g>
<!-- A6 -->
<g id="node7" class="node">
<title>A6</title>
<polygon fill="none" stroke="#000000" points="305.6245,-32 305.6245,-64 441.6245,-64 441.6245,-32 305.6245,-32"/>
<text text-anchor="start" x="348.05" y="-45" font-family="Helvetica,sans-Serif" font-size="10.00" fill="#000000">&lt;&lt;IInput&gt;&gt; </text>
<polygon fill="none" stroke="#000000" points="305.6245,0 305.6245,-32 441.6245,-32 441.6245,0 305.6245,0"/>
<text text-anchor="start" x="315.14" y="-13" font-family="Helvetica,sans-Serif" font-size="10.00" fill="#000000"> +setInputProcessor():void</text>
</g>
<!-- A4&#45;&gt;A6 -->
<g id="edge6" class="edge">
<title>A4&#45;&gt;A6</title>
<path fill="none" stroke="#000000" stroke-dasharray="5,2" d="M502.1332,-139.9473C480.7514,-121.9866 447.2626,-93.856 419.8321,-70.8144"/>
<polygon fill="none" stroke="#000000" points="421.8117,-67.9063 411.9034,-64.1543 417.3093,-73.2662 421.8117,-67.9063"/>
</g>
<!-- A7 -->
<g id="node8" class="node">
<title>A7</title>
<polygon fill="none" stroke="#000000" points="579.7202,-50 461.5288,-50 461.5288,-14 579.7202,-14 579.7202,-50"/>
<text text-anchor="middle" x="520.6245" y="-29" font-family="Helvetica,sans-Serif" font-size="10.00" fill="#000000">&lt;&lt;InputProcessor&gt;&gt;</text>
</g>
<!-- A4&#45;&gt;A7 -->
<g id="edge8" class="edge">
<title>A4&#45;&gt;A7</title>
<path fill="none" stroke="#000000" stroke-dasharray="5,2" d="M523.1947,-139.9473C522.6979,-119.0823 521.8743,-84.4928 521.2936,-60.1006"/>
<polygon fill="none" stroke="#000000" points="524.7907,-59.9331 521.0535,-50.0192 517.7926,-60.0997 524.7907,-59.9331"/>
</g>
<!-- A5&#45;&gt;A6 -->
<g id="edge7" class="edge">
<title>A5&#45;&gt;A6</title>
<path fill="none" stroke="#000000" stroke-dasharray="5,2" d="M369.3409,-139.9473C370.0169,-122.9116 371.056,-96.7266 371.9415,-74.4129"/>
<polygon fill="none" stroke="#000000" points="375.4492,-74.2852 372.3485,-64.1543 368.4547,-74.0076 375.4492,-74.2852"/>
</g>
<!-- A5&#45;&gt;A7 -->
<g id="edge9" class="edge">
<title>A5&#45;&gt;A7</title>
<path fill="none" stroke="#000000" stroke-dasharray="5,2" d="M390.4024,-139.9473C416.8144,-118.0531 461.4567,-81.047 490.9865,-56.5683"/>
<polygon fill="none" stroke="#000000" points="493.4219,-59.0958 498.887,-50.0192 488.9545,-53.7066 493.4219,-59.0958"/>
</g>
</g>
</svg>
