<?xml version="1.0" encoding="UTF-8" standalone="no"?>
<!DOCTYPE svg PUBLIC "-//W3C//DTD SVG 1.1//EN"
 "http://www.w3.org/Graphics/SVG/1.1/DTD/svg11.dtd">
<!-- Generated by graphviz version 2.40.1 (20161225.0304)
 -->
<!-- Title: G Pages: 1 -->
<svg width="164pt" height="288pt"
 viewBox="0.00 0.00 164.00 288.00" xmlns="http://www.w3.org/2000/svg" xmlns:xlink="http://www.w3.org/1999/xlink">
<g id="graph0" class="graph" transform="scale(1 1) rotate(0) translate(4 284)">
<title>G</title>
<polygon fill="#ffffff" stroke="transparent" points="-4,4 -4,-284 160,-284 160,4 -4,4"/>
<!-- A0 -->
<g id="node1" class="node">
<title>A0</title>
<polygon fill="none" stroke="#000000" points="0,-248 0,-280 156,-280 156,-248 0,-248"/>
<text text-anchor="start" x="63.8325" y="-261" font-family="Helvetica,sans-Serif" font-size="10.00" fill="#000000">Player</text>
<polygon fill="none" stroke="#000000" points="0,-216 0,-248 156,-248 156,-216 0,-216"/>
<text text-anchor="start" x="22.432" y="-229" font-family="Helvetica,sans-Serif" font-size="10.00" fill="#000000">&#45;coordinates:Pair&lt;int,int&gt;</text>
<polygon fill="none" stroke="#000000" points="0,-172 0,-216 156,-216 156,-172 0,-172"/>
<text text-anchor="start" x="9.79" y="-197" font-family="Helvetica,sans-Serif" font-size="10.00" fill="#000000">+getCoordinates():Pair&lt;int,int&gt;</text>
<text text-anchor="start" x="22.8515" y="-185" font-family="Helvetica,sans-Serif" font-size="10.00" fill="#000000">+move(pair&lt;int,int&gt;):void</text>
</g>
<!-- A1 -->
<g id="node2" class="node">
<title>A1</title>
<polygon fill="none" stroke="#000000" points="123.2283,-122 32.7717,-122 32.7717,-86 123.2283,-86 123.2283,-122"/>
<text text-anchor="middle" x="78" y="-101" font-family="Helvetica,sans-Serif" font-size="10.00" fill="#000000">CreatureParty</text>
</g>
<!-- A0&#45;&gt;A1 -->
<g id="edge1" class="edge">
<title>A0&#45;&gt;A1</title>
<path fill="none" stroke="#000000" d="M78,-159.6188C78,-150.0165 78,-140.5934 78,-132.3112"/>
<polygon fill="#000000" stroke="#000000" points="78.0001,-159.7785 82,-165.7786 78,-171.7785 74,-165.7785 78.0001,-159.7785"/>
<polygon fill="#000000" stroke="#000000" points="78,-122.1617 82.5001,-132.1616 78,-127.1617 78.0001,-132.1617 78.0001,-132.1617 78.0001,-132.1617 78,-127.1617 73.5001,-132.1617 78,-122.1617 78,-122.1617"/>
</g>
<!-- A2 -->
<g id="node3" class="node">
<title>A2</title>
<polygon fill="none" stroke="#000000" points="122.6796,-36 33.3204,-36 33.3204,0 122.6796,0 122.6796,-36"/>
<text text-anchor="middle" x="78" y="-15" font-family="Helvetica,sans-Serif" font-size="10.00" fill="#000000">BaseCreature</text>
</g>
<!-- A1&#45;&gt;A2 -->
<g id="edge2" class="edge">
<title>A1&#45;&gt;A2</title>
<path fill="none" stroke="#000000" d="M78,-73.5205C78,-64.6543 78,-55.01 78,-46.2849"/>
<polygon fill="none" stroke="#000000" points="78.0001,-73.7616 82,-79.7616 78,-85.7616 74,-79.7616 78.0001,-73.7616"/>
<polygon fill="#000000" stroke="#000000" points="78,-36.2121 82.5001,-46.2121 78,-41.2121 78.0001,-46.2121 78.0001,-46.2121 78.0001,-46.2121 78,-41.2121 73.5001,-46.2121 78,-36.2121 78,-36.2121"/>
</g>
</g>
</svg>
