<?xml version="1.0" encoding="UTF-8" standalone="no"?>
<!DOCTYPE svg PUBLIC "-//W3C//DTD SVG 1.1//EN"
 "http://www.w3.org/Graphics/SVG/1.1/DTD/svg11.dtd">
<!-- Generated by graphviz version 2.40.1 (20161225.0304)
 -->
<!-- Title: G Pages: 1 -->
<svg width="386pt" height="388pt"
 viewBox="0.00 0.00 386.23 388.00" xmlns="http://www.w3.org/2000/svg" xmlns:xlink="http://www.w3.org/1999/xlink">
<g id="graph0" class="graph" transform="scale(1 1) rotate(0) translate(4 384)">
<title>G</title>
<polygon fill="#ffffff" stroke="transparent" points="-4,4 -4,-384 382.2285,-384 382.2285,4 -4,4"/>
<!-- A0 -->
<g id="node1" class="node">
<title>A0</title>
<polygon fill="none" stroke="#000000" points="130.4033,-380 66.0537,-380 66.0537,-344 130.4033,-344 130.4033,-380"/>
<text text-anchor="middle" x="98.2285" y="-359" font-family="Helvetica,sans-Serif" font-size="10.00" fill="#000000">Feyrune</text>
</g>
<!-- A1 -->
<g id="node2" class="node">
<title>A1</title>
<polygon fill="none" stroke="#000000" points="98.2285,-294 44.2285,-294 44.2285,-258 98.2285,-258 98.2285,-294"/>
<text text-anchor="middle" x="71.2285" y="-273" font-family="Helvetica,sans-Serif" font-size="10.00" fill="#000000">Map</text>
</g>
<!-- A0&#45;&gt;A1 -->
<g id="edge1" class="edge">
<title>A0&#45;&gt;A1</title>
<path fill="none" stroke="#000000" d="M92.5025,-343.7616C88.887,-332.2456 84.1431,-317.1353 80.0526,-304.1064"/>
<polygon fill="#000000" stroke="#000000" points="76.9463,-294.2121 84.2351,-302.405 78.444,-298.9825 79.9417,-303.7529 79.9417,-303.7529 79.9417,-303.7529 78.444,-298.9825 75.6483,-305.1009 76.9463,-294.2121 76.9463,-294.2121"/>
<text text-anchor="middle" x="90.44" y="-305.9742" font-family="Helvetica,sans-Serif" font-size="10.00" fill="#000000">1</text>
<text text-anchor="middle" x="79.0088" y="-325.9995" font-family="Helvetica,sans-Serif" font-size="10.00" fill="#000000">1</text>
</g>
<!-- A5 -->
<g id="node6" class="node">
<title>A5</title>
<polygon fill="none" stroke="#000000" points="166.5645,-122 109.8925,-122 109.8925,-86 166.5645,-86 166.5645,-122"/>
<text text-anchor="middle" x="138.2285" y="-101" font-family="Helvetica,sans-Serif" font-size="10.00" fill="#000000">Player</text>
</g>
<!-- A0&#45;&gt;A5 -->
<g id="edge5" class="edge">
<title>A0&#45;&gt;A5</title>
<path fill="none" stroke="#000000" d="M101.0412,-343.8579C107.9122,-299.5401 125.5908,-185.5129 133.8521,-132.2275"/>
<polygon fill="#000000" stroke="#000000" points="135.4189,-122.122 138.3336,-132.6934 134.6528,-127.063 133.8867,-132.004 133.8867,-132.004 133.8867,-132.004 134.6528,-127.063 129.4398,-131.3145 135.4189,-122.122 135.4189,-122.122"/>
<text text-anchor="middle" x="140.9944" y="-138.3291" font-family="Helvetica,sans-Serif" font-size="10.00" fill="#000000">1</text>
<text text-anchor="middle" x="95.4657" y="-321.6508" font-family="Helvetica,sans-Serif" font-size="10.00" fill="#000000">1</text>
</g>
<!-- A2 -->
<g id="node3" class="node">
<title>A2</title>
<polygon fill="none" stroke="#000000" points="82.2285,-208 28.2285,-208 28.2285,-172 82.2285,-172 82.2285,-208"/>
<text text-anchor="middle" x="55.2285" y="-187" font-family="Helvetica,sans-Serif" font-size="10.00" fill="#000000">Tile</text>
</g>
<!-- A1&#45;&gt;A2 -->
<g id="edge2" class="edge">
<title>A1&#45;&gt;A2</title>
<path fill="none" stroke="#000000" d="M67.8353,-257.7616C65.6928,-246.2456 62.8816,-231.1353 60.4576,-218.1064"/>
<polygon fill="#000000" stroke="#000000" points="58.6168,-208.2121 64.87,-217.2203 59.5314,-213.1277 60.446,-218.0434 60.446,-218.0434 60.446,-218.0434 59.5314,-213.1277 56.0219,-218.8665 58.6168,-208.2121 58.6168,-208.2121"/>
<text text-anchor="middle" x="70.242" y="-221.4865" font-family="Helvetica,sans-Serif" font-size="10.00" fill="#000000">*</text>
<text text-anchor="middle" x="56.2101" y="-238.4872" font-family="Helvetica,sans-Serif" font-size="10.00" fill="#000000">1</text>
</g>
<!-- A3 -->
<g id="node4" class="node">
<title>A3</title>
<polygon fill="none" stroke="#000000" points="92.6866,-122 -.2296,-122 -.2296,-86 92.6866,-86 92.6866,-122"/>
<text text-anchor="middle" x="46.2285" y="-101" font-family="Helvetica,sans-Serif" font-size="10.00" fill="#000000">Encounter Tile</text>
</g>
<!-- A2&#45;&gt;A3 -->
<g id="edge3" class="edge">
<title>A2&#45;&gt;A3</title>
<path fill="none" stroke="#000000" d="M53.3198,-171.7616C52.1266,-160.3597 50.5646,-145.4342 49.2104,-132.494"/>
<polygon fill="#000000" stroke="#000000" points="48.1344,-122.2121 53.6509,-131.6894 48.6549,-127.1849 49.1753,-132.1578 49.1753,-132.1578 49.1753,-132.1578 48.6549,-127.1849 44.6998,-132.6262 48.1344,-122.2121 48.1344,-122.2121"/>
<text text-anchor="middle" x="58.4275" y="-136.3601" font-family="Helvetica,sans-Serif" font-size="10.00" fill="#000000">1</text>
<text text-anchor="middle" x="43.0268" y="-151.6137" font-family="Helvetica,sans-Serif" font-size="10.00" fill="#000000">0.1</text>
</g>
<!-- A4 -->
<g id="node5" class="node">
<title>A4</title>
<polygon fill="none" stroke="#000000" points="160.3426,-36 96.1144,-36 96.1144,0 160.3426,0 160.3426,-36"/>
<text text-anchor="middle" x="128.2285" y="-15" font-family="Helvetica,sans-Serif" font-size="10.00" fill="#000000">Monster</text>
</g>
<!-- A3&#45;&gt;A4 -->
<g id="edge4" class="edge">
<title>A3&#45;&gt;A4</title>
<path fill="none" stroke="#000000" d="M63.6186,-85.7616C75.2512,-73.5615 90.7303,-57.3273 103.6212,-43.8076"/>
<polygon fill="#000000" stroke="#000000" points="110.8635,-36.2121 107.2195,-46.5549 107.4131,-39.8308 103.9627,-43.4495 103.9627,-43.4495 103.9627,-43.4495 107.4131,-39.8308 100.7059,-40.3441 110.8635,-36.2121 110.8635,-36.2121"/>
<text text-anchor="middle" x="104.4724" y="-52.1634" font-family="Helvetica,sans-Serif" font-size="10.00" fill="#000000">1</text>
<text text-anchor="middle" x="70.0097" y="-63.8103" font-family="Helvetica,sans-Serif" font-size="10.00" fill="#000000">0.1</text>
</g>
<!-- A5&#45;&gt;A4 -->
<g id="edge6" class="edge">
<title>A5&#45;&gt;A4</title>
<path fill="none" stroke="#000000" d="M136.1078,-85.7616C134.7819,-74.3597 133.0464,-59.4342 131.5418,-46.494"/>
<polygon fill="#000000" stroke="#000000" points="130.3462,-36.2121 135.9712,-45.6254 130.9237,-41.1786 131.5013,-46.1452 131.5013,-46.1452 131.5013,-46.1452 130.9237,-41.1786 127.0314,-46.665 130.3462,-36.2121 130.3462,-36.2121"/>
<text text-anchor="middle" x="140.8356" y="-50.2407" font-family="Helvetica,sans-Serif" font-size="10.00" fill="#000000">*</text>
<text text-anchor="middle" x="125.6184" y="-65.733" font-family="Helvetica,sans-Serif" font-size="10.00" fill="#000000">1</text>
</g>
<!-- A6 -->
<g id="node7" class="node">
<title>A6</title>
<polygon fill="none" stroke="#000000" points="225.7325,-208 162.7245,-208 162.7245,-172 225.7325,-172 225.7325,-208"/>
<text text-anchor="middle" x="194.2285" y="-187" font-family="Helvetica,sans-Serif" font-size="10.00" fill="#000000">Combat</text>
</g>
<!-- A6&#45;&gt;A4 -->
<g id="edge8" class="edge">
<title>A6&#45;&gt;A4</title>
<path fill="none" stroke="#000000" d="M193.2202,-171.6802C191.5245,-150.3744 187.0298,-114.4877 175.2285,-86 169.0851,-71.1703 159.3378,-56.3182 150.3086,-44.2943"/>
<polygon fill="#000000" stroke="#000000" points="143.9226,-36.0796 153.6129,-41.2128 146.9914,-40.0272 150.0602,-43.9747 150.0602,-43.9747 150.0602,-43.9747 146.9914,-40.0272 146.5074,-46.7366 143.9226,-36.0796 143.9226,-36.0796"/>
<text text-anchor="middle" x="161.7207" y="-42.2027" font-family="Helvetica,sans-Serif" font-size="10.00" fill="#000000">1</text>
<text text-anchor="middle" x="183.2161" y="-151.3621" font-family="Helvetica,sans-Serif" font-size="10.00" fill="#000000">1</text>
</g>
<!-- A6&#45;&gt;A5 -->
<g id="edge7" class="edge">
<title>A6&#45;&gt;A5</title>
<path fill="none" stroke="#000000" d="M182.3523,-171.7616C174.6308,-159.9036 164.4277,-144.2345 155.778,-130.951"/>
<polygon fill="#000000" stroke="#000000" points="150.0875,-122.2121 159.3153,-128.1365 152.8159,-126.4021 155.5443,-130.5921 155.5443,-130.5921 155.5443,-130.5921 152.8159,-126.4021 151.7733,-133.0476 150.0875,-122.2121 150.0875,-122.2121"/>
<text text-anchor="middle" x="167.0616" y="-129.7896" font-family="Helvetica,sans-Serif" font-size="10.00" fill="#000000">1</text>
<text text-anchor="middle" x="165.3783" y="-158.1842" font-family="Helvetica,sans-Serif" font-size="10.00" fill="#000000">1</text>
</g>
<!-- A7 -->
<g id="node8" class="node">
<title>A7</title>
<polygon fill="none" stroke="#000000" points="297.0139,-122 241.4431,-122 241.4431,-86 297.0139,-86 297.0139,-122"/>
<text text-anchor="middle" x="269.2285" y="-101" font-family="Helvetica,sans-Serif" font-size="10.00" fill="#000000">Action</text>
</g>
<!-- A6&#45;&gt;A7 -->
<g id="edge9" class="edge">
<title>A6&#45;&gt;A7</title>
<path fill="none" stroke="#000000" d="M210.1341,-171.7616C220.7737,-159.5615 234.9314,-143.3273 246.7219,-129.8076"/>
<polygon fill="#000000" stroke="#000000" points="253.3459,-122.2121 250.1647,-132.7064 250.0595,-125.9804 246.7732,-129.7487 246.7732,-129.7487 246.7732,-129.7487 250.0595,-125.9804 243.3817,-126.791 253.3459,-122.2121 253.3459,-122.2121"/>
<text text-anchor="middle" x="247.8024" y="-138.4285" font-family="Helvetica,sans-Serif" font-size="10.00" fill="#000000">1</text>
<text text-anchor="middle" x="215.6775" y="-149.5452" font-family="Helvetica,sans-Serif" font-size="10.00" fill="#000000">1</text>
</g>
<!-- A8 -->
<g id="node9" class="node">
<title>A8</title>
<polygon fill="none" stroke="#000000" points="234.0149,-36 178.4421,-36 178.4421,0 234.0149,0 234.0149,-36"/>
<text text-anchor="middle" x="206.2285" y="-15" font-family="Helvetica,sans-Serif" font-size="10.00" fill="#000000">Attack</text>
</g>
<!-- A7&#45;&gt;A8 -->
<g id="edge10" class="edge">
<title>A7&#45;&gt;A8</title>
<path fill="none" stroke="#000000" d="M255.8678,-85.7616C247.0976,-73.7896 235.4816,-57.9328 225.6915,-44.5685"/>
<polygon fill="#000000" stroke="#000000" points="219.5699,-36.2121 229.1097,-41.6198 222.5247,-40.2456 225.4795,-44.2791 225.4795,-44.2791 225.4795,-44.2791 222.5247,-40.2456 221.8494,-46.9385 219.5699,-36.2121 219.5699,-36.2121"/>
<text text-anchor="middle" x="237.1002" y="-42.8395" font-family="Helvetica,sans-Serif" font-size="10.00" fill="#000000">4</text>
<text text-anchor="middle" x="238.3375" y="-73.1342" font-family="Helvetica,sans-Serif" font-size="10.00" fill="#000000">1</text>
</g>
<!-- A9 -->
<g id="node10" class="node">
<title>A9</title>
<polygon fill="none" stroke="#000000" points="306.2285,-36 252.2285,-36 252.2285,0 306.2285,0 306.2285,-36"/>
<text text-anchor="middle" x="279.2285" y="-15" font-family="Helvetica,sans-Serif" font-size="10.00" fill="#000000">Flee</text>
</g>
<!-- A7&#45;&gt;A9 -->
<g id="edge11" class="edge">
<title>A7&#45;&gt;A9</title>
<path fill="none" stroke="#000000" d="M271.3492,-85.7616C272.6751,-74.3597 274.4106,-59.4342 275.9152,-46.494"/>
<polygon fill="#000000" stroke="#000000" points="277.1108,-36.2121 280.4256,-46.665 276.5333,-41.1786 275.9557,-46.1452 275.9557,-46.1452 275.9557,-46.1452 276.5333,-41.1786 271.4858,-45.6254 277.1108,-36.2121 277.1108,-36.2121"/>
<text text-anchor="middle" x="283.413" y="-52.1932" font-family="Helvetica,sans-Serif" font-size="10.00" fill="#000000">1</text>
<text text-anchor="middle" x="265.047" y="-63.7805" font-family="Helvetica,sans-Serif" font-size="10.00" fill="#000000">1</text>
</g>
<!-- A10 -->
<g id="node11" class="node">
<title>A10</title>
<polygon fill="none" stroke="#000000" points="378.2285,-36 324.2285,-36 324.2285,0 378.2285,0 378.2285,-36"/>
<text text-anchor="middle" x="351.2285" y="-15" font-family="Helvetica,sans-Serif" font-size="10.00" fill="#000000">Item</text>
</g>
<!-- A7&#45;&gt;A10 -->
<g id="edge12" class="edge">
<title>A7&#45;&gt;A10</title>
<path fill="none" stroke="#000000" d="M286.6186,-85.7616C298.2512,-73.5615 313.7303,-57.3273 326.6212,-43.8076"/>
<polygon fill="#000000" stroke="#000000" points="333.8635,-36.2121 330.2195,-46.5549 330.4131,-39.8308 326.9627,-43.4495 326.9627,-43.4495 326.9627,-43.4495 330.4131,-39.8308 323.7059,-40.3441 333.8635,-36.2121 333.8635,-36.2121"/>
<text text-anchor="middle" x="327.4724" y="-52.1634" font-family="Helvetica,sans-Serif" font-size="10.00" fill="#000000">*</text>
<text text-anchor="middle" x="293.0097" y="-63.8103" font-family="Helvetica,sans-Serif" font-size="10.00" fill="#000000">1</text>
</g>
</g>
</svg>
